<svg version="1.1" xmlns="http://www.w3.org/2000/svg" viewBox="0 0 509 423" width="509" height="423">
  <!-- svg-source:excalidraw -->

  <defs>
    <style class="style-fonts">
      @font-face {
        font-family: "Virgil";
        src: url("https://excalidraw.com/Virgil.woff2");
      }
      @font-face {
        font-family: "Cascadia";
        src: url("https://excalidraw.com/Cascadia.woff2");
      }
      @font-face {
        font-family: "Assistant";
        src: url("https://excalidraw.com/Assistant-Regular.woff2");
      }
    </style>

  </defs>
  <rect x="0" y="0" width="509" height="423" fill="#ffffff"></rect><g stroke-linecap="round" transform="translate(269 10) rotate(0 23.5 24.5)"><path d="M17.83 0.52 C22.4 -0.92, 29.43 0.15, 34.05 2.44 C38.66 4.74, 43.47 9.48, 45.51 14.29 C47.55 19.09, 47.72 26.1, 46.28 31.28 C44.85 36.46, 41.1 42.41, 36.89 45.37 C32.67 48.33, 26.07 49.77, 21 49.05 C15.92 48.33, 9.89 44.82, 6.44 41.04 C2.98 37.25, 0.56 31.46, 0.28 26.33 C0 21.2, 1.57 14.63, 4.77 10.26 C7.97 5.89, 16.89 1.71, 19.49 0.1 C22.1 -1.5, 20.44 0.11, 20.39 0.62 M23.14 -0.18 C27.89 -0.57, 34.24 2.09, 38.22 5.47 C42.2 8.85, 46.07 14.9, 47.01 20.09 C47.94 25.27, 46.37 31.88, 43.83 36.59 C41.3 41.3, 36.5 46.52, 31.82 48.35 C27.14 50.18, 20.62 49.52, 15.77 47.58 C10.93 45.65, 5.2 41.29, 2.77 36.75 C0.34 32.21, 0.08 25.55, 1.17 20.34 C2.25 15.14, 5.58 9.02, 9.28 5.51 C12.98 1.99, 21.04 0.19, 23.35 -0.73 C25.66 -1.66, 23.02 -0.68, 23.14 -0.03" stroke="#1e1e1e" stroke-width="2" fill="none"></path></g><g transform="translate(285.7130001025654 22.175883860929588) rotate(0 6.669990539550781 12.5)"><text x="6.669990539550781" y="17.52" font-family="Virgil, Segoe UI Emoji" font-size="20px" fill="#1e1e1e" text-anchor="middle" style="white-space: pre;" direction="ltr" dominant-baseline="alphabetic">a</text></g><g stroke-linecap="round" transform="translate(193 118) rotate(0 23.5 24.5)"><path d="M23.78 0.26 C28.56 0.1, 35.07 3.16, 38.98 6.64 C42.88 10.12, 46.41 16.02, 47.2 21.15 C47.98 26.27, 46.47 32.9, 43.69 37.38 C40.91 41.86, 35.29 46.33, 30.53 48.01 C25.77 49.68, 19.69 49.33, 15.12 47.42 C10.55 45.5, 5.62 41.14, 3.13 36.52 C0.63 31.9, -0.79 24.97, 0.16 19.7 C1.11 14.42, 4.66 8.16, 8.84 4.89 C13.01 1.62, 22.48 0.75, 25.21 0.08 C27.94 -0.6, 25.4 0.46, 25.25 0.84 M17.79 0.77 C22.4 -0.58, 29.11 0.87, 33.79 3.36 C38.47 5.85, 43.82 11, 45.88 15.7 C47.94 20.4, 47.69 26.56, 46.13 31.59 C44.58 36.61, 40.73 42.89, 36.54 45.86 C32.35 48.83, 26.04 50.28, 20.99 49.4 C15.95 48.53, 9.87 44.67, 6.25 40.6 C2.63 36.52, -0.38 30.05, -0.71 24.93 C-1.04 19.82, 0.99 13.99, 4.28 9.9 C7.57 5.81, 16.61 1.94, 19.01 0.4 C21.42 -1.15, 18.77 0.25, 18.71 0.62" stroke="#1e1e1e" stroke-width="2" fill="none"></path></g><g transform="translate(211.302996440456 130.17588386092956) rotate(0 5.079994201660156 12.5)"><text x="5.079994201660156" y="17.52" font-family="Virgil, Segoe UI Emoji" font-size="20px" fill="#1e1e1e" text-anchor="middle" style="white-space: pre;" direction="ltr" dominant-baseline="alphabetic">b</text></g><g stroke-linecap="round" transform="translate(355 123) rotate(0 23.5 24.5)"><path d="M21.59 0.3 C26.25 -0.58, 32.8 1.06, 36.94 4.09 C41.08 7.12, 45.09 13.29, 46.43 18.47 C47.77 23.65, 47.06 30.52, 44.97 35.17 C42.88 39.81, 38.43 44.21, 33.88 46.36 C29.32 48.51, 22.62 49.3, 17.63 48.06 C12.63 46.81, 6.82 43.2, 3.9 38.88 C0.98 34.55, -0.42 27.45, 0.12 22.09 C0.66 16.73, 3.47 10.46, 7.13 6.71 C10.79 2.96, 19.49 0.6, 22.07 -0.41 C24.66 -1.41, 22.65 0.2, 22.64 0.7 M20.35 0.52 C24.89 -0.66, 30.95 1.04, 35.29 3.77 C39.64 6.49, 44.62 11.97, 46.42 16.87 C48.22 21.77, 48.08 28.46, 46.09 33.17 C44.1 37.88, 39.1 42.65, 34.48 45.13 C29.87 47.61, 23.24 48.79, 18.42 48.05 C13.6 47.31, 8.67 44.63, 5.57 40.71 C2.46 36.78, -0.14 29.88, -0.2 24.49 C-0.26 19.09, 1.97 12.28, 5.22 8.35 C8.47 4.42, 16.93 2.18, 19.31 0.92 C21.68 -0.34, 19.45 0.4, 19.47 0.78" stroke="#1e1e1e" stroke-width="2" fill="none"></path></g><g transform="translate(373.44299583010445 135.17588386092956) rotate(0 4.939994812011719 12.5)"><text x="4.939994812011719" y="17.52" font-family="Virgil, Segoe UI Emoji" font-size="20px" fill="#1e1e1e" text-anchor="middle" style="white-space: pre;" direction="ltr" dominant-baseline="alphabetic">h</text></g><g stroke-linecap="round" transform="translate(59 246) rotate(0 23.5 24.5)"><path d="M23.63 0.16 C28.52 -0.16, 35 2.68, 38.78 6.02 C42.55 9.36, 45.43 15.19, 46.27 20.22 C47.11 25.25, 46.21 31.66, 43.84 36.2 C41.47 40.74, 36.78 45.54, 32.04 47.48 C27.29 49.42, 20.24 49.63, 15.36 47.85 C10.48 46.08, 5.35 41.44, 2.77 36.81 C0.19 32.19, -1.07 25.33, -0.12 20.12 C0.82 14.9, 4.31 8.91, 8.44 5.51 C12.57 2.11, 21.72 0.44, 24.68 -0.3 C27.64 -1.04, 26.17 0.59, 26.21 1.08 M22.43 0.65 C27.13 -0.2, 33.55 1.33, 37.41 4.22 C41.27 7.1, 44.48 12.72, 45.59 17.95 C46.7 23.17, 46.04 30.78, 44.05 35.58 C42.06 40.37, 38.13 44.72, 33.65 46.72 C29.18 48.72, 22.19 49.06, 17.21 47.56 C12.23 46.07, 6.53 42.06, 3.78 37.73 C1.04 33.39, 0.16 26.79, 0.74 21.54 C1.31 16.28, 3.61 9.66, 7.22 6.19 C10.83 2.72, 19.94 1.78, 22.39 0.71 C24.84 -0.36, 22.05 -0.62, 21.9 -0.2" stroke="#1e1e1e" stroke-width="2" fill="none"></path></g><g transform="translate(77.36299399904976 258.17588386092956) rotate(0 5.019996643066406 12.5)"><text x="5.019996643066406" y="17.52" font-family="Virgil, Segoe UI Emoji" font-size="20px" fill="#1e1e1e" text-anchor="middle" style="white-space: pre;" direction="ltr" dominant-baseline="alphabetic">c</text></g><g stroke-linecap="round" transform="translate(228 242) rotate(0 23.5 24.5)"><path d="M27.57 0.22 C32.2 0.84, 37.76 4.93, 41.01 8.89 C44.25 12.85, 46.88 18.87, 47.03 23.99 C47.18 29.1, 45.12 35.57, 41.89 39.6 C38.66 43.63, 32.71 47.07, 27.66 48.15 C22.61 49.22, 16.01 48.52, 11.59 46.03 C7.17 43.54, 2.89 38.08, 1.13 33.19 C-0.63 28.31, -0.8 21.64, 1.02 16.74 C2.84 11.85, 7.4 6.54, 12.04 3.83 C16.67 1.12, 25.83 0.79, 28.84 0.48 C31.85 0.16, 30.18 1.44, 30.12 1.93 M22.92 -0.53 C27.83 -0.57, 35.04 2.98, 38.96 6.51 C42.89 10.04, 45.74 15.64, 46.46 20.67 C47.19 25.7, 45.9 32.11, 43.32 36.7 C40.75 41.28, 35.73 46.38, 31.01 48.17 C26.3 49.96, 19.79 49.3, 15.03 47.44 C10.27 45.59, 4.79 41.63, 2.46 37.05 C0.13 32.48, 0.16 25.35, 1.04 20.01 C1.92 14.67, 3.88 8.25, 7.76 5.01 C11.64 1.78, 21.76 1.32, 24.34 0.63 C26.92 -0.07, 23.31 0.54, 23.23 0.86" stroke="#1e1e1e" stroke-width="2" fill="none"></path></g><g transform="translate(245.91299705080758 254.17588386092956) rotate(0 5.469993591308594 12.5)"><text x="5.469993591308594" y="17.52" font-family="Virgil, Segoe UI Emoji" font-size="20px" fill="#1e1e1e" text-anchor="middle" style="white-space: pre;" direction="ltr" dominant-baseline="alphabetic">e</text></g><g stroke-linecap="round" transform="translate(452 227) rotate(0 23.5 24.5)"><path d="M17.53 0.92 C22.07 -0.49, 28.98 0.27, 33.5 2.62 C38.02 4.97, 42.49 10.16, 44.67 15.01 C46.84 19.87, 47.86 26.8, 46.54 31.75 C45.21 36.7, 40.94 41.78, 36.72 44.72 C32.5 47.65, 26.18 49.83, 21.21 49.36 C16.23 48.88, 10.39 45.8, 6.87 41.87 C3.35 37.95, 0.54 31.18, 0.07 25.8 C-0.41 20.41, 0.98 13.75, 4.03 9.56 C7.09 5.38, 15.72 2.15, 18.41 0.67 C21.1 -0.81, 20.02 0.36, 20.19 0.68 M21.78 0.02 C26.5 -0.62, 32.67 2.13, 36.87 5.25 C41.08 8.36, 45.86 13.78, 47.01 18.71 C48.16 23.64, 46.02 30.01, 43.78 34.82 C41.54 39.64, 38.12 45.34, 33.55 47.6 C28.99 49.85, 21.31 49.94, 16.4 48.35 C11.49 46.76, 6.76 42.51, 4.09 38.06 C1.42 33.61, -0.07 26.88, 0.37 21.63 C0.81 16.39, 3.15 10.27, 6.72 6.57 C10.28 2.87, 19.12 0.43, 21.79 -0.55 C24.45 -1.53, 22.52 0.22, 22.69 0.69" stroke="#1e1e1e" stroke-width="2" fill="none"></path></g><g transform="translate(473.19299583010434 239.17588386092956) rotate(0 2.1899948120117188 12.5)"><text x="2.1899948120117188" y="17.52" font-family="Virgil, Segoe UI Emoji" font-size="20px" fill="#1e1e1e" text-anchor="middle" style="white-space: pre;" direction="ltr" dominant-baseline="alphabetic">i</text></g><g stroke-linecap="round" transform="translate(10 364) rotate(0 23.5 24.5)"><path d="M19.72 0.86 C24.43 -0.26, 31.3 0.79, 35.58 3.35 C39.86 5.91, 43.65 11.27, 45.41 16.23 C47.17 21.18, 47.73 28.17, 46.12 33.08 C44.51 37.98, 40.25 43.15, 35.76 45.67 C31.27 48.18, 24.3 49.1, 19.19 48.16 C14.08 47.21, 8.27 43.84, 5.09 39.99 C1.92 36.15, 0.13 30.24, 0.16 25.08 C0.2 19.92, 2.01 13.19, 5.28 9.04 C8.56 4.88, 17.24 1.47, 19.82 0.13 C22.39 -1.2, 20.67 0.61, 20.74 1.03 M18.61 -0.23 C23.06 -1.55, 29.43 1.07, 33.99 3.6 C38.54 6.14, 43.91 10.2, 45.95 14.99 C47.98 19.78, 47.86 27.26, 46.19 32.35 C44.52 37.44, 40.28 42.91, 35.93 45.54 C31.58 48.17, 25.08 48.97, 20.07 48.13 C15.05 47.3, 9.27 44.25, 5.83 40.53 C2.39 36.82, -0.48 30.95, -0.58 25.85 C-0.69 20.75, 2.02 14.15, 5.19 9.93 C8.37 5.7, 16.15 2.05, 18.47 0.49 C20.79 -1.06, 19.1 0.13, 19.1 0.59" stroke="#1e1e1e" stroke-width="2" fill="none"></path></g><g transform="translate(27.69299583010445 376.1758838609296) rotate(0 5.689994812011719 12.5)"><text x="5.689994812011719" y="17.52" font-family="Virgil, Segoe UI Emoji" font-size="20px" fill="#1e1e1e" text-anchor="middle" style="white-space: pre;" direction="ltr" dominant-baseline="alphabetic">d</text></g><g stroke-linecap="round" transform="translate(246 359) rotate(0 23.5 24.5)"><path d="M28.84 1.08 C33.6 1.95, 39.45 5.98, 42.48 10.01 C45.5 14.03, 47.35 20.15, 46.99 25.25 C46.63 30.34, 43.79 36.64, 40.32 40.59 C36.85 44.54, 31.03 48.22, 26.19 48.96 C21.36 49.7, 15.46 47.92, 11.31 45.01 C7.15 42.11, 2.87 36.57, 1.27 31.54 C-0.34 26.51, -0.29 19.67, 1.68 14.84 C3.64 10.01, 8.28 4.92, 13.07 2.56 C17.86 0.2, 27.22 0.67, 30.43 0.68 C33.64 0.7, 32.48 2.27, 32.35 2.65 M18.25 0.89 C22.79 -0.54, 30.23 0.54, 34.77 2.94 C39.32 5.34, 43.79 10.46, 45.53 15.3 C47.27 20.13, 46.87 27.07, 45.22 31.98 C43.56 36.88, 39.69 41.89, 35.61 44.71 C31.54 47.54, 25.6 49.59, 20.76 48.91 C15.92 48.23, 10.04 44.51, 6.58 40.62 C3.12 36.74, 0.32 30.93, -0.01 25.61 C-0.34 20.29, 1.44 12.93, 4.61 8.69 C7.77 4.44, 16.56 1.35, 18.99 0.14 C21.43 -1.08, 19.25 1.02, 19.23 1.41" stroke="#1e1e1e" stroke-width="2" fill="none"></path></g><g transform="translate(264.37299613528023 371.1758838609296) rotate(0 5.0099945068359375 12.5)"><text x="5.0099945068359375" y="17.52" font-family="Virgil, Segoe UI Emoji" font-size="20px" fill="#1e1e1e" text-anchor="middle" style="white-space: pre;" direction="ltr" dominant-baseline="alphabetic">g</text></g><g stroke-linecap="round"><g transform="translate(279.54836946813884 65.42939994257023) rotate(0 -21.83347711666329 25.549813647159198)"><path d="M0.33 -1.16 C-6.77 7.23, -35.95 42.4, -43.1 51.04 M-0.96 0.85 C-8.12 9.37, -36.78 44.05, -43.75 52.55" stroke="#1e1e1e" stroke-width="2" fill="none"></path></g></g><mask></mask><g stroke-linecap="round"><g transform="translate(197.78896579722937 162.05414973546317) rotate(0 -47.847832830134394 42.73787010070262)"><path d="M0.97 0.82 C-15.11 14.8, -80.15 70.67, -96.08 84.61 M0.02 0.2 C-16.29 14.25, -81.42 71.51, -97.23 85.7" stroke="#1e1e1e" stroke-width="2" fill="none"></path></g></g><mask></mask><g stroke-linecap="round"><g transform="translate(67.71718722987362 298.62951723118687) rotate(0 -13.007177856735666 32.053402575526974)"><path d="M0.78 1.16 C-3.34 11.82, -21.26 54.09, -25.55 64.47 M-0.28 0.72 C-4.43 10.97, -22.1 51.92, -26.26 62.54" stroke="#1e1e1e" stroke-width="2" fill="none"></path></g></g><mask></mask><g stroke-linecap="round"><g transform="translate(311.13722997735385 57.06764274895448) rotate(0 23.691645381911258 33.44702877446295)"><path d="M-0.18 0.79 C7.4 11.58, 38.52 54.89, 46.64 65.84 M-1.73 0.16 C6.13 11.58, 40.62 55.59, 48.96 66.83" stroke="#1e1e1e" stroke-width="2" fill="none"></path></g></g><mask></mask><g stroke-linecap="round"><g transform="translate(225.66148977594844 173.2031593269508) rotate(0 6.968130994679882 32.98248670815093)"><path d="M0.12 -1.13 C2.16 9.95, 11 54.12, 13.31 65.33 M-1.28 0.9 C1.06 12.22, 13.28 55.43, 15.7 66.54" stroke="#1e1e1e" stroke-width="2" fill="none"></path></g></g><mask></mask><g stroke-linecap="round"><g transform="translate(252.98856464888797 295.96526170265054) rotate(0 9.529569173475068 30.13039490662942)"><path d="M-0.17 -0.64 C2.89 9.34, 14.76 50.82, 18.04 60.88 M-1.72 1.64 C1.74 11.78, 16.77 49.23, 20.22 59.08" stroke="#1e1e1e" stroke-width="2" fill="none"></path></g></g><mask></mask><g stroke-linecap="round" transform="translate(158.49453554262186 363.39250983046395) rotate(0 23.5 24.5)"><path d="M25.94 0.3 C30.77 0.56, 36.68 3.89, 40.1 7.52 C43.52 11.16, 46.08 16.94, 46.47 22.09 C46.86 27.25, 45.33 34.12, 42.46 38.44 C39.59 42.76, 34.09 46.58, 29.23 48 C24.36 49.42, 17.71 49.12, 13.27 46.95 C8.82 44.78, 4.67 39.78, 2.58 35 C0.48 30.21, -0.59 23.36, 0.7 18.23 C1.98 13.1, 5.94 7.13, 10.28 4.22 C14.62 1.3, 23.71 1.22, 26.76 0.73 C29.82 0.24, 28.7 0.96, 28.62 1.29 M26.95 0.1 C31.49 0.74, 37.34 4.95, 40.76 9.06 C44.18 13.16, 47.35 19.67, 47.47 24.75 C47.58 29.84, 44.64 35.61, 41.46 39.56 C38.29 43.52, 33.39 47.42, 28.42 48.48 C23.44 49.53, 16.14 48.39, 11.6 45.89 C7.06 43.39, 2.9 38.47, 1.19 33.49 C-0.52 28.5, -0.33 21.09, 1.33 15.99 C2.99 10.9, 6.82 5.63, 11.16 2.91 C15.5 0.19, 24.79 0.15, 27.38 -0.31 C29.96 -0.77, 26.81 -0.33, 26.69 0.16" stroke="#1e1e1e" stroke-width="2" fill="none"></path></g><g transform="translate(177.017533203781 375.56839369139357) rotate(0 4.859992980957031 12.5)"><text x="4.859992980957031" y="17.52" font-family="Virgil, Segoe UI Emoji" font-size="20px" fill="#1e1e1e" text-anchor="middle" style="white-space: pre;" direction="ltr" dominant-baseline="alphabetic">f</text></g><g stroke-linecap="round"><g transform="translate(233.0941628369403 291.1968441701951) rotate(0 -18.581682652479458 32.9824867081509)"><path d="M-0.32 0.07 C-6.64 11.21, -32.12 55.09, -38.25 66.15 M1.72 -0.93 C-4.22 10.49, -29.51 56.9, -36.11 67.79" stroke="#1e1e1e" stroke-width="2" fill="none"></path></g></g><mask></mask><g stroke-linecap="round"><g transform="translate(404.0456432397509 163.91231800071108) rotate(0 26.478897779783097 30.659776376591026)"><path d="M-0.15 -0.35 C8.79 9.71, 44.91 50.42, 53.95 60.54 M-1.69 -1.59 C7.16 8.6, 44.26 51.21, 53.52 61.67" stroke="#1e1e1e" stroke-width="2" fill="none"></path></g></g><mask></mask></svg>
