<svg version="1.1" xmlns="http://www.w3.org/2000/svg" viewBox="0 0 576.638586972428 391.2138546438325" width="576.638586972428" height="391.2138546438325">
  <!-- svg-source:excalidraw -->

  <defs>
    <style class="style-fonts">
      @font-face {
        font-family: "Virgil";
        src: url("https://excalidraw.com/Virgil.woff2");
      }
      @font-face {
        font-family: "Cascadia";
        src: url("https://excalidraw.com/Cascadia.woff2");
      }
      @font-face {
        font-family: "Assistant";
        src: url("https://excalidraw.com/Assistant-Regular.woff2");
      }
    </style>

  </defs>
  <rect x="0" y="0" width="576.638586972428" height="391.2138546438325" fill="#ffffff"></rect><g stroke-linecap="round" transform="translate(10 277.3970149341096) rotate(0 26 26.5)"><path d="M37.89 1.87 C43.02 3.97, 48.22 10.3, 50.36 15.63 C52.5 20.96, 52.5 28.35, 50.73 33.85 C48.96 39.35, 44.35 45.48, 39.74 48.63 C35.14 51.78, 28.47 53.26, 23.09 52.75 C17.71 52.24, 11.47 49.59, 7.49 45.58 C3.5 41.58, -0.36 34.5, -0.8 28.74 C-1.25 22.98, 1.35 15.57, 4.83 11.05 C8.31 6.54, 14.38 2.84, 20.08 1.64 C25.77 0.44, 35.52 3.1, 38.99 3.85 C42.45 4.59, 41.13 5.88, 40.87 6.11 M26.69 0.44 C31.7 0.38, 38.29 3.85, 42.63 7.66 C46.97 11.47, 51.88 17.74, 52.72 23.28 C53.55 28.82, 50.47 35.95, 47.66 40.9 C44.86 45.84, 41.03 51.08, 35.88 52.95 C30.72 54.82, 22.28 54.23, 16.75 52.12 C11.22 50.01, 5.27 45.15, 2.68 40.29 C0.09 35.43, -0.02 28.49, 1.22 22.97 C2.46 17.46, 5.87 10.85, 10.14 7.2 C14.4 3.55, 24.23 1.95, 26.82 1.07 C29.41 0.19, 25.7 1.73, 25.66 1.94" stroke="#1e1e1e" stroke-width="2" fill="none"></path></g><g transform="translate(31.031890196870677 291.15868523266613) rotate(0 5.083333492279053 12.5)"><text x="5.083333492279053" y="17.52" font-family="Virgil, Segoe UI Emoji" font-size="20px" fill="#1e1e1e" text-anchor="middle" style="white-space: pre;" direction="ltr" dominant-baseline="alphabetic">b</text></g><g stroke-linecap="round" transform="translate(143 294.8970149341096) rotate(0 26 26.5)"><path d="M20.3 -0.13 C25.44 -1.58, 33.66 -0.14, 38.79 2.71 C43.92 5.56, 49.25 11.48, 51.07 16.96 C52.89 22.45, 51.7 30.18, 49.7 35.63 C47.69 41.08, 43.7 46.83, 39.02 49.68 C34.33 52.52, 27.08 53.52, 21.58 52.7 C16.09 51.87, 9.7 48.9, 6.03 44.73 C2.36 40.56, -0.24 33.45, -0.42 27.7 C-0.6 21.95, 0.55 14.83, 4.94 10.23 C9.33 5.64, 21.58 1.57, 25.94 0.13 C30.3 -1.31, 31.26 1.29, 31.11 1.6 M24.92 0.78 C30.51 0.49, 38.68 2.25, 43.13 5.74 C47.57 9.23, 50.53 15.94, 51.61 21.73 C52.7 27.53, 52.47 35.63, 49.65 40.52 C46.83 45.41, 40.01 49.49, 34.67 51.08 C29.34 52.68, 22.9 52.12, 17.64 50.07 C12.38 48.03, 5.83 43.69, 3.13 38.8 C0.44 33.9, 0.53 26.28, 1.46 20.73 C2.39 15.17, 4.78 9.04, 8.72 5.46 C12.65 1.87, 22.19 0.24, 25.09 -0.77 C27.98 -1.77, 26.06 -1.1, 26.09 -0.57" stroke="#1e1e1e" stroke-width="2" fill="none"></path></g><g transform="translate(164.09855679995906 308.65868523266613) rotate(0 5.016666889190674 12.5)"><text x="5.016666889190674" y="17.52" font-family="Virgil, Segoe UI Emoji" font-size="20px" fill="#1e1e1e" text-anchor="middle" style="white-space: pre;" direction="ltr" dominant-baseline="alphabetic">c</text></g><g stroke-linecap="round" transform="translate(369.2049237666225 328.2138546438325) rotate(0 26 26.5)"><path d="M31.1 -0.48 C36.56 -0.03, 43.32 4.76, 46.9 9.23 C50.48 13.7, 52.79 20.66, 52.58 26.35 C52.36 32.04, 49.27 39.05, 45.64 43.36 C42.01 47.68, 36.19 51.38, 30.78 52.24 C25.36 53.1, 18 51.31, 13.15 48.52 C8.3 45.73, 3.55 40.62, 1.66 35.51 C-0.22 30.4, -0.22 23.31, 1.84 17.86 C3.91 12.41, 9.06 5.64, 14.06 2.8 C19.06 -0.04, 28.68 1.08, 31.83 0.82 C34.99 0.56, 33.09 0.73, 32.99 1.25 M30.62 1.48 C36.09 2.04, 43.37 4.93, 46.89 9.18 C50.41 13.43, 52.14 21.33, 51.74 26.99 C51.33 32.66, 48.2 38.73, 44.47 43.19 C40.73 47.64, 34.8 52.75, 29.31 53.71 C23.83 54.67, 16.35 52.11, 11.58 48.94 C6.81 45.78, 2.47 39.94, 0.68 34.71 C-1.11 29.48, -1.05 22.88, 0.84 17.58 C2.72 12.27, 7.07 5.69, 11.99 2.88 C16.91 0.07, 27.37 1.14, 30.35 0.74 C33.33 0.34, 29.75 0.2, 29.86 0.48" stroke="#1e1e1e" stroke-width="2" fill="none"></path></g><g transform="translate(390.3118142495956 341.97552494238903) rotate(0 5.008333206176758 12.5)"><text x="5.008333206176758" y="17.52" font-family="Virgil, Segoe UI Emoji" font-size="20px" fill="#1e1e1e" text-anchor="middle" style="white-space: pre;" direction="ltr" dominant-baseline="alphabetic">g</text></g><g stroke-linecap="round" transform="translate(394.84455710420855 99) rotate(0 26 26.5)"><path d="M34.58 1.69 C39.67 3.28, 45.4 9.14, 48.16 14.17 C50.92 19.2, 52.19 26.38, 51.13 31.89 C50.07 37.4, 45.96 43.68, 41.78 47.21 C37.61 50.75, 31.38 53.11, 26.07 53.13 C20.75 53.14, 14.27 51.14, 9.89 47.31 C5.52 43.49, 0.85 36.05, -0.2 30.19 C-1.24 24.33, 0.77 17.04, 3.61 12.16 C6.45 7.28, 11.33 2.51, 16.83 0.89 C22.33 -0.73, 33.34 2.09, 36.63 2.44 C39.92 2.8, 36.84 2.55, 36.59 3.01 M34.13 -0.18 C39.27 0.96, 44.33 6.31, 47.46 11.1 C50.58 15.89, 53.6 22.88, 52.88 28.55 C52.17 34.22, 47.58 41.19, 43.17 45.14 C38.77 49.08, 31.91 51.98, 26.46 52.2 C21.01 52.42, 14.89 49.83, 10.48 46.47 C6.07 43.11, 1.23 37.51, 0.02 32.04 C-1.19 26.57, 0.64 18.52, 3.22 13.67 C5.8 8.81, 10.52 4.74, 15.51 2.9 C20.5 1.06, 30.11 3.05, 33.15 2.61 C36.2 2.17, 33.64 0.12, 33.8 0.28" stroke="#1e1e1e" stroke-width="2" fill="none"></path></g><g transform="translate(416.10144768254906 112.76167029855651) rotate(0 4.858333110809326 12.5)"><text x="4.858333110809326" y="17.52" font-family="Virgil, Segoe UI Emoji" font-size="20px" fill="#1e1e1e" text-anchor="middle" style="white-space: pre;" direction="ltr" dominant-baseline="alphabetic">f</text></g><g stroke-linecap="round" transform="translate(252.84455710420855 10) rotate(0 26 26.5)"><path d="M20.15 0.09 C25.12 -1.43, 32.61 0.26, 37.56 2.99 C42.52 5.72, 47.49 11.44, 49.85 16.47 C52.21 21.5, 53.36 27.86, 51.71 33.19 C50.06 38.51, 44.83 45.23, 39.97 48.41 C35.1 51.6, 28.05 52.81, 22.51 52.32 C16.97 51.83, 10.42 49.51, 6.74 45.49 C3.06 41.46, 0.72 33.94, 0.43 28.19 C0.13 22.43, 1.16 15.54, 4.95 10.98 C8.73 6.43, 19.78 2.63, 23.12 0.86 C26.47 -0.91, 25.02 0.18, 25.01 0.37 M20.96 -0.18 C26.19 -1.59, 34.02 0.11, 38.85 3.22 C43.68 6.33, 48.23 13.05, 49.93 18.46 C51.63 23.88, 51.03 30.44, 49.04 35.72 C47.06 41, 42.86 47.46, 38.02 50.17 C33.18 52.88, 25.29 53.29, 20.02 51.98 C14.76 50.67, 9.53 46.65, 6.43 42.3 C3.33 37.95, 1.63 31.27, 1.42 25.89 C1.21 20.5, 1.73 14.03, 5.19 9.99 C8.64 5.96, 19.41 3.02, 22.13 1.68 C24.84 0.34, 21.19 1.82, 21.47 1.95" stroke="#1e1e1e" stroke-width="2" fill="none"></path></g><g transform="translate(273.2681141902699 23.76167029855651) rotate(0 5.691666603088379 12.5)"><text x="5.691666603088379" y="17.52" font-family="Virgil, Segoe UI Emoji" font-size="20px" fill="#1e1e1e" text-anchor="middle" style="white-space: pre;" direction="ltr" dominant-baseline="alphabetic">d</text></g><g stroke-linecap="round" transform="translate(514.638586972428 259.326735883889) rotate(0 26 26.5)"><path d="M29.85 0.88 C34.99 1.04, 40.69 3.81, 44.37 7.69 C48.06 11.56, 51.62 18.45, 51.94 24.13 C52.27 29.8, 49.55 36.97, 46.31 41.72 C43.07 46.48, 37.88 51.23, 32.51 52.65 C27.14 54.06, 19.15 52.69, 14.08 50.2 C9.02 47.71, 4.18 42.95, 2.12 37.69 C0.06 32.43, 0.13 24.15, 1.7 18.64 C3.27 13.13, 6.84 7.68, 11.55 4.61 C16.26 1.53, 26.58 0.6, 29.97 0.19 C33.36 -0.22, 31.94 1.71, 31.86 2.14 M18.99 -0.05 C24 -1.8, 30.77 -0.38, 35.87 1.98 C40.98 4.34, 47.16 8.85, 49.64 14.13 C52.13 19.41, 52.27 27.81, 50.79 33.67 C49.31 39.53, 45.15 46.32, 40.77 49.29 C36.39 52.26, 29.76 52.15, 24.49 51.51 C19.22 50.88, 12.98 49.31, 9.16 45.47 C5.34 41.63, 2.16 33.91, 1.56 28.48 C0.96 23.04, 2.75 17.29, 5.55 12.88 C8.35 8.47, 16.29 3.98, 18.35 2.01 C20.41 0.04, 17.76 0.65, 17.91 1.06" stroke="#1e1e1e" stroke-width="2" fill="none"></path></g><g transform="translate(535.8121440584895 273.0884061824455) rotate(0 4.941666603088379 12.5)"><text x="4.941666603088379" y="17.52" font-family="Virgil, Segoe UI Emoji" font-size="20px" fill="#1e1e1e" text-anchor="middle" style="white-space: pre;" direction="ltr" dominant-baseline="alphabetic">h</text></g><g stroke-linecap="round" transform="translate(271.84455710420855 181) rotate(0 26 26.5)"><path d="M18.15 0.44 C23.16 -1.25, 30.84 0.49, 36.11 2.88 C41.39 5.27, 47.28 9.76, 49.8 14.79 C52.31 19.83, 52.54 27.43, 51.21 33.07 C49.89 38.71, 46.43 45.36, 41.85 48.64 C37.28 51.92, 29.41 53.44, 23.78 52.75 C18.15 52.06, 12.07 48.59, 8.08 44.52 C4.09 40.46, 0.31 34.02, -0.16 28.38 C-0.63 22.73, 0.9 15.48, 5.27 10.66 C9.63 5.83, 21.41 1.02, 26.03 -0.56 C30.64 -2.15, 32.91 0.75, 32.98 1.16 M20.04 0.09 C25.35 -1.49, 33.91 -0.23, 39.17 2.57 C44.42 5.37, 49.88 11.33, 51.56 16.9 C53.24 22.46, 51.27 30.37, 49.26 35.96 C47.26 41.55, 44.17 47.46, 39.52 50.45 C34.87 53.43, 26.67 55, 21.37 53.88 C16.07 52.77, 11.12 48.34, 7.72 43.75 C4.32 39.15, 1.41 31.97, 0.97 26.33 C0.53 20.68, 1.64 13.93, 5.08 9.86 C8.52 5.79, 18.8 3.29, 21.58 1.89 C24.37 0.48, 21.87 1.11, 21.79 1.43" stroke="#1e1e1e" stroke-width="2" fill="none"></path></g><g transform="translate(292.49311409490247 194.7616702985565) rotate(0 5.4666666984558105 12.5)"><text x="5.4666666984558105" y="17.52" font-family="Virgil, Segoe UI Emoji" font-size="20px" fill="#1e1e1e" text-anchor="middle" style="white-space: pre;" direction="ltr" dominant-baseline="alphabetic">e</text></g><g stroke-linecap="round" transform="translate(99 131.89701493410962) rotate(0 26 26.5)"><path d="M17.94 1.25 C22.8 -0.64, 30.66 0.59, 35.94 2.72 C41.23 4.85, 47.12 9.05, 49.67 14.01 C52.21 18.97, 52.67 26.95, 51.21 32.49 C49.75 38.02, 45.42 43.7, 40.91 47.23 C36.4 50.77, 29.7 53.95, 24.14 53.7 C18.58 53.46, 11.63 49.78, 7.55 45.74 C3.47 41.7, 0.32 35.01, -0.34 29.46 C-1.01 23.91, 0.33 17.28, 3.56 12.43 C6.78 7.58, 16.06 2.25, 19.01 0.37 C21.96 -1.51, 21.1 0.72, 21.25 1.16 M33.51 -0.36 C38.97 0.57, 45.49 6.83, 48.78 11.64 C52.07 16.45, 53.86 22.66, 53.25 28.52 C52.64 34.37, 49.45 42.55, 45.12 46.78 C40.79 51.01, 33.2 53.81, 27.28 53.9 C21.37 54, 14.09 50.73, 9.63 47.35 C5.17 43.98, 1.45 38.92, 0.51 33.65 C-0.42 28.38, 1.46 20.99, 4.02 15.73 C6.59 10.48, 10.91 4.67, 15.9 2.12 C20.89 -0.44, 31.2 0.46, 33.95 0.41 C36.71 0.36, 32.74 1.28, 32.43 1.84" stroke="#1e1e1e" stroke-width="2" fill="none"></path></g><g transform="translate(118.44855718142878 145.65868523266613) rotate(0 6.666666507720947 12.5)"><text x="6.666666507720947" y="17.52" font-family="Virgil, Segoe UI Emoji" font-size="20px" fill="#1e1e1e" text-anchor="middle" style="white-space: pre;" direction="ltr" dominant-baseline="alphabetic">a</text></g><g stroke-linecap="round"><g transform="translate(101 175.39701493410962) rotate(0 -27.5 48.5)"><path d="M-1.12 -0.82 C-10.41 15.07, -46.16 79.78, -55.09 95.9 M0.5 1.36 C-9.02 17.31, -46.78 80.98, -56.08 96.86" stroke="#1e1e1e" stroke-width="2" fill="none"></path></g><g transform="translate(101 175.39701493410962) rotate(0 -27.5 48.5)"><path d="M-51.51 72.28 C-54.4 80.87, -56.49 90.33, -56.08 96.86 M-51.51 72.28 C-51.57 76.52, -54.15 82.42, -56.08 96.86" stroke="#1e1e1e" stroke-width="2" fill="none"></path></g><g transform="translate(101 175.39701493410962) rotate(0 -27.5 48.5)"><path d="M-36.78 80.97 C-44.97 86.32, -52.32 92.68, -56.08 96.86 M-36.78 80.97 C-39.93 83.29, -45.59 87.38, -56.08 96.86" stroke="#1e1e1e" stroke-width="2" fill="none"></path></g></g><mask></mask><g stroke-linecap="round"><g transform="translate(136 191.39701493410962) rotate(0 12.5 51)"><path d="M-0.5 -0.47 C3.52 16.61, 20.86 85.86, 25 103.12 M1.44 -1.76 C5.23 14.95, 20.42 84.4, 24.06 101.59" stroke="#1e1e1e" stroke-width="2" fill="none"></path></g><g transform="translate(136 191.39701493410962) rotate(0 12.5 51)"><path d="M10.74 80.43 C15.05 88.38, 22.67 95.21, 24.06 101.59 M10.74 80.43 C15.24 88.67, 22.18 96.27, 24.06 101.59" stroke="#1e1e1e" stroke-width="2" fill="none"></path></g><g transform="translate(136 191.39701493410962) rotate(0 12.5 51)"><path d="M27.46 76.82 C25.56 86.05, 26.94 94.23, 24.06 101.59 M27.46 76.82 C25.39 86.58, 25.74 95.6, 24.06 101.59" stroke="#1e1e1e" stroke-width="2" fill="none"></path></g></g><mask></mask><g stroke-linecap="round"><g transform="translate(280.0011552744935 69.800206345285) rotate(0 4.258910610159774 54.14900632917329)"><path d="M-0.41 -0.36 C1.14 17.73, 8.02 90.23, 9.52 108.16 M1.57 -1.59 C3.03 16.72, 8.06 91.36, 9.09 109.63" stroke="#1e1e1e" stroke-width="2" fill="none"></path></g><g transform="translate(280.0011552744935 69.800206345285) rotate(0 4.258910610159774 54.14900632917329)"><path d="M-0.92 86.72 C1.61 95.73, 5.18 101.41, 9.09 109.63 M-0.92 86.72 C1.3 90.65, 3.89 95.67, 9.09 109.63" stroke="#1e1e1e" stroke-width="2" fill="none"></path></g><g transform="translate(280.0011552744935 69.800206345285) rotate(0 4.258910610159774 54.14900632917329)"><path d="M16.15 85.65 C13.23 94.94, 11.35 100.97, 9.09 109.63 M16.15 85.65 C14.73 89.73, 13.69 94.98, 9.09 109.63" stroke="#1e1e1e" stroke-width="2" fill="none"></path></g></g><mask></mask><g stroke-linecap="round"><g transform="translate(328.6744193906044 182.96554541524267) rotate(0 34.071284881277506 -20.077721447895726)"><path d="M-0.5 -0.12 C10.83 -6.67, 56.41 -33.01, 67.65 -39.52 M1.44 -1.23 C12.6 -8.1, 55.14 -34.67, 66.44 -41.31" stroke="#1e1e1e" stroke-width="2" fill="none"></path></g><g transform="translate(328.6744193906044 182.96554541524267) rotate(0 34.071284881277506 -20.077721447895726)"><path d="M50.81 -21.8 C54.94 -27.91, 60.5 -34.42, 66.44 -41.31 M50.81 -21.8 C55.99 -29.88, 63.3 -35.49, 66.44 -41.31" stroke="#1e1e1e" stroke-width="2" fill="none"></path></g><g transform="translate(328.6744193906044 182.96554541524267) rotate(0 34.071284881277506 -20.077721447895726)"><path d="M41.93 -36.41 C48.46 -38.48, 56.46 -40.97, 66.44 -41.31 M41.93 -36.41 C50.45 -38.87, 61.12 -38.94, 66.44 -41.31" stroke="#1e1e1e" stroke-width="2" fill="none"></path></g></g><mask></mask><g stroke-linecap="round"><g transform="translate(393.1664943444513 101.43782802075702) rotate(0 -41.980690300145625 -26.77029526386093)"><path d="M0.61 -0.95 C-13.41 -9.59, -69.53 -44.25, -83.53 -52.97 M-0.52 1.16 C-14.72 -7.73, -70.36 -45.97, -84.25 -54.8" stroke="#1e1e1e" stroke-width="2" fill="none"></path></g><g transform="translate(393.1664943444513 101.43782802075702) rotate(0 -41.980690300145625 -26.77029526386093)"><path d="M-59.95 -48.92 C-70.03 -50.15, -76.03 -52.03, -84.25 -54.8 M-59.95 -48.92 C-68.32 -50.96, -75.93 -52.26, -84.25 -54.8" stroke="#1e1e1e" stroke-width="2" fill="none"></path></g><g transform="translate(393.1664943444513 101.43782802075702) rotate(0 -41.980690300145625 -26.77029526386093)"><path d="M-69.42 -34.68 C-76.03 -40.96, -78.71 -47.84, -84.25 -54.8 M-69.42 -34.68 C-74.67 -41.33, -79.24 -47.22, -84.25 -54.8" stroke="#1e1e1e" stroke-width="2" fill="none"></path></g></g><mask></mask><g stroke-linecap="round"><g transform="translate(321.37333991753735 226.77134409779273) rotate(0 32.246095924087115 49.89018614670067)"><path d="M0.22 0.52 C10.92 17.24, 52.79 83.18, 63.34 99.73 M-1.13 -0.25 C10 16.73, 54.27 84.34, 65.44 101.24" stroke="#1e1e1e" stroke-width="2" fill="none"></path></g><g transform="translate(321.37333991753735 226.77134409779273) rotate(0 32.246095924087115 49.89018614670067)"><path d="M45.39 86.31 C50.71 87.71, 54.28 91.36, 65.44 101.24 M45.39 86.31 C51.81 91.25, 57.36 95.98, 65.44 101.24" stroke="#1e1e1e" stroke-width="2" fill="none"></path></g><g transform="translate(321.37333991753735 226.77134409779273) rotate(0 32.246095924087115 49.89018614670067)"><path d="M59.68 76.92 C61.73 80.46, 62.08 86.23, 65.44 101.24 M59.68 76.92 C61.75 84.81, 62.96 92.39, 65.44 101.24" stroke="#1e1e1e" stroke-width="2" fill="none"></path></g></g><mask></mask><g stroke-linecap="round"><g transform="translate(272.70016565707704 187.83287182685376) rotate(0 -12.168316029027778 -62.666827549492666)"><path d="M-0.23 0.12 C-4.3 -9.68, -23.32 -37.77, -24.63 -58.64 C-25.94 -79.52, -10.97 -114.21, -8.09 -125.14 M-1.81 -0.86 C-6.04 -11, -24.59 -39.78, -25.73 -60.25 C-26.87 -80.73, -11.23 -112.73, -8.64 -123.71" stroke="#1e1e1e" stroke-width="2" fill="none"></path></g><g transform="translate(272.70016565707704 187.83287182685376) rotate(0 -12.168316029027778 -62.666827549492666)"><path d="M-8.19 -98.72 C-8.15 -106.23, -6.84 -112.06, -8.64 -123.71 M-8.19 -98.72 C-8.62 -107.07, -7.73 -113.85, -8.64 -123.71" stroke="#1e1e1e" stroke-width="2" fill="none"></path></g><g transform="translate(272.70016565707704 187.83287182685376) rotate(0 -12.168316029027778 -62.666827549492666)"><path d="M-24.37 -104.28 C-19.77 -110.2, -13.92 -114.47, -8.64 -123.71 M-24.37 -104.28 C-19.62 -111.03, -13.61 -116.05, -8.64 -123.71" stroke="#1e1e1e" stroke-width="2" fill="none"></path></g></g><mask></mask><g stroke-linecap="round"><g transform="translate(411.4189683879928 325.3348429548669) rotate(0 7.300989617416576 -85.178212203194)"><path d="M0.95 -0.68 C3.4 -29.24, 12.35 -143.07, 14.77 -171.38 M-0.01 1.58 C2.28 -26.86, 11.38 -141.89, 13.9 -170.38" stroke="#1e1e1e" stroke-width="2" fill="none"></path></g><g transform="translate(411.4189683879928 325.3348429548669) rotate(0 7.300989617416576 -85.178212203194)"><path d="M20.48 -146.26 C17.32 -153.4, 14.71 -159.68, 13.9 -170.38 M20.48 -146.26 C18.09 -153.25, 15.54 -159.51, 13.9 -170.38" stroke="#1e1e1e" stroke-width="2" fill="none"></path></g><g transform="translate(411.4189683879928 325.3348429548669) rotate(0 7.300989617416576 -85.178212203194)"><path d="M3.44 -147.68 C5.55 -154.51, 8.21 -160.36, 13.9 -170.38 M3.44 -147.68 C5.88 -154.32, 8.13 -160.18, 13.9 -170.38" stroke="#1e1e1e" stroke-width="2" fill="none"></path></g></g><mask></mask><g stroke-linecap="round"><g transform="translate(428.4546108286314 346.02098020421386) rotate(0 44.41435350595111 -19.469305646444354)"><path d="M-0.43 -0.29 C14.21 -6.88, 73.35 -33.19, 88.19 -39.7 M1.54 -1.48 C16.55 -7.93, 76.21 -32.43, 90.56 -38.57" stroke="#1e1e1e" stroke-width="2" fill="none"></path></g><g transform="translate(428.4546108286314 346.02098020421386) rotate(0 44.41435350595111 -19.469305646444354)"><path d="M72.19 -21.62 C77.73 -28.16, 82.94 -33.08, 90.56 -38.57 M72.19 -21.62 C76.84 -25.1, 82.44 -29.7, 90.56 -38.57" stroke="#1e1e1e" stroke-width="2" fill="none"></path></g><g transform="translate(428.4546108286314 346.02098020421386) rotate(0 44.41435350595111 -19.469305646444354)"><path d="M65.59 -37.4 C73.28 -38.76, 80.64 -38.52, 90.56 -38.57 M65.59 -37.4 C72.06 -36.69, 79.39 -37.15, 90.56 -38.57" stroke="#1e1e1e" stroke-width="2" fill="none"></path></g></g><mask></mask><g stroke-linecap="round"><g transform="translate(523.3674758550475 258.4091047952145) rotate(0 -38.938611292888595 -54.14900632917329)"><path d="M0.23 0.38 C-12.43 -17.38, -63.76 -89.23, -76.84 -107.43 M-1.11 -0.47 C-13.77 -18.48, -64.23 -91.2, -77.24 -109.09" stroke="#1e1e1e" stroke-width="2" fill="none"></path></g><g transform="translate(523.3674758550475 258.4091047952145) rotate(0 -38.938611292888595 -54.14900632917329)"><path d="M-56.68 -94.86 C-60.66 -96.35, -64.55 -101.88, -77.24 -109.09 M-56.68 -94.86 C-61.59 -98.64, -67.74 -102.98, -77.24 -109.09" stroke="#1e1e1e" stroke-width="2" fill="none"></path></g><g transform="translate(523.3674758550475 258.4091047952145) rotate(0 -38.938611292888595 -54.14900632917329)"><path d="M-70.64 -84.98 C-71.35 -88.76, -72.03 -96.56, -77.24 -109.09 M-70.64 -84.98 C-71.89 -91.4, -74.46 -98.27, -77.24 -109.09" stroke="#1e1e1e" stroke-width="2" fill="none"></path></g></g><mask></mask><g stroke-linecap="round"><g transform="translate(365.1793674776874 341.1536537926029) rotate(0 -32.246037476923334 -52.323758924819174)"><path d="M0.53 -0.92 C-10.19 -18.39, -52.96 -88.36, -63.79 -105.84 M-0.65 1.22 C-11.51 -16.06, -53.61 -87.21, -64.37 -104.93" stroke="#1e1e1e" stroke-width="2" fill="none"></path></g><g transform="translate(365.1793674776874 341.1536537926029) rotate(0 -32.246037476923334 -52.323758924819174)"><path d="M-44.97 -89.17 C-52.99 -93.3, -60.07 -99.82, -64.37 -104.93 M-44.97 -89.17 C-48.51 -91.96, -53.52 -96.47, -64.37 -104.93" stroke="#1e1e1e" stroke-width="2" fill="none"></path></g><g transform="translate(365.1793674776874 341.1536537926029) rotate(0 -32.246037476923334 -52.323758924819174)"><path d="M-59.64 -80.39 C-62.57 -87.58, -64.65 -97.09, -64.37 -104.93 M-59.64 -80.39 C-60.13 -84.99, -62.15 -91.29, -64.37 -104.93" stroke="#1e1e1e" stroke-width="2" fill="none"></path></g></g><mask></mask></svg>
