<svg version="1.1" xmlns="http://www.w3.org/2000/svg" viewBox="0 0 554 485" width="554" height="485">
  <!-- svg-source:excalidraw -->

  <defs>
    <style class="style-fonts">
      @font-face {
        font-family: "Virgil";
        src: url("https://excalidraw.com/Virgil.woff2");
      }
      @font-face {
        font-family: "Cascadia";
        src: url("https://excalidraw.com/Cascadia.woff2");
      }
      @font-face {
        font-family: "Assistant";
        src: url("https://excalidraw.com/Assistant-Regular.woff2");
      }
    </style>

  </defs>
  <rect x="0" y="0" width="554" height="485" fill="#ffffff"></rect><g stroke-linecap="round" transform="translate(242.5 10) rotate(0 31.5 30)"><path d="M17.02 3.87 C22.64 0.58, 32.33 -1.05, 39.06 0.1 C45.79 1.26, 53.34 5.58, 57.42 10.8 C61.49 16.01, 63.92 24.75, 63.52 31.4 C63.11 38.04, 59.62 46.1, 54.99 50.67 C50.36 55.24, 42.6 58.18, 35.73 58.82 C28.85 59.46, 19.43 57.85, 13.76 54.5 C8.09 51.14, 3.7 44.67, 1.72 38.71 C-0.27 32.74, -1.41 24.69, 1.87 18.7 C5.15 12.7, 17.58 5.76, 21.41 2.75 C25.23 -0.27, 24.7 0.29, 24.81 0.62 M43.55 1.58 C49.64 3.27, 56.29 9.04, 59.29 14.73 C62.28 20.42, 62.9 29.04, 61.54 35.72 C60.18 42.41, 56.12 50.96, 51.13 54.86 C46.13 58.76, 38.27 59.6, 31.55 59.11 C24.83 58.63, 16.12 56.26, 10.81 51.96 C5.5 47.65, 0.55 39.66, -0.32 33.29 C-1.19 26.92, 2.01 19.08, 5.59 13.73 C9.16 8.39, 14.68 2.92, 21.14 1.22 C27.59 -0.49, 40.91 3.23, 44.32 3.52 C47.72 3.82, 41.93 2.96, 41.56 2.96" stroke="#1e1e1e" stroke-width="2" fill="none"></path></g><g transform="translate(267.4161464634245 27.286796564403573) rotate(0 6.809989929199219 12.5)"><text x="6.809989929199219" y="17.52" font-family="Virgil, Segoe UI Emoji" font-size="20px" fill="#1e1e1e" text-anchor="middle" style="white-space: pre;" direction="ltr" dominant-baseline="alphabetic">3</text></g><g stroke-linecap="round" transform="translate(143 135) rotate(0 31.5 30)"><path d="M41.46 1.53 C47.88 3, 55.1 8.33, 58.49 13.66 C61.87 18.99, 62.81 27.09, 61.76 33.5 C60.71 39.9, 57.05 47.59, 52.2 52.08 C47.34 56.58, 39.25 60.09, 32.61 60.49 C25.97 60.88, 17.65 58.56, 12.34 54.43 C7.03 50.3, 2.22 42.2, 0.76 35.7 C-0.7 29.19, 0.34 21.04, 3.58 15.4 C6.83 9.76, 13.64 4.19, 20.23 1.88 C26.83 -0.44, 39.19 1.22, 43.17 1.51 C47.14 1.79, 44.36 3.03, 44.08 3.6 M24.75 1.28 C31.11 -0.43, 40.45 1.42, 46.34 4.1 C52.23 6.77, 57.76 11.76, 60.09 17.33 C62.41 22.91, 62.45 31.18, 60.3 37.53 C58.16 43.89, 52.82 51.9, 47.22 55.46 C41.62 59.02, 33.17 59.65, 26.69 58.9 C20.2 58.15, 12.7 55.55, 8.3 50.94 C3.89 46.34, 0.61 37.78, 0.26 31.27 C-0.09 24.76, 1.94 16.73, 6.21 11.87 C10.48 7.01, 22.87 3.72, 25.86 2.12 C28.85 0.52, 24.03 2.02, 24.15 2.27" stroke="#1e1e1e" stroke-width="2" fill="none"></path></g><g transform="translate(167.60614127543624 152.28679656440357) rotate(0 7.1199951171875 12.5)"><text x="7.1199951171875" y="17.52" font-family="Virgil, Segoe UI Emoji" font-size="20px" fill="#1e1e1e" text-anchor="middle" style="white-space: pre;" direction="ltr" dominant-baseline="alphabetic">2</text></g><g stroke-linecap="round" transform="translate(10 294) rotate(0 31.5 30)"><path d="M28.11 0.26 C34.2 -0.9, 42.26 1.17, 47.71 4.77 C53.16 8.36, 58.75 15.67, 60.83 21.84 C62.9 28.02, 62.73 36.11, 60.16 41.84 C57.6 47.57, 51.32 53.38, 45.44 56.24 C39.56 59.11, 31.34 60.43, 24.86 59.02 C18.38 57.6, 10.77 52.74, 6.55 47.75 C2.33 42.76, -0.77 35.35, -0.45 29.06 C-0.14 22.77, 3.2 14.79, 8.46 10.03 C13.71 5.27, 26.86 2.18, 31.09 0.51 C35.32 -1.16, 33.98 -0.28, 33.81 -0.02 M17.42 2.71 C23.14 -0.02, 33.71 -0.38, 40.35 1.27 C46.98 2.93, 53.46 7.19, 57.22 12.64 C60.98 18.09, 63.27 27.65, 62.92 34 C62.56 40.34, 59.72 46.18, 55.08 50.72 C50.45 55.26, 42.05 60.51, 35.09 61.23 C28.13 61.94, 18.89 58.88, 13.31 55.01 C7.72 51.14, 3.14 44.27, 1.58 38.01 C0.02 31.74, 0.92 23.17, 3.94 17.43 C6.96 11.68, 17.36 6.03, 19.68 3.53 C22 1.03, 17.7 2.07, 17.86 2.41" stroke="#1e1e1e" stroke-width="2" fill="none"></path></g><g transform="translate(39.01613730815109 311.2867965644036) rotate(0 2.7099990844726562 12.5)"><text x="2.7099990844726562" y="17.52" font-family="Virgil, Segoe UI Emoji" font-size="20px" fill="#1e1e1e" text-anchor="middle" style="white-space: pre;" direction="ltr" dominant-baseline="alphabetic">1</text></g><g stroke-linecap="round" transform="translate(356 133) rotate(0 31.5 30)"><path d="M23.09 1.13 C29.17 -0.95, 38.12 -0.4, 44.36 2.32 C50.59 5.03, 57.51 11.48, 60.5 17.43 C63.49 23.38, 64.03 31.88, 62.29 38.02 C60.55 44.16, 55.79 50.75, 50.08 54.25 C44.37 57.76, 35 59.69, 28.04 59.04 C21.08 58.39, 12.94 54.85, 8.31 50.35 C3.68 45.86, 0.8 38.35, 0.27 32.08 C-0.27 25.82, 0.48 18.05, 5.12 12.76 C9.76 7.48, 23.62 2.42, 28.11 0.37 C32.6 -1.69, 32.06 -0.16, 32.06 0.45 M46.84 3.09 C52.94 5.39, 58.32 12.46, 60.85 18.52 C63.39 24.57, 64.01 33.1, 62.05 39.41 C60.1 45.72, 54.68 53.11, 49.13 56.39 C43.57 59.68, 35.64 59.91, 28.75 59.13 C21.86 58.35, 12.55 56.41, 7.78 51.73 C3.02 47.05, 0.52 37.76, 0.16 31.06 C-0.2 24.35, 1.43 16.48, 5.64 11.48 C9.85 6.48, 18.62 2.48, 25.42 1.06 C32.22 -0.36, 43.24 2.65, 46.45 2.96 C49.66 3.28, 45.28 2.51, 44.68 2.95" stroke="#1e1e1e" stroke-width="2" fill="none"></path></g><g transform="translate(381.5461437168426 150.28679656440357) rotate(0 6.17999267578125 12.5)"><text x="6.17999267578125" y="17.52" font-family="Virgil, Segoe UI Emoji" font-size="20px" fill="#1e1e1e" text-anchor="middle" style="white-space: pre;" direction="ltr" dominant-baseline="alphabetic">5</text></g><g stroke-linecap="round" transform="translate(296 283) rotate(0 31.5 30)"><path d="M38.49 0.02 C44.71 1.31, 52.27 7.4, 56.25 12.69 C60.23 17.97, 62.75 25.29, 62.37 31.74 C61.98 38.19, 58.57 46.72, 53.96 51.39 C49.36 56.06, 41.45 59.2, 34.72 59.76 C27.98 60.33, 18.99 58.24, 13.54 54.78 C8.09 51.32, 3.87 45.07, 2.02 38.98 C0.17 32.89, -0.35 24.24, 2.44 18.23 C5.24 12.22, 11.64 5.41, 18.79 2.91 C25.93 0.42, 40.12 2.58, 45.33 3.25 C50.53 3.92, 50.27 6.4, 50.02 6.95 M40.44 1.05 C46.73 2.28, 52.7 6.64, 56.32 12.08 C59.95 17.52, 62.54 27.05, 62.19 33.7 C61.83 40.35, 58.82 47.71, 54.18 51.98 C49.54 56.25, 41.22 59.07, 34.34 59.32 C27.47 59.57, 18.5 56.87, 12.93 53.48 C7.36 50.09, 2.46 44.9, 0.91 39 C-0.63 33.1, 0.81 23.84, 3.66 18.07 C6.5 12.3, 11.96 7.12, 17.98 4.36 C24 1.6, 36.08 2.17, 39.78 1.51 C43.48 0.84, 40.18 0.07, 40.17 0.37" stroke="#1e1e1e" stroke-width="2" fill="none"></path></g><g transform="translate(321.32614249613937 300.2867965644036) rotate(0 6.399993896484375 12.5)"><text x="6.399993896484375" y="17.52" font-family="Virgil, Segoe UI Emoji" font-size="20px" fill="#1e1e1e" text-anchor="middle" style="white-space: pre;" direction="ltr" dominant-baseline="alphabetic">4</text></g><g stroke-linecap="round" transform="translate(481 285) rotate(0 31.5 30)"><path d="M33.88 0.94 C40.48 0.98, 49.48 3.66, 54.41 8.15 C59.35 12.64, 62.96 21.39, 63.47 27.9 C63.99 34.41, 61.35 42.02, 57.5 47.22 C53.65 52.42, 46.78 57.39, 40.39 59.1 C34 60.81, 25.23 60.07, 19.18 57.48 C13.12 54.88, 7.17 49.44, 4.06 43.53 C0.95 37.61, -1.11 28.3, 0.52 22 C2.14 15.69, 7.42 9.27, 13.8 5.71 C20.19 2.14, 33.81 0.87, 38.84 0.62 C43.86 0.36, 43.95 3.54, 43.94 4.18 M28.53 -0.18 C35.17 -0.65, 45.69 2.91, 51.39 6.81 C57.08 10.71, 61.09 17.02, 62.7 23.21 C64.31 29.4, 64.09 38.05, 61.05 43.93 C58 49.82, 51.07 55.86, 44.43 58.52 C37.79 61.17, 27.84 61.77, 21.2 59.86 C14.55 57.95, 7.86 52.55, 4.56 47.04 C1.26 41.54, 0.59 33.38, 1.41 26.85 C2.23 20.31, 4.58 12.26, 9.48 7.82 C14.38 3.37, 27.35 1.44, 30.81 0.17 C34.27 -1.11, 30.21 -0.18, 30.22 0.17" stroke="#1e1e1e" stroke-width="2" fill="none"></path></g><g transform="translate(507.3461391392059 302.2867965644036) rotate(0 5.379997253417969 12.5)"><text x="5.379997253417969" y="17.52" font-family="Virgil, Segoe UI Emoji" font-size="20px" fill="#1e1e1e" text-anchor="middle" style="white-space: pre;" direction="ltr" dominant-baseline="alphabetic">7</text></g><g stroke-linecap="round" transform="translate(417 415) rotate(0 31.5 30)"><path d="M37.17 1.4 C43.6 1.92, 51.98 5.42, 56.18 10.31 C60.39 15.21, 62.49 24.35, 62.4 30.76 C62.31 37.17, 59.95 44.06, 55.65 48.78 C51.34 53.5, 43.07 57.86, 36.56 59.08 C30.05 60.3, 22.25 59.26, 16.57 56.09 C10.9 52.93, 5.01 46.24, 2.51 40.09 C0 33.94, -0.52 25.24, 1.56 19.2 C3.64 13.16, 8.09 6.64, 14.99 3.83 C21.88 1.02, 37.55 2.24, 42.92 2.35 C48.29 2.46, 47.33 4.09, 47.2 4.51 M38.39 -0.06 C44.72 1.07, 52.28 7.13, 56.45 12.1 C60.62 17.08, 63.64 23.39, 63.42 29.79 C63.21 36.19, 59.59 45.49, 55.15 50.53 C50.72 55.56, 43.5 58.96, 36.81 60.01 C30.13 61.05, 21 60.04, 15.04 56.79 C9.08 53.54, 3.09 46.72, 1.07 40.49 C-0.95 34.27, 0.66 25.32, 2.9 19.44 C5.13 13.56, 8.87 8.19, 14.5 5.22 C20.14 2.25, 33.16 2.25, 36.7 1.62 C40.24 0.99, 35.89 0.96, 35.75 1.43" stroke="#1e1e1e" stroke-width="2" fill="none"></path></g><g transform="translate(442.3261424961395 432.2867965644036) rotate(0 6.399993896484375 12.5)"><text x="6.399993896484375" y="17.52" font-family="Virgil, Segoe UI Emoji" font-size="20px" fill="#1e1e1e" text-anchor="middle" style="white-space: pre;" direction="ltr" dominant-baseline="alphabetic">6</text></g><g stroke-linecap="round"><g transform="translate(62.49965703140356 299.0004178697841) rotate(0 43.93677416366529 -53.05148775075537)"><path d="M-0.72 0.83 C13.83 -16.87, 73.25 -88.85, 87.95 -106.77 M1.1 0.23 C15.45 -17.28, 72.81 -87.93, 87.04 -105.58" stroke="#1e1e1e" stroke-width="2" fill="none"></path></g></g><mask></mask><g stroke-linecap="round"><g transform="translate(199.2995906979943 133.853466304798) rotate(0 26.66747629546353 -31.883278066236926)"><path d="M-0.7 -1.16 C8.21 -11.84, 43.87 -53.88, 52.99 -64.42 M1.13 0.85 C9.89 -9.65, 43.12 -52.52, 51.86 -63.23" stroke="#1e1e1e" stroke-width="2" fill="none"></path></g></g><mask></mask><g stroke-linecap="round"><g transform="translate(301.3947667484026 66.10003538862509) rotate(0 33.03555096696766 33.461143342129816)"><path d="M-0.57 -0.6 C10.23 10.77, 54.26 56.37, 65.32 67.49 M1.33 1.7 C12.47 12.78, 57.04 54.77, 67.64 65.67" stroke="#1e1e1e" stroke-width="2" fill="none"></path></g></g><mask></mask><g stroke-linecap="round"><g transform="translate(376.52454181499934 195.00737237032527) rotate(0 -16.008585911547357 39.498520513533364)"><path d="M0.35 -0.52 C-4.94 12.6, -25.91 65.67, -31.37 78.89 M-0.92 1.82 C-6.36 15.12, -26.57 67.34, -31.97 80.37" stroke="#1e1e1e" stroke-width="2" fill="none"></path></g></g><mask></mask><g stroke-linecap="round"><g transform="translate(418.48315471053274 185.01933128677481) rotate(0 38.006118992102074 48.49214456248778)"><path d="M-0.15 -0.99 C12.62 14.99, 63.14 80.42, 75.81 96.62 M-1.68 1.11 C10.98 17.19, 61.96 81.97, 74.75 97.96" stroke="#1e1e1e" stroke-width="2" fill="none"></path></g></g><mask></mask><g stroke-linecap="round"><g transform="translate(492.5837553820779 349.0438506420189) rotate(0 -12.67936350648074 28.41694868808736)"><path d="M-0.76 -0.32 C-4.82 9.42, -20.06 48.59, -24.18 57.95 M1.04 -1.54 C-3.09 7.95, -19.95 46.72, -24.51 56.42" stroke="#1e1e1e" stroke-width="2" fill="none"></path></g></g><mask></mask></svg>
