<svg version="1.1" xmlns="http://www.w3.org/2000/svg" viewBox="0 0 550 387" width="550" height="387">
  <!-- svg-source:excalidraw -->

  <defs>
    <style class="style-fonts">
      @font-face {
        font-family: "Virgil";
        src: url("https://excalidraw.com/Virgil.woff2");
      }
      @font-face {
        font-family: "Cascadia";
        src: url("https://excalidraw.com/Cascadia.woff2");
      }
      @font-face {
        font-family: "Assistant";
        src: url("https://excalidraw.com/Assistant-Regular.woff2");
      }
    </style>

  </defs>
  <rect x="0" y="0" width="550" height="387" fill="#ffffff"></rect><g stroke-linecap="round" transform="translate(366 10) rotate(0 29 27)"><path d="M16.74 3.22 C21.92 0.43, 30.56 -1.16, 36.39 0.23 C42.23 1.62, 48.21 7.02, 51.75 11.56 C55.28 16.1, 57.82 21.86, 57.59 27.48 C57.37 33.11, 54.66 41, 50.4 45.29 C46.13 49.58, 38.17 52.55, 31.98 53.21 C25.79 53.87, 18.47 52.27, 13.25 49.27 C8.04 46.27, 2.64 40.64, 0.71 35.19 C-1.23 29.75, -1.45 22.04, 1.63 16.6 C4.72 11.16, 15.68 5.02, 19.2 2.53 C22.72 0.05, 22.59 1.27, 22.75 1.7 M40.49 3.11 C46.01 5.38, 52.06 11.17, 54.87 16.31 C57.69 21.45, 58.77 28.23, 57.38 33.93 C55.98 39.64, 51.64 47, 46.51 50.54 C41.38 54.08, 32.7 55.71, 26.6 55.16 C20.5 54.6, 14.25 51.29, 9.94 47.2 C5.62 43.12, 1.58 36.36, 0.72 30.64 C-0.14 24.93, 1.26 17.97, 4.78 12.93 C8.3 7.89, 15.6 2.39, 21.85 0.42 C28.1 -1.54, 39.35 0.71, 42.31 1.12 C45.26 1.53, 40.03 2.23, 39.57 2.89" stroke="#1e1e1e" stroke-width="2" fill="none"></path></g><g transform="translate(380.99390334559007 24.408116907963205) rotate(0 14 12.5)"><text x="14" y="17.52" font-family="Virgil, Segoe UI Emoji" font-size="20px" fill="#1e1e1e" text-anchor="middle" style="white-space: pre;" direction="ltr" dominant-baseline="alphabetic">20</text></g><g stroke-linecap="round" transform="translate(482 98) rotate(0 29 27)"><path d="M26.99 -0.86 C32.56 -1.74, 40.46 1.07, 45.52 4.63 C50.59 8.19, 55.73 14.61, 57.37 20.51 C59.01 26.41, 58.2 34.94, 55.34 40.03 C52.48 45.11, 46.17 48.86, 40.21 51.02 C34.24 53.19, 25.42 54.51, 19.56 53.01 C13.71 51.52, 8.41 46.89, 5.06 42.07 C1.71 37.24, -1.3 30.02, -0.55 24.08 C0.2 18.14, 4.19 10.56, 9.55 6.43 C14.91 2.3, 26.92 0.12, 31.61 -0.69 C36.3 -1.5, 37.62 0.97, 37.69 1.56 M23.73 0.62 C29.57 -0.63, 39.07 1.58, 44.7 4.49 C50.33 7.39, 55.44 12.87, 57.51 18.04 C59.58 23.21, 59.26 30.2, 57.1 35.48 C54.95 40.76, 50.05 46.87, 44.59 49.71 C39.13 52.55, 30.81 53.43, 24.35 52.52 C17.89 51.6, 9.99 48.39, 5.85 44.21 C1.71 40.04, -0.45 33.36, -0.5 27.46 C-0.55 21.55, 1.34 13.37, 5.55 8.77 C9.77 4.17, 21.68 1.39, 24.81 -0.14 C27.95 -1.67, 24.35 -0.82, 24.36 -0.41" stroke="#1e1e1e" stroke-width="2" fill="none"></path></g><g transform="translate(497.3022367425017 112.40811690796323) rotate(0 13.691666603088379 12.5)"><text x="13.691666603088379" y="17.52" font-family="Virgil, Segoe UI Emoji" font-size="20px" fill="#1e1e1e" text-anchor="middle" style="white-space: pre;" direction="ltr" dominant-baseline="alphabetic">30</text></g><g stroke-linecap="round" transform="translate(236 109) rotate(0 29 27)"><path d="M14.86 3.71 C20.16 0.79, 29.68 -0.44, 35.7 0.52 C41.72 1.47, 47.22 4.82, 50.97 9.45 C54.72 14.08, 58.19 22.51, 58.19 28.31 C58.2 34.11, 55.11 39.97, 51 44.26 C46.88 48.54, 39.86 53.21, 33.51 54.01 C27.16 54.82, 18.39 52.08, 12.89 49.07 C7.4 46.07, 2.37 41.34, 0.55 35.97 C-1.26 30.61, -0.63 22.5, 2.01 16.89 C4.66 11.28, 13.74 4.61, 16.43 2.33 C19.11 0.05, 17.96 2.71, 18.11 3.2 M38.2 2.33 C43.63 3.77, 49.6 9.31, 52.72 14.19 C55.83 19.07, 57.81 26.23, 56.89 31.61 C55.98 36.98, 51.72 42.79, 47.22 46.43 C42.71 50.08, 35.77 53.43, 29.85 53.49 C23.93 53.54, 16.67 50.16, 11.68 46.75 C6.69 43.33, 1.36 38.43, -0.09 33 C-1.54 27.57, 0.14 19.34, 2.99 14.18 C5.84 9.03, 11.28 4.29, 17.03 2.09 C22.77 -0.11, 33.93 0.82, 37.47 1 C41.01 1.18, 38.44 2.81, 38.28 3.19" stroke="#1e1e1e" stroke-width="2" fill="none"></path></g><g transform="translate(255.40223712397142 123.40811690796323) rotate(0 9.591666221618652 12.5)"><text x="9.591666221618652" y="17.52" font-family="Virgil, Segoe UI Emoji" font-size="20px" fill="#1e1e1e" text-anchor="middle" style="white-space: pre;" direction="ltr" dominant-baseline="alphabetic">10</text></g><g stroke-linecap="round" transform="translate(332 209) rotate(0 29 27)"><path d="M17.38 2.85 C22.62 0.29, 30 0.06, 35.97 1.41 C41.93 2.76, 49.67 6.37, 53.18 10.92 C56.69 15.47, 57.56 22.83, 57.02 28.7 C56.48 34.58, 54.21 41.97, 49.92 46.17 C45.62 50.37, 37.59 53.38, 31.24 53.9 C24.9 54.42, 16.8 52.7, 11.83 49.29 C6.87 45.88, 2.92 38.97, 1.45 33.43 C-0.03 27.89, -0.44 21.32, 2.99 16.02 C6.43 10.73, 18.14 4.14, 22.05 1.68 C25.95 -0.77, 26.49 0.83, 26.43 1.28 M20.65 0.99 C26.06 -0.49, 35.14 0.9, 40.68 3.2 C46.21 5.51, 51.02 9.8, 53.84 14.84 C56.67 19.87, 58.97 27.92, 57.62 33.41 C56.27 38.89, 50.88 44.46, 45.74 47.76 C40.6 51.06, 33.01 53.43, 26.75 53.21 C20.49 52.99, 12.39 50.53, 8.17 46.45 C3.94 42.37, 2.02 34.68, 1.41 28.74 C0.8 22.8, 1.18 15.21, 4.51 10.8 C7.85 6.4, 18.65 3.86, 21.42 2.3 C24.19 0.74, 21.14 1.32, 21.13 1.45" stroke="#1e1e1e" stroke-width="2" fill="none"></path></g><g transform="translate(352.10223693323655 223.40811690796323) rotate(0 8.891666412353516 12.5)"><text x="8.891666412353516" y="17.52" font-family="Virgil, Segoe UI Emoji" font-size="20px" fill="#1e1e1e" text-anchor="middle" style="white-space: pre;" direction="ltr" dominant-baseline="alphabetic">15</text></g><g stroke-linecap="round" transform="translate(436 303) rotate(0 29 27)"><path d="M17.23 1.16 C22.34 -1.19, 30.92 -0.03, 36.95 1.87 C42.99 3.77, 49.98 7.81, 53.44 12.55 C56.9 17.29, 58.49 24.48, 57.72 30.3 C56.94 36.13, 53.46 43.53, 48.81 47.5 C44.16 51.48, 35.96 53.93, 29.81 54.15 C23.66 54.37, 16.62 52.41, 11.89 48.85 C7.17 45.28, 2.76 38.61, 1.44 32.76 C0.12 26.92, 0.06 19.25, 3.96 13.77 C7.86 8.29, 20.4 2.2, 24.83 -0.12 C29.26 -2.43, 30.67 -0.66, 30.52 -0.13 M23.47 0.96 C29.02 -0.05, 37.9 0.88, 43.16 3.74 C48.41 6.6, 52.95 12.75, 55 18.12 C57.06 23.5, 57.39 30.41, 55.49 36.01 C53.6 41.62, 49.04 48.95, 43.64 51.76 C38.24 54.57, 29.38 54.13, 23.09 52.88 C16.8 51.62, 9.51 48.65, 5.89 44.23 C2.27 39.82, 1.19 32.31, 1.36 26.39 C1.53 20.46, 3.18 12.9, 6.9 8.68 C10.61 4.47, 20.77 2.24, 23.67 1.08 C26.57 -0.09, 24.22 1.11, 24.3 1.69" stroke="#1e1e1e" stroke-width="2" fill="none"></path></g><g transform="translate(456.9022371239714 317.4081169079632) rotate(0 8.091666221618652 12.5)"><text x="8.091666221618652" y="17.52" font-family="Virgil, Segoe UI Emoji" font-size="20px" fill="#1e1e1e" text-anchor="middle" style="white-space: pre;" direction="ltr" dominant-baseline="alphabetic">17</text></g><g stroke-linecap="round" transform="translate(117 206) rotate(0 29 27)"><path d="M37.37 0.83 C43.2 2.18, 50.23 7.82, 53.58 12.75 C56.93 17.67, 58.14 24.64, 57.46 30.38 C56.78 36.12, 53.83 43.25, 49.49 47.19 C45.14 51.12, 37.59 53.86, 31.39 53.98 C25.18 54.11, 17.21 51.51, 12.25 47.95 C7.29 44.39, 3.1 38.26, 1.65 32.63 C0.2 26.99, 0.98 19.2, 3.55 14.13 C6.13 9.06, 11.3 4.24, 17.08 2.21 C22.85 0.19, 34.64 2.02, 38.22 1.98 C41.8 1.93, 38.58 1.66, 38.55 1.95 M28.66 -0.38 C34.84 -0.48, 43.5 4.1, 48.21 7.82 C52.92 11.55, 56.1 16.46, 56.92 21.95 C57.75 27.45, 55.99 35.78, 53.16 40.8 C50.33 45.81, 45.68 50.27, 39.94 52.04 C34.21 53.82, 24.86 53.29, 18.74 51.43 C12.62 49.57, 6.26 45.69, 3.23 40.91 C0.2 36.13, -0.59 28.31, 0.56 22.76 C1.72 17.21, 5.32 11.14, 10.18 7.6 C15.03 4.06, 26.61 2.57, 29.7 1.5 C32.79 0.44, 28.67 0.97, 28.73 1.2" stroke="#1e1e1e" stroke-width="2" fill="none"></path></g><g transform="translate(139.81056994867845 220.40811690796323) rotate(0 6.183333396911621 12.5)"><text x="6.183333396911621" y="17.52" font-family="Virgil, Segoe UI Emoji" font-size="20px" fill="#1e1e1e" text-anchor="middle" style="white-space: pre;" direction="ltr" dominant-baseline="alphabetic">5</text></g><g stroke-linecap="round" transform="translate(226 323) rotate(0 29 27)"><path d="M33.62 0.96 C39.51 1.65, 47.26 5.65, 51.33 10.01 C55.39 14.36, 58.09 21.28, 58.02 27.08 C57.95 32.88, 54.92 40.34, 50.93 44.81 C46.94 49.29, 40.19 53.03, 34.09 53.92 C27.99 54.81, 19.68 53.06, 14.33 50.14 C8.98 47.22, 4.04 41.88, 1.99 36.41 C-0.06 30.95, 0.1 22.7, 2.02 17.35 C3.95 11.99, 7.86 7.02, 13.54 4.29 C19.21 1.55, 31.96 1.24, 36.08 0.92 C40.19 0.61, 38.36 2.01, 38.21 2.39 M31.22 -0.64 C36.92 -0.09, 45.41 5.25, 49.78 9.52 C54.16 13.79, 57.16 19.53, 57.48 24.99 C57.8 30.45, 55.15 37.59, 51.71 42.3 C48.27 47, 42.59 51.8, 36.83 53.23 C31.08 54.66, 22.64 53.33, 17.18 50.86 C11.71 48.4, 6.48 43.74, 4.05 38.44 C1.62 33.13, 1.04 24.56, 2.59 19.05 C4.14 13.54, 8.42 8.6, 13.34 5.39 C18.26 2.18, 28.8 0.35, 32.11 -0.2 C35.42 -0.74, 33.37 1.75, 33.19 2.13" stroke="#1e1e1e" stroke-width="2" fill="none"></path></g><g transform="translate(249.6105701394133 337.4081169079632) rotate(0 5.383333206176758 12.5)"><text x="5.383333206176758" y="17.52" font-family="Virgil, Segoe UI Emoji" font-size="20px" fill="#1e1e1e" text-anchor="middle" style="white-space: pre;" direction="ltr" dominant-baseline="alphabetic">7</text></g><g stroke-linecap="round" transform="translate(10 320) rotate(0 29 27)"><path d="M36.74 0.16 C42.57 1.08, 49.8 5.98, 53.4 10.67 C57 15.36, 59.04 22.42, 58.36 28.29 C57.67 34.15, 53.74 41.51, 49.28 45.85 C44.83 50.19, 37.85 53.83, 31.6 54.33 C25.35 54.84, 16.79 52.27, 11.77 48.88 C6.75 45.49, 3.02 39.66, 1.49 34.02 C-0.05 28.38, 0.07 20.36, 2.57 15.06 C5.07 9.77, 9.96 4.22, 16.5 2.23 C23.05 0.24, 36.61 2.47, 41.86 3.12 C47.1 3.77, 48.22 5.86, 47.97 6.14 M29.09 -0.83 C34.69 -0.96, 42.48 3.07, 47.24 7.07 C52 11.08, 56.58 17.35, 57.64 23.18 C58.7 29.02, 56.69 36.96, 53.61 42.08 C50.53 47.2, 45.04 52.08, 39.17 53.9 C33.29 55.73, 24.13 55.22, 18.36 53 C12.59 50.79, 7.58 45.53, 4.54 40.62 C1.5 35.71, -1.1 29.38, 0.13 23.56 C1.35 17.73, 7.19 9.51, 11.89 5.68 C16.6 1.85, 25.68 1.3, 28.35 0.59 C31.02 -0.12, 27.86 1.08, 27.93 1.42" stroke="#1e1e1e" stroke-width="2" fill="none"></path></g><g transform="translate(32.18556994867845 334.4081169079632) rotate(0 6.808333396911621 12.5)"><text x="6.808333396911621" y="17.52" font-family="Virgil, Segoe UI Emoji" font-size="20px" fill="#1e1e1e" text-anchor="middle" style="white-space: pre;" direction="ltr" dominant-baseline="alphabetic">3</text></g><g stroke-linecap="round"><g transform="translate(371.00229917774755 59.998298011277825) rotate(0 -38.50232843063441 28.50172364345667)"><path d="M0.03 0.76 C-13.03 10.28, -64.85 48.6, -77.8 58.06 M-1.41 0.11 C-14.15 9.24, -62.61 47.27, -75.5 56.5" stroke="#1e1e1e" stroke-width="2" fill="none"></path></g></g><mask></mask><g stroke-linecap="round"><g transform="translate(427.996273355394 59.99680573319483) rotate(0 28.002527199593317 24.002166171079978)"><path d="M1.04 -1.18 C10.33 6.73, 46.56 40.48, 55.84 48.5 M0.12 0.82 C9.23 8.88, 45.44 38.83, 54.81 46.64" stroke="#1e1e1e" stroke-width="2" fill="none"></path></g></g><mask></mask><g stroke-linecap="round"><g transform="translate(288.9978556182307 159.9977294781267) rotate(0 25.501566938558312 27.001659111414625)"><path d="M-1.02 -0.02 C7.52 8.72, 43.39 44.56, 51.92 53.58 M0.64 -1.08 C9.05 8.34, 42.79 45.47, 51.46 54.89" stroke="#1e1e1e" stroke-width="2" fill="none"></path></g></g><mask></mask><g stroke-linecap="round"><g transform="translate(236.00279302631986 156.9977743071513) rotate(0 -32.00297364838758 25.50236962605888)"><path d="M1.03 -0.91 C-9.68 7.7, -52.87 41.67, -63.57 50.51 M0.12 1.23 C-10.77 10.1, -53.68 43.6, -64.29 51.79" stroke="#1e1e1e" stroke-width="2" fill="none"></path></g></g><mask></mask><g stroke-linecap="round"><g transform="translate(118 254) rotate(0 -27 33)"><path d="M0.82 -0.1 C-8.27 10.82, -44.85 54.16, -53.88 65.11 M-0.21 -1.2 C-9.5 9.89, -45.84 54.87, -54.76 66.18" stroke="#1e1e1e" stroke-width="2" fill="none"></path></g></g><mask></mask><g stroke-linecap="round"><g transform="translate(176 256) rotate(0 28.5 31.5)"><path d="M0.37 -1.09 C9.97 9.3, 48.57 51.14, 57.88 62 M-0.9 0.95 C8.6 11.49, 47.46 52.8, 57.4 63.01" stroke="#1e1e1e" stroke-width="2" fill="none"></path></g></g><mask></mask><g stroke-linecap="round"><g transform="translate(388 256) rotate(0 26 24)"><path d="M0.14 -0.93 C8.8 7.21, 43.18 40.28, 51.81 48.47 M-1.25 1.2 C7.25 9, 42.04 38.52, 50.76 46.59" stroke="#1e1e1e" stroke-width="2" fill="none"></path></g></g><mask></mask></svg>
