<svg version="1.1" xmlns="http://www.w3.org/2000/svg" viewBox="0 0 475.79701835454694 452.0522862070549" width="475.79701835454694" height="452.0522862070549">
  <!-- svg-source:excalidraw -->

  <defs>
    <style class="style-fonts">
      @font-face {
        font-family: "Virgil";
        src: url("https://excalidraw.com/Virgil.woff2");
      }
      @font-face {
        font-family: "Cascadia";
        src: url("https://excalidraw.com/Cascadia.woff2");
      }
      @font-face {
        font-family: "Assistant";
        src: url("https://excalidraw.com/Assistant-Regular.woff2");
      }
    </style>

  </defs>
  <rect x="0" y="0" width="475.79701835454694" height="452.0522862070549" fill="#ffffff"></rect><g stroke-linecap="round" transform="translate(165.1015028233287 10) rotate(0 23.5 24.5)"><path d="M17.83 0.52 C22.4 -0.92, 29.43 0.15, 34.05 2.44 C38.66 4.74, 43.47 9.48, 45.51 14.29 C47.55 19.09, 47.72 26.1, 46.28 31.28 C44.85 36.46, 41.1 42.41, 36.89 45.37 C32.67 48.33, 26.07 49.77, 21 49.05 C15.92 48.33, 9.89 44.82, 6.44 41.04 C2.98 37.25, 0.56 31.46, 0.28 26.33 C0 21.2, 1.57 14.63, 4.77 10.26 C7.97 5.89, 16.89 1.71, 19.49 0.1 C22.1 -1.5, 20.44 0.11, 20.39 0.62 M23.14 -0.18 C27.89 -0.57, 34.24 2.09, 38.22 5.47 C42.2 8.85, 46.07 14.9, 47.01 20.09 C47.94 25.27, 46.37 31.88, 43.83 36.59 C41.3 41.3, 36.5 46.52, 31.82 48.35 C27.14 50.18, 20.62 49.52, 15.77 47.58 C10.93 45.65, 5.2 41.29, 2.77 36.75 C0.34 32.21, 0.08 25.55, 1.17 20.34 C2.25 15.14, 5.58 9.02, 9.28 5.51 C12.98 1.99, 21.04 0.19, 23.35 -0.73 C25.66 -1.66, 23.02 -0.68, 23.14 -0.03" stroke="#1e1e1e" stroke-width="2" fill="none"></path></g><g transform="translate(181.8145029258941 22.175883860929588) rotate(0 6.669990539550781 12.5)"><text x="6.669990539550781" y="17.52" font-family="Virgil, Segoe UI Emoji" font-size="20px" fill="#1e1e1e" text-anchor="middle" style="white-space: pre;" direction="ltr" dominant-baseline="alphabetic">a</text></g><g stroke-linecap="round" transform="translate(85.38516629283276 105.92190627588838) rotate(0 23.5 24.5)"><path d="M23.78 0.26 C28.56 0.1, 35.07 3.16, 38.98 6.64 C42.88 10.12, 46.41 16.02, 47.2 21.15 C47.98 26.27, 46.47 32.9, 43.69 37.38 C40.91 41.86, 35.29 46.33, 30.53 48.01 C25.77 49.68, 19.69 49.33, 15.12 47.42 C10.55 45.5, 5.62 41.14, 3.13 36.52 C0.63 31.9, -0.79 24.97, 0.16 19.7 C1.11 14.42, 4.66 8.16, 8.84 4.89 C13.01 1.62, 22.48 0.75, 25.21 0.08 C27.94 -0.6, 25.4 0.46, 25.25 0.84 M17.79 0.77 C22.4 -0.58, 29.11 0.87, 33.79 3.36 C38.47 5.85, 43.82 11, 45.88 15.7 C47.94 20.4, 47.69 26.56, 46.13 31.59 C44.58 36.61, 40.73 42.89, 36.54 45.86 C32.35 48.83, 26.04 50.28, 20.99 49.4 C15.95 48.53, 9.87 44.67, 6.25 40.6 C2.63 36.52, -0.38 30.05, -0.71 24.93 C-1.04 19.82, 0.99 13.99, 4.28 9.9 C7.57 5.81, 16.61 1.94, 19.01 0.4 C21.42 -1.15, 18.77 0.25, 18.71 0.62" stroke="#1e1e1e" stroke-width="2" fill="none"></path></g><g transform="translate(103.68816273328878 118.09779013681793) rotate(0 5.079994201660156 12.5)"><text x="5.079994201660156" y="17.52" font-family="Virgil, Segoe UI Emoji" font-size="20px" fill="#1e1e1e" text-anchor="middle" style="white-space: pre;" direction="ltr" dominant-baseline="alphabetic">b</text></g><g stroke-linecap="round" transform="translate(265.9668489453122 96.05656015390485) rotate(0 23.5 24.5)"><path d="M21.59 0.3 C26.25 -0.58, 32.8 1.06, 36.94 4.09 C41.08 7.12, 45.09 13.29, 46.43 18.47 C47.77 23.65, 47.06 30.52, 44.97 35.17 C42.88 39.81, 38.43 44.21, 33.88 46.36 C29.32 48.51, 22.62 49.3, 17.63 48.06 C12.63 46.81, 6.82 43.2, 3.9 38.88 C0.98 34.55, -0.42 27.45, 0.12 22.09 C0.66 16.73, 3.47 10.46, 7.13 6.71 C10.79 2.96, 19.49 0.6, 22.07 -0.41 C24.66 -1.41, 22.65 0.2, 22.64 0.7 M20.35 0.52 C24.89 -0.66, 30.95 1.04, 35.29 3.77 C39.64 6.49, 44.62 11.97, 46.42 16.87 C48.22 21.77, 48.08 28.46, 46.09 33.17 C44.1 37.88, 39.1 42.65, 34.48 45.13 C29.87 47.61, 23.24 48.79, 18.42 48.05 C13.6 47.31, 8.67 44.63, 5.57 40.71 C2.46 36.78, -0.14 29.88, -0.2 24.49 C-0.26 19.09, 1.97 12.28, 5.22 8.35 C8.47 4.42, 16.93 2.18, 19.31 0.92 C21.68 -0.34, 19.45 0.4, 19.47 0.78" stroke="#1e1e1e" stroke-width="2" fill="none"></path></g><g transform="translate(284.33984508059245 108.23244401483441) rotate(0 5.0099945068359375 12.5)"><text x="5.0099945068359375" y="17.52" font-family="Virgil, Segoe UI Emoji" font-size="20px" fill="#1e1e1e" text-anchor="middle" style="white-space: pre;" direction="ltr" dominant-baseline="alphabetic">g</text></g><g stroke-linecap="round" transform="translate(132.46326001694456 202.0493822971693) rotate(0 23.5 24.5)"><path d="M27.57 0.22 C32.2 0.84, 37.76 4.93, 41.01 8.89 C44.25 12.85, 46.88 18.87, 47.03 23.99 C47.18 29.1, 45.12 35.57, 41.89 39.6 C38.66 43.63, 32.71 47.07, 27.66 48.15 C22.61 49.22, 16.01 48.52, 11.59 46.03 C7.17 43.54, 2.89 38.08, 1.13 33.19 C-0.63 28.31, -0.8 21.64, 1.02 16.74 C2.84 11.85, 7.4 6.54, 12.04 3.83 C16.67 1.12, 25.83 0.79, 28.84 0.48 C31.85 0.16, 30.18 1.44, 30.12 1.93 M22.92 -0.53 C27.83 -0.57, 35.04 2.98, 38.96 6.51 C42.89 10.04, 45.74 15.64, 46.46 20.67 C47.19 25.7, 45.9 32.11, 43.32 36.7 C40.75 41.28, 35.73 46.38, 31.01 48.17 C26.3 49.96, 19.79 49.3, 15.03 47.44 C10.27 45.59, 4.79 41.63, 2.46 37.05 C0.13 32.48, 0.16 25.35, 1.04 20.01 C1.92 14.67, 3.88 8.25, 7.76 5.01 C11.64 1.78, 21.76 1.32, 24.34 0.63 C26.92 -0.07, 23.31 0.54, 23.23 0.86" stroke="#1e1e1e" stroke-width="2" fill="none"></path></g><g transform="translate(150.156255847049 214.22526615809886) rotate(0 5.689994812011719 12.5)"><text x="5.689994812011719" y="17.52" font-family="Virgil, Segoe UI Emoji" font-size="20px" fill="#1e1e1e" text-anchor="middle" style="white-space: pre;" direction="ltr" dominant-baseline="alphabetic">d</text></g><g stroke-linecap="round" transform="translate(362.9668489453122 200.05656015390485) rotate(0 23.5 24.5)"><path d="M17.53 0.92 C22.07 -0.49, 28.98 0.27, 33.5 2.62 C38.02 4.97, 42.49 10.16, 44.67 15.01 C46.84 19.87, 47.86 26.8, 46.54 31.75 C45.21 36.7, 40.94 41.78, 36.72 44.72 C32.5 47.65, 26.18 49.83, 21.21 49.36 C16.23 48.88, 10.39 45.8, 6.87 41.87 C3.35 37.95, 0.54 31.18, 0.07 25.8 C-0.41 20.41, 0.98 13.75, 4.03 9.56 C7.09 5.38, 15.72 2.15, 18.41 0.67 C21.1 -0.81, 20.02 0.36, 20.19 0.68 M21.78 0.02 C26.5 -0.62, 32.67 2.13, 36.87 5.25 C41.08 8.36, 45.86 13.78, 47.01 18.71 C48.16 23.64, 46.02 30.01, 43.78 34.82 C41.54 39.64, 38.12 45.34, 33.55 47.6 C28.99 49.85, 21.31 49.94, 16.4 48.35 C11.49 46.76, 6.76 42.51, 4.09 38.06 C1.42 33.61, -0.07 26.88, 0.37 21.63 C0.81 16.39, 3.15 10.27, 6.72 6.57 C10.28 2.87, 19.12 0.43, 21.79 -0.55 C24.45 -1.53, 22.52 0.22, 22.69 0.69" stroke="#1e1e1e" stroke-width="2" fill="none"></path></g><g transform="translate(384.15984477541656 212.2324440148344) rotate(0 2.1899948120117188 12.5)"><text x="2.1899948120117188" y="17.52" font-family="Virgil, Segoe UI Emoji" font-size="20px" fill="#1e1e1e" text-anchor="middle" style="white-space: pre;" direction="ltr" dominant-baseline="alphabetic">i</text></g><g stroke-linecap="round" transform="translate(147.6760076190726 317.19121403192133) rotate(0 23.5 24.5)"><path d="M28.84 1.08 C33.6 1.95, 39.45 5.98, 42.48 10.01 C45.5 14.03, 47.35 20.15, 46.99 25.25 C46.63 30.34, 43.79 36.64, 40.32 40.59 C36.85 44.54, 31.03 48.22, 26.19 48.96 C21.36 49.7, 15.46 47.92, 11.31 45.01 C7.15 42.11, 2.87 36.57, 1.27 31.54 C-0.34 26.51, -0.29 19.67, 1.68 14.84 C3.64 10.01, 8.28 4.92, 13.07 2.56 C17.86 0.2, 27.22 0.67, 30.43 0.68 C33.64 0.7, 32.48 2.27, 32.35 2.65 M18.25 0.89 C22.79 -0.54, 30.23 0.54, 34.77 2.94 C39.32 5.34, 43.79 10.46, 45.53 15.3 C47.27 20.13, 46.87 27.07, 45.22 31.98 C43.56 36.88, 39.69 41.89, 35.61 44.71 C31.54 47.54, 25.6 49.59, 20.76 48.91 C15.92 48.23, 10.04 44.51, 6.58 40.62 C3.12 36.74, 0.32 30.93, -0.01 25.61 C-0.34 20.29, 1.44 12.93, 4.61 8.69 C7.77 4.44, 16.56 1.35, 18.99 0.14 C21.43 -1.08, 19.25 1.02, 19.23 1.41" stroke="#1e1e1e" stroke-width="2" fill="none"></path></g><g transform="translate(166.19900528023175 329.36709789285095) rotate(0 4.859992980957031 12.5)"><text x="4.859992980957031" y="17.52" font-family="Virgil, Segoe UI Emoji" font-size="20px" fill="#1e1e1e" text-anchor="middle" style="white-space: pre;" direction="ltr" dominant-baseline="alphabetic">f</text></g><g stroke-linecap="round"><g transform="translate(172.5236165755889 65.85957823404152) rotate(0 -20.894540700899938 20.498437604020523)"><path d="M0.33 -1.16 C-6.46 5.54, -34.38 33.98, -41.22 40.94 M-0.96 0.85 C-7.81 7.69, -35.22 35.64, -41.88 42.45" stroke="#1e1e1e" stroke-width="2" fill="none"></path></g></g><mask></mask><g stroke-linecap="round"><g transform="translate(211.87297944722968 54.13829792046204) rotate(0 26.49670273200377 24.23198657801035)"><path d="M-0.18 0.79 C8.33 8.51, 43.2 39.53, 52.25 47.41 M-1.73 0.16 C7.06 8.51, 45.29 40.23, 54.57 48.4" stroke="#1e1e1e" stroke-width="2" fill="none"></path></g></g><mask></mask><g stroke-linecap="round"><g transform="translate(123.73491921475807 160.7854015585935) rotate(0 7.973036136428391 20.532436248087862)"><path d="M0.12 -1.13 C2.49 5.8, 12.68 33.37, 15.32 40.43 M-1.28 0.9 C1.4 8.07, 14.95 34.68, 17.71 41.64" stroke="#1e1e1e" stroke-width="2" fill="none"></path></g></g><mask></mask><g stroke-linecap="round"><g transform="translate(156.92644349477223 256.0380430895063) rotate(0 8.648984993206 29.217316343764367)"><path d="M-0.17 -0.64 C2.6 9.03, 13.29 49.3, 16.28 59.05 M-1.72 1.64 C1.44 11.48, 15.3 47.71, 18.46 57.26" stroke="#1e1e1e" stroke-width="2" fill="none"></path></g></g><mask></mask><g stroke-linecap="round" transform="translate(60.17054316169447 321.5837238623853) rotate(0 23.5 24.5)"><path d="M25.94 0.3 C30.77 0.56, 36.68 3.89, 40.1 7.52 C43.52 11.16, 46.08 16.94, 46.47 22.09 C46.86 27.25, 45.33 34.12, 42.46 38.44 C39.59 42.76, 34.09 46.58, 29.23 48 C24.36 49.42, 17.71 49.12, 13.27 46.95 C8.82 44.78, 4.67 39.78, 2.58 35 C0.48 30.21, -0.59 23.36, 0.7 18.23 C1.98 13.1, 5.94 7.13, 10.28 4.22 C14.62 1.3, 23.71 1.22, 26.76 0.73 C29.82 0.24, 28.7 0.96, 28.62 1.29 M26.95 0.1 C31.49 0.74, 37.34 4.95, 40.76 9.06 C44.18 13.16, 47.35 19.67, 47.47 24.75 C47.58 29.84, 44.64 35.61, 41.46 39.56 C38.29 43.52, 33.39 47.42, 28.42 48.48 C23.44 49.53, 16.14 48.39, 11.6 45.89 C7.06 43.39, 2.9 38.47, 1.19 33.49 C-0.52 28.5, -0.33 21.09, 1.33 15.99 C2.99 10.9, 6.82 5.63, 11.16 2.91 C15.5 0.19, 24.79 0.15, 27.38 -0.31 C29.96 -0.77, 26.81 -0.33, 26.69 0.16" stroke="#1e1e1e" stroke-width="2" fill="none"></path></g><g transform="translate(78.08354021250204 333.7596077233149) rotate(0 5.469993591308594 12.5)"><text x="5.469993591308594" y="17.52" font-family="Virgil, Segoe UI Emoji" font-size="20px" fill="#1e1e1e" text-anchor="middle" style="white-space: pre;" direction="ltr" dominant-baseline="alphabetic">e</text></g><g stroke-linecap="round"><g transform="translate(136.95266489590483 250.75091078668487) rotate(0 -19.318976155872633 32.47730323843291)"><path d="M-0.32 0.07 C-6.89 11.04, -33.35 54.24, -39.73 65.14 M1.72 -0.93 C-4.47 10.32, -30.74 56.06, -37.58 66.78" stroke="#1e1e1e" stroke-width="2" fill="none"></path></g></g><mask></mask><g stroke-linecap="round"><g transform="translate(315.3821394390011 137.9590646991001) rotate(0 26.129817585914793 30.387012452441127)"><path d="M-0.15 -0.35 C8.68 9.62, 44.33 49.97, 53.25 60 M-1.69 -1.59 C7.04 8.51, 43.68 50.76, 52.83 61.13" stroke="#1e1e1e" stroke-width="2" fill="none"></path></g></g><mask></mask><g stroke-linecap="round" transform="translate(10 194.2282818255253) rotate(0 23.5 24.5)"><path d="M28.82 0.88 C33.57 1.5, 38.87 5.16, 41.94 9.19 C45.02 13.21, 47.44 19.71, 47.26 25.02 C47.09 30.34, 44.34 37.14, 40.89 41.1 C37.44 45.06, 31.58 48.08, 26.54 48.79 C21.5 49.51, 14.86 48.17, 10.65 45.38 C6.44 42.59, 2.71 37.11, 1.27 32.03 C-0.17 26.95, 0.25 19.82, 2.03 14.88 C3.81 9.95, 7.42 4.75, 11.94 2.42 C16.47 0.1, 26.03 1.04, 29.19 0.95 C32.36 0.86, 30.92 1.46, 30.95 1.89 M19.64 0.18 C24.24 -0.96, 30.66 -0.04, 34.92 2.7 C39.19 5.43, 43.44 11.56, 45.22 16.6 C47 21.63, 47.17 28.04, 45.58 32.91 C44 37.79, 40.17 43.31, 35.72 45.83 C31.28 48.35, 23.96 49.1, 18.9 48.03 C13.85 46.96, 8.47 43.44, 5.37 39.43 C2.27 35.42, 0.37 29.01, 0.31 23.95 C0.26 18.89, 1.89 13.06, 5.04 9.09 C8.2 5.13, 16.72 1.64, 19.24 0.16 C21.76 -1.32, 19.92 -0.12, 20.16 0.2" stroke="#1e1e1e" stroke-width="2" fill="none"></path></g><g transform="translate(28.362993999049763 206.40416568645486) rotate(0 5.019996643066406 12.5)"><text x="5.019996643066406" y="17.52" font-family="Virgil, Segoe UI Emoji" font-size="20px" fill="#1e1e1e" text-anchor="middle" style="white-space: pre;" direction="ltr" dominant-baseline="alphabetic">c</text></g><g stroke-linecap="round" transform="translate(418.79701835454694 291.7821157510422) rotate(0 23.5 24.5)"><path d="M20.14 0.36 C24.81 -0.54, 31.53 1.32, 35.72 3.98 C39.91 6.63, 43.78 11.44, 45.3 16.3 C46.83 21.17, 46.62 28.16, 44.87 33.17 C43.12 38.19, 39.11 43.78, 34.8 46.4 C30.49 49.02, 23.9 50.07, 19 48.9 C14.11 47.73, 8.63 43.64, 5.45 39.38 C2.28 35.12, -0.13 28.56, -0.05 23.35 C0.04 18.14, 2.48 12.07, 5.95 8.12 C9.43 4.18, 18.15 0.9, 20.81 -0.33 C23.48 -1.57, 21.85 0.25, 21.95 0.72 M27.91 0.55 C32.53 1.4, 38.29 5.75, 41.41 9.8 C44.53 13.85, 46.63 19.73, 46.63 24.86 C46.63 30, 44.75 36.52, 41.4 40.59 C38.05 44.65, 31.68 48.37, 26.51 49.25 C21.34 50.13, 14.69 48.64, 10.35 45.89 C6.01 43.14, 1.94 37.74, 0.47 32.73 C-1 27.72, -0.45 20.72, 1.54 15.84 C3.53 10.95, 7.81 5.88, 12.42 3.42 C17.03 0.96, 26.51 1.6, 29.19 1.1 C31.87 0.6, 28.69 0.1, 28.49 0.45" stroke="#1e1e1e" stroke-width="2" fill="none"></path></g><g transform="translate(438.9000102173661 303.9579996119718) rotate(0 3.279998779296875 12.500000000000028)"><text x="3.279998779296875" y="17.52" font-family="Virgil, Segoe UI Emoji" font-size="20px" fill="#1e1e1e" text-anchor="middle" style="white-space: pre;" direction="ltr" dominant-baseline="alphabetic">j</text></g><g stroke-linecap="round" transform="translate(220.90209810564147 193.29919769290166) rotate(0 23.5 24.5)"><path d="M25.37 0.42 C30.05 0.37, 35.87 3.14, 39.37 6.7 C42.88 10.26, 45.79 16.62, 46.39 21.79 C46.99 26.96, 45.75 33.41, 42.97 37.73 C40.18 42.05, 34.46 46.17, 29.68 47.72 C24.9 49.26, 18.84 48.98, 14.29 47 C9.73 45.01, 4.62 40.57, 2.35 35.82 C0.08 31.08, -0.47 23.7, 0.67 18.52 C1.81 13.35, 5.12 7.82, 9.18 4.78 C13.24 1.74, 22.26 1.05, 25.01 0.29 C27.75 -0.46, 25.54 -0.1, 25.64 0.23 M22.78 -0.61 C27.58 -1.15, 34.24 1.42, 38.27 4.64 C42.3 7.86, 45.82 13.45, 46.96 18.71 C48.1 23.97, 47.37 31.47, 45.1 36.2 C42.83 40.93, 38.18 45.15, 33.37 47.12 C28.55 49.08, 21.06 49.58, 16.19 47.99 C11.31 46.39, 6.9 41.98, 4.12 37.55 C1.34 33.11, -1.07 26.4, -0.47 21.38 C0.13 16.37, 3.92 11.11, 7.72 7.43 C11.51 3.75, 19.85 0.56, 22.29 -0.68 C24.72 -1.93, 22.36 -0.44, 22.31 -0.03" stroke="#1e1e1e" stroke-width="2" fill="none"></path></g><g transform="translate(239.34509393574592 205.47508155383122) rotate(0 4.939994812011719 12.5)"><text x="4.939994812011719" y="17.52" font-family="Virgil, Segoe UI Emoji" font-size="20px" fill="#1e1e1e" text-anchor="middle" style="white-space: pre;" direction="ltr" dominant-baseline="alphabetic">h</text></g><g stroke-linecap="round" transform="translate(371.4137275907244 393.0522862070549) rotate(0 23.5 24.5)"><path d="M21.96 0.23 C26.78 -0.29, 33.52 1.69, 37.67 4.82 C41.81 7.94, 45.72 13.9, 46.82 18.97 C47.91 24.04, 46.58 30.62, 44.23 35.23 C41.88 39.83, 37.26 44.52, 32.7 46.6 C28.14 48.68, 21.74 49.1, 16.86 47.7 C11.98 46.3, 6.24 42.57, 3.42 38.19 C0.6 33.81, -0.8 26.76, -0.08 21.42 C0.65 16.09, 3.87 9.83, 7.77 6.18 C11.67 2.54, 20.62 0.54, 23.34 -0.43 C26.05 -1.4, 24.04 -0.11, 24.04 0.36 M28.25 -0.11 C32.88 0.52, 38.81 5.35, 41.86 9.44 C44.92 13.54, 46.73 19.18, 46.57 24.45 C46.4 29.72, 43.99 36.96, 40.86 41.04 C37.73 45.11, 32.83 48.13, 27.78 48.89 C22.73 49.65, 15.07 48.39, 10.55 45.59 C6.03 42.79, 2.28 37.12, 0.68 32.1 C-0.93 27.08, -1.1 20.38, 0.91 15.48 C2.92 10.57, 8.33 5.19, 12.75 2.68 C17.16 0.16, 24.78 0.72, 27.42 0.37 C30.07 0.03, 28.58 0.23, 28.62 0.63" stroke="#1e1e1e" stroke-width="2" fill="none"></path></g><g transform="translate(389.926723115653 405.22817006798454) rotate(0 4.8699951171875 12.5)"><text x="4.8699951171875" y="17.52" font-family="Virgil, Segoe UI Emoji" font-size="20px" fill="#1e1e1e" text-anchor="middle" style="white-space: pre;" direction="ltr" dominant-baseline="alphabetic">k</text></g><g stroke-linecap="round"><g transform="translate(49.294430254607505 188.99758958155826) rotate(0 18.581682652479344 -19.046224718791365)"><path d="M0 0.02 C6.33 -6.52, 31.53 -32.09, 37.55 -38.6 M-1.46 -1.02 C4.79 -7.45, 30.15 -31.12, 36.8 -37.33" stroke="#1e1e1e" stroke-width="2" fill="none"></path></g></g><mask></mask><g stroke-linecap="round"><g transform="translate(254.62202356450484 188.99758958155826) rotate(0 8.361757193615745 -21.83347711666329)"><path d="M-0.19 0.41 C2.85 -6.69, 14.63 -35.17, 17.59 -42.58 M-1.75 -0.43 C1.26 -7.83, 13.94 -37.05, 17.1 -44.13" stroke="#1e1e1e" stroke-width="2" fill="none"></path></g></g><mask></mask><g stroke-linecap="round"><g transform="translate(404.20456891696426 249.38805820211633) rotate(0 10.2199254588636 19.510766785103385)"><path d="M-0.72 -0.12 C2.53 6.1, 15.91 31.86, 19.45 38.21 M1.11 -1.23 C4.72 5.05, 18.53 32.65, 21.64 39.31" stroke="#1e1e1e" stroke-width="2" fill="none"></path></g></g><mask></mask><g stroke-linecap="round"><g transform="translate(422.7862515694435 346.01280799500927) rotate(0 -7.43267306099176 21.368935050351297)"><path d="M-0.39 -0.34 C-2.83 6.72, -12.66 35.22, -15.07 42.46 M0.42 0.67 C-2.09 7.8, -13 36.1, -15.6 43.02" stroke="#1e1e1e" stroke-width="2" fill="none"></path></g></g><mask></mask></svg>
