<svg version="1.1" xmlns="http://www.w3.org/2000/svg" viewBox="0 0 763 480.5" width="763" height="480.5">
  <!-- svg-source:excalidraw -->

  <defs>
    <style class="style-fonts">
      @font-face {
        font-family: "Virgil";
        src: url("https://excalidraw.com/Virgil.woff2");
      }
      @font-face {
        font-family: "Cascadia";
        src: url("https://excalidraw.com/Cascadia.woff2");
      }
      @font-face {
        font-family: "Assistant";
        src: url("https://excalidraw.com/Assistant-Regular.woff2");
      }
    </style>

  </defs>
  <rect x="0" y="0" width="763" height="480.5" fill="#ffffff"></rect><g stroke-linecap="round" transform="translate(410 10) rotate(0 24 24.5)"><path d="M21.06 0.55 C25.84 -0.51, 32.28 1.11, 36.57 3.77 C40.85 6.43, 45.15 11.62, 46.75 16.53 C48.36 21.44, 48.09 28.25, 46.19 33.24 C44.3 38.23, 39.93 43.86, 35.38 46.46 C30.83 49.05, 23.92 49.89, 18.9 48.79 C13.88 47.68, 8.48 43.98, 5.28 39.83 C2.08 35.67, -0.46 29.14, -0.29 23.86 C-0.12 18.59, 2.73 12.04, 6.3 8.17 C9.87 4.29, 18.49 1.84, 21.14 0.61 C23.8 -0.61, 22.09 0.55, 22.23 0.81 M20.17 -0.13 C24.97 -0.96, 32.76 1.18, 37.16 4.1 C41.56 7.02, 44.96 12.52, 46.59 17.41 C48.22 22.29, 48.84 28.5, 46.95 33.42 C45.05 38.33, 39.86 44.33, 35.21 46.92 C30.55 49.51, 23.95 50.28, 19.01 48.96 C14.07 47.63, 8.74 43.09, 5.56 38.97 C2.38 34.84, -0.28 29.41, -0.07 24.19 C0.13 18.97, 3.33 11.67, 6.79 7.64 C10.26 3.62, 18.37 1.27, 20.71 0.03 C23.04 -1.21, 20.76 -0.18, 20.8 0.21" stroke="#1e1e1e" stroke-width="2" fill="none"></path></g><g transform="translate(424.4377710299042 22.175883860929588) rotate(0 9.591666221618652 12.500000000000014)"><text x="9.591666221618652" y="17.52" font-family="Virgil, Segoe UI Emoji" font-size="20px" fill="#1e1e1e" text-anchor="middle" style="white-space: pre;" direction="ltr" dominant-baseline="alphabetic">10</text></g><g stroke-linecap="round" transform="translate(281 125.5) rotate(0 24 24.5)"><path d="M25.1 0.2 C29.92 -0.01, 36.15 2.39, 39.95 5.91 C43.75 9.43, 47.27 16.05, 47.92 21.31 C48.57 26.57, 46.59 33, 43.83 37.44 C41.08 41.88, 36.25 46.36, 31.39 47.93 C26.52 49.5, 19.47 48.8, 14.64 46.88 C9.8 44.95, 4.69 40.91, 2.37 36.38 C0.05 31.85, -0.34 24.92, 0.72 19.69 C1.79 14.47, 4.54 8.27, 8.76 5.03 C12.98 1.8, 23.02 1.08, 26.04 0.28 C29.07 -0.52, 27.04 -0.06, 26.89 0.23 M30.35 1.22 C35.2 2.16, 41.05 6.25, 43.86 10.43 C46.66 14.61, 47.56 21.2, 47.19 26.31 C46.83 31.41, 45.14 37.38, 41.65 41.07 C38.15 44.76, 31.48 47.9, 26.22 48.45 C20.97 49, 14.34 47.13, 10.12 44.35 C5.9 41.57, 2.35 36.79, 0.9 31.79 C-0.56 26.78, -0.8 19.22, 1.41 14.31 C3.62 9.41, 9.4 4.59, 14.15 2.37 C18.9 0.15, 27.18 1.12, 29.89 0.97 C32.61 0.81, 30.6 1.12, 30.45 1.44" stroke="#1e1e1e" stroke-width="2" fill="none"></path></g><g transform="translate(298.8461038546112 137.67588386092956) rotate(0 6.183333396911621 12.5)"><text x="6.183333396911621" y="17.52" font-family="Virgil, Segoe UI Emoji" font-size="20px" fill="#1e1e1e" text-anchor="middle" style="white-space: pre;" direction="ltr" dominant-baseline="alphabetic">5</text></g><g stroke-linecap="round" transform="translate(548 124.5) rotate(0 24 24.5)"><path d="M22.47 -0.44 C27.38 -1.13, 33.85 1.56, 38 4.67 C42.15 7.78, 46.18 13.19, 47.39 18.21 C48.6 23.23, 47.46 29.98, 45.26 34.79 C43.06 39.6, 38.8 44.93, 34.21 47.06 C29.62 49.19, 22.78 48.99, 17.75 47.56 C12.71 46.14, 6.89 42.73, 3.99 38.52 C1.09 34.31, -0.14 27.64, 0.35 22.3 C0.83 16.96, 3.1 10.13, 6.9 6.49 C10.7 2.86, 20.12 1.48, 23.15 0.5 C26.17 -0.49, 24.9 0.22, 25.04 0.6 M27.27 0.65 C32.02 1.1, 37.89 4.05, 41.27 7.8 C44.65 11.55, 47.35 17.85, 47.56 23.13 C47.77 28.41, 45.53 35.38, 42.55 39.48 C39.57 43.58, 34.67 46.53, 29.69 47.75 C24.7 48.97, 17.32 49.12, 12.66 46.8 C8 44.48, 3.59 38.65, 1.7 33.81 C-0.18 28.97, -0.25 22.79, 1.37 17.74 C2.98 12.69, 7.14 6.33, 11.41 3.51 C15.68 0.68, 24.46 1.26, 27.01 0.78 C29.55 0.3, 26.76 0.27, 26.67 0.63" stroke="#1e1e1e" stroke-width="2" fill="none"></path></g><g transform="translate(561.1127702669648 136.67588386092956) rotate(0 10.916666984558105 12.5)"><text x="10.916666984558105" y="17.52" font-family="Virgil, Segoe UI Emoji" font-size="20px" fill="#1e1e1e" text-anchor="middle" style="white-space: pre;" direction="ltr" dominant-baseline="alphabetic">-3</text></g><g stroke-linecap="round" transform="translate(705 219.5) rotate(0 24 24.5)"><path d="M22.7 -0.3 C27.49 -0.77, 34.09 2.21, 38.25 5.53 C42.41 8.85, 46.55 14.57, 47.64 19.6 C48.72 24.64, 47.13 31.12, 44.76 35.75 C42.39 40.38, 38.03 45.43, 33.41 47.38 C28.79 49.33, 22.06 49.15, 17.04 47.44 C12.02 45.73, 6.03 41.48, 3.31 37.13 C0.59 32.78, -0.06 26.41, 0.71 21.34 C1.48 16.27, 4.09 10.22, 7.94 6.71 C11.78 3.2, 21.08 1.4, 23.77 0.28 C26.46 -0.84, 24.1 -0.42, 24.06 0 M19.67 -0.1 C24.47 -1.05, 31.82 1.29, 36.2 4 C40.58 6.72, 44.14 11.35, 45.95 16.19 C47.76 21.03, 48.77 28.06, 47.08 33.04 C45.39 38.02, 40.28 43.44, 35.81 46.07 C31.35 48.7, 25.39 49.84, 20.29 48.8 C15.18 47.76, 8.47 44, 5.18 39.83 C1.89 35.65, 0.47 29.03, 0.56 23.75 C0.64 18.47, 2.4 12.03, 5.7 8.15 C9 4.26, 18 1.69, 20.35 0.44 C22.71 -0.8, 19.85 0.35, 19.83 0.68" stroke="#1e1e1e" stroke-width="2" fill="none"></path></g><g transform="translate(723.612770743802 231.67588386092956) rotate(0 5.416666507720947 12.5)"><text x="5.416666507720947" y="17.52" font-family="Virgil, Segoe UI Emoji" font-size="20px" fill="#1e1e1e" text-anchor="middle" style="white-space: pre;" direction="ltr" dominant-baseline="alphabetic">11</text></g><g stroke-linecap="round" transform="translate(396 245.5) rotate(0 24 24.5)"><path d="M19.32 0.04 C23.94 -1.29, 30.59 0.55, 35.12 3.15 C39.64 5.75, 44.58 10.88, 46.46 15.63 C48.35 20.38, 48.13 26.62, 46.43 31.64 C44.73 36.67, 40.54 42.89, 36.27 45.76 C31.99 48.63, 25.76 49.61, 20.8 48.86 C15.83 48.1, 9.92 45.11, 6.5 41.23 C3.08 37.35, 0.61 30.86, 0.29 25.57 C-0.03 20.27, 1.33 13.7, 4.58 9.46 C7.83 5.21, 17.23 1.59, 19.79 0.1 C22.36 -1.38, 19.98 0.13, 19.96 0.54 M23.69 0.62 C28.47 0.4, 35.21 2.31, 39.24 5.67 C43.26 9.04, 46.86 15.7, 47.84 20.81 C48.81 25.92, 47.69 31.82, 45.07 36.35 C42.45 40.89, 37.05 46.17, 32.11 48.03 C27.17 49.88, 20.3 49.31, 15.43 47.49 C10.55 45.68, 5.37 41.72, 2.88 37.14 C0.38 32.57, -0.46 25.32, 0.45 20.06 C1.36 14.8, 4.48 8.9, 8.34 5.57 C12.19 2.24, 21.01 0.91, 23.58 0.09 C26.15 -0.73, 23.65 0.3, 23.76 0.66" stroke="#1e1e1e" stroke-width="2" fill="none"></path></g><g transform="translate(412.9127704576996 257.67588386092956) rotate(0 7.116666793823242 12.5)"><text x="7.116666793823242" y="17.52" font-family="Virgil, Segoe UI Emoji" font-size="20px" fill="#1e1e1e" text-anchor="middle" style="white-space: pre;" direction="ltr" dominant-baseline="alphabetic">2</text></g><g stroke-linecap="round" transform="translate(547 368.5) rotate(0 24 24.5)"><path d="M22.74 -0.35 C27.48 -1.1, 33.59 1.07, 37.77 4.26 C41.94 7.45, 46.49 13.54, 47.8 18.77 C49.11 24, 47.93 30.9, 45.63 35.64 C43.33 40.37, 38.69 45.2, 34.01 47.19 C29.32 49.17, 22.48 48.99, 17.5 47.53 C12.51 46.07, 7.03 42.72, 4.08 38.41 C1.14 34.11, -0.69 27.02, -0.19 21.7 C0.32 16.39, 3.32 10.16, 7.11 6.54 C10.9 2.93, 19.79 1.1, 22.55 0.02 C25.31 -1.07, 23.62 -0.44, 23.67 0.04 M24.04 0.23 C28.86 -0.3, 34.63 1.93, 38.64 5.08 C42.64 8.22, 47 13.97, 48.06 19.08 C49.13 24.2, 47.52 31.03, 45.03 35.75 C42.54 40.47, 37.93 45.42, 33.1 47.39 C28.28 49.37, 21.06 49.34, 16.1 47.62 C11.13 45.89, 5.93 41.52, 3.31 37.05 C0.68 32.59, -0.48 25.9, 0.35 20.81 C1.17 15.72, 4.44 10.06, 8.24 6.51 C12.04 2.97, 20.7 0.66, 23.13 -0.46 C25.57 -1.58, 22.89 -0.79, 22.85 -0.18" stroke="#1e1e1e" stroke-width="2" fill="none"></path></g><g transform="translate(568.3211039976625 380.6758838609296) rotate(0 2.7083332538604736 12.5)"><text x="2.7083332538604736" y="17.52" font-family="Virgil, Segoe UI Emoji" font-size="20px" fill="#1e1e1e" text-anchor="middle" style="white-space: pre;" direction="ltr" dominant-baseline="alphabetic">1</text></g><g stroke-linecap="round" transform="translate(141 255.5) rotate(0 24 24.5)"><path d="M19.26 0.6 C24.12 -0.74, 31.16 0.75, 35.72 3.26 C40.27 5.76, 44.81 10.82, 46.58 15.65 C48.34 20.48, 47.9 27.34, 46.29 32.23 C44.67 37.13, 41.2 42.32, 36.88 45.03 C32.56 47.73, 25.55 49.21, 20.37 48.46 C15.19 47.7, 9.19 44.31, 5.8 40.5 C2.4 36.69, 0.18 30.82, 0 25.6 C-0.18 20.39, 1.36 13.4, 4.72 9.19 C8.07 4.98, 17.51 1.72, 20.12 0.34 C22.72 -1.04, 20.28 0.5, 20.36 0.93 M21.32 0.02 C26.13 -0.79, 32.96 1.7, 37.28 4.65 C41.61 7.6, 45.87 12.76, 47.27 17.74 C48.67 22.72, 47.88 29.68, 45.66 34.52 C43.44 39.35, 38.6 44.45, 33.95 46.75 C29.3 49.06, 22.64 49.75, 17.77 48.36 C12.9 46.97, 7.76 42.83, 4.73 38.43 C1.71 34.03, -0.64 27.25, -0.39 21.96 C-0.13 16.68, 2.46 10.36, 6.28 6.72 C10.1 3.08, 19.98 1.07, 22.55 0.1 C25.12 -0.86, 21.78 0.41, 21.7 0.94" stroke="#1e1e1e" stroke-width="2" fill="none"></path></g><g transform="translate(158.22110385461121 267.67588386092956) rotate(0 6.808333396911621 12.500000000000028)"><text x="6.808333396911621" y="17.52" font-family="Virgil, Segoe UI Emoji" font-size="20px" fill="#1e1e1e" text-anchor="middle" style="white-space: pre;" direction="ltr" dominant-baseline="alphabetic">3</text></g><g stroke-linecap="round" transform="translate(269 416.5) rotate(0 24 24.5)"><path d="M28.04 -0.18 C32.87 0.32, 38.93 4.75, 42.2 8.79 C45.48 12.82, 47.65 18.87, 47.67 24.03 C47.69 29.18, 45.55 35.64, 42.31 39.73 C39.06 43.81, 33.13 47.61, 28.2 48.56 C23.26 49.51, 17.13 47.91, 12.67 45.42 C8.21 42.93, 3.34 38.42, 1.45 33.6 C-0.45 28.77, -0.45 21.39, 1.29 16.45 C3.02 11.5, 7.24 6.6, 11.88 3.92 C16.51 1.23, 26.12 0.73, 29.11 0.35 C32.09 -0.03, 29.95 1.21, 29.78 1.64 M20.41 0.1 C25.13 -0.96, 32.12 0.68, 36.54 3.49 C40.96 6.29, 45.3 11.8, 46.94 16.9 C48.58 22, 48.38 29.29, 46.39 34.09 C44.4 38.89, 39.65 43.42, 34.99 45.7 C30.33 47.98, 23.51 48.67, 18.43 47.76 C13.35 46.86, 7.59 44.31, 4.52 40.25 C1.45 36.19, -0.32 28.76, 0.02 23.4 C0.36 18.04, 2.99 11.88, 6.57 8.09 C10.14 4.3, 19.14 1.79, 21.46 0.65 C23.78 -0.48, 20.45 1.06, 20.47 1.3" stroke="#1e1e1e" stroke-width="2" fill="none"></path></g><g transform="translate(281.8044368700531 428.6758838609296) rotate(0 11.225000381469727 12.5)"><text x="11.225000381469727" y="17.52" font-family="Virgil, Segoe UI Emoji" font-size="20px" fill="#1e1e1e" text-anchor="middle" style="white-space: pre;" direction="ltr" dominant-baseline="alphabetic">-2</text></g><g stroke-linecap="round" transform="translate(10 421.5) rotate(0 24 24.5)"><path d="M24.16 -0.28 C28.95 -0.52, 35.47 2.11, 39.39 5.65 C43.31 9.19, 46.88 15.74, 47.68 20.95 C48.47 26.16, 46.73 32.47, 44.17 36.91 C41.61 41.35, 37.11 45.8, 32.33 47.57 C27.56 49.35, 20.32 49.39, 15.52 47.56 C10.72 45.74, 6.08 41.25, 3.53 36.62 C0.98 31.99, -0.7 25.02, 0.24 19.79 C1.18 14.55, 5.1 8.54, 9.18 5.2 C13.25 1.86, 21.99 0.51, 24.68 -0.26 C27.37 -1.03, 25.35 0.15, 25.32 0.59 M21.9 0.25 C26.85 -0.52, 34.05 1.37, 38.19 4.29 C42.33 7.21, 45.6 12.74, 46.74 17.76 C47.88 22.78, 47.02 29.6, 45.02 34.43 C43.03 39.26, 39.37 44.41, 34.78 46.75 C30.2 49.09, 22.61 49.75, 17.53 48.49 C12.45 47.23, 7.16 43.61, 4.32 39.19 C1.49 34.76, -0.03 27.19, 0.53 21.92 C1.09 16.66, 4.2 11.28, 7.68 7.6 C11.17 3.91, 19.04 1.07, 21.44 -0.2 C23.85 -1.46, 22.06 -0.49, 22.12 0.02" stroke="#1e1e1e" stroke-width="2" fill="none"></path></g><g transform="translate(27.221103854611215 433.6758838609296) rotate(0 6.808333396911621 12.5)"><text x="6.808333396911621" y="17.52" font-family="Virgil, Segoe UI Emoji" font-size="20px" fill="#1e1e1e" text-anchor="middle" style="white-space: pre;" direction="ltr" dominant-baseline="alphabetic">3</text></g><g stroke-linecap="round"><g transform="translate(418.00018674741216 60.999856826984) rotate(0 -45.00019574079067 34.5001500679395)"><path d="M-0.79 -0.36 C-15.91 10.92, -75.69 56.79, -90.68 68.35 M1 -1.6 C-13.74 9.77, -72.85 57.56, -88.32 69.54" stroke="#1e1e1e" stroke-width="2" fill="none"></path></g></g><mask></mask><g stroke-linecap="round"><g transform="translate(282 176) rotate(0 -45.5 41)"><path d="M-0.53 0.39 C-15.77 14.06, -77 68.54, -92.19 82.18 M1.39 -0.45 C-13.44 13.43, -75.01 69.8, -90.11 83.81" stroke="#1e1e1e" stroke-width="2" fill="none"></path></g></g><mask></mask><g stroke-linecap="round"><g transform="translate(141 306) rotate(0 -45.5 57)"><path d="M-0.4 0.33 C-15.65 19.32, -76.53 94.82, -91.67 113.86 M1.58 -0.55 C-13.26 18.65, -73.7 96.48, -89.31 115.32" stroke="#1e1e1e" stroke-width="2" fill="none"></path></g></g><mask></mask><g stroke-linecap="round"><g transform="translate(187 301) rotate(0 44 57)"><path d="M0.96 -0.29 C15.59 18.55, 73.75 94.53, 88.34 113.6 M0 -1.49 C14.46 17.47, 72.9 95.42, 87.58 114.93" stroke="#1e1e1e" stroke-width="2" fill="none"></path></g></g><mask></mask><g stroke-linecap="round"><g transform="translate(327 163) rotate(0 36 40.5)"><path d="M0.26 -0.29 C12.22 13.32, 60.04 67.5, 72.15 81.23 M-1.06 -1.49 C10.72 11.78, 59 65.59, 71.28 79.23" stroke="#1e1e1e" stroke-width="2" fill="none"></path></g></g><mask></mask><g stroke-linecap="round"><g transform="translate(439 291) rotate(0 54 42.5)"><path d="M-1.11 0.06 C16.92 14.3, 89.48 71.47, 107.52 85.74 M0.51 -0.95 C18.4 12.92, 88.14 69.9, 106.33 84.01" stroke="#1e1e1e" stroke-width="2" fill="none"></path></g></g><mask></mask><g stroke-linecap="round"><g transform="translate(457.99989715950824 49.01578437114449) rotate(0 44.50013279294694 41.49218368680937)"><path d="M0.7 -0.88 C15.46 13.02, 74.27 69.27, 89.13 83.43 M-0.39 1.27 C14.17 14.8, 73.27 68.04, 88.25 81.54" stroke="#1e1e1e" stroke-width="2" fill="none"></path></g></g><mask></mask><g stroke-linecap="round"><g transform="translate(595 161) rotate(0 51.5 34)"><path d="M-0.4 1.1 C16.78 12.65, 86.11 57.3, 103.22 68.55 M1.59 0.63 C18.61 11.9, 85.2 55.72, 102.38 66.72" stroke="#1e1e1e" stroke-width="2" fill="none"></path></g></g><mask></mask></svg>
