<svg version="1.1" xmlns="http://www.w3.org/2000/svg" viewBox="0 0 1381.5 766.2065217391304" width="1381.5" height="766.2065217391304">
  <!-- svg-source:excalidraw -->

  <defs>
    <style class="style-fonts">
      @font-face {
        font-family: "Virgil";
        src: url("https://excalidraw.com/Virgil.woff2");
      }
      @font-face {
        font-family: "Cascadia";
        src: url("https://excalidraw.com/Cascadia.woff2");
      }
      @font-face {
        font-family: "Assistant";
        src: url("https://excalidraw.com/Assistant-Regular.woff2");
      }
    </style>

  </defs>
  <rect x="0" y="0" width="1381.5" height="766.2065217391304" fill="#ffffff"></rect><g stroke-linecap="round" transform="translate(286 46.5) rotate(0 29.5 28.5)"><path d="M20.25 1.6 C25.99 -0.7, 35.42 -0.32, 41.31 1.99 C47.2 4.3, 52.6 9.98, 55.6 15.47 C58.6 20.95, 60.65 28.99, 59.29 34.89 C57.93 40.79, 52.47 47.18, 47.43 50.89 C42.39 54.59, 35.23 57.27, 29.03 57.1 C22.82 56.93, 14.96 53.96, 10.19 49.87 C5.43 45.78, 1.47 38.54, 0.43 32.57 C-0.6 26.6, -0.44 19.38, 3.98 14.07 C8.4 8.76, 22.07 2.78, 26.97 0.69 C31.87 -1.4, 33.31 1.11, 33.37 1.53 M33.14 0.63 C39.15 0.71, 46.3 3.38, 50.72 7.77 C55.13 12.16, 59.07 20.87, 59.62 26.96 C60.17 33.06, 57.67 39.55, 54.01 44.33 C50.36 49.11, 43.88 54.18, 37.7 55.65 C31.53 57.12, 23.01 55.9, 16.97 53.13 C10.92 50.37, 4.31 44.58, 1.45 39.06 C-1.4 33.54, -1.97 25.52, -0.16 20.04 C1.64 14.55, 6.73 9.25, 12.28 6.15 C17.84 3.05, 30.06 2.34, 33.17 1.43 C36.27 0.52, 31.15 0.55, 30.93 0.67" stroke="#1e1e1e" stroke-width="2" fill="none"></path></g><g transform="translate(308.9736834472759 62.3474567361834) rotate(0 6.666666507720947 12.5)"><text x="6.666666507720947" y="17.52" font-family="Virgil, Segoe UI Emoji" font-size="20px" fill="#1e1e1e" text-anchor="middle" style="white-space: pre;" direction="ltr" dominant-baseline="alphabetic">a</text></g><g stroke-linecap="round" transform="translate(114 167.5) rotate(0 29.5 28.5)"><path d="M42.4 3.57 C48.1 5.62, 54.21 10.66, 56.81 16.11 C59.4 21.57, 59.71 30.28, 58 36.3 C56.29 42.31, 51.71 48.73, 46.55 52.18 C41.4 55.64, 33.38 57.68, 27.06 57.02 C20.74 56.36, 13.04 52.57, 8.64 48.23 C4.25 43.88, 1.14 37.02, 0.69 30.93 C0.23 24.85, 2.28 16.67, 5.91 11.69 C9.55 6.71, 15.77 2.14, 22.49 1.04 C29.21 -0.07, 41.8 3.89, 46.26 5.05 C50.72 6.22, 49.48 7.61, 49.24 8.02 M31.1 0.57 C37.12 0.44, 43.9 4.19, 48.42 8.22 C52.94 12.25, 57.4 19.07, 58.24 24.77 C59.09 30.47, 56.95 37.49, 53.48 42.42 C50.02 47.35, 43.43 52.34, 37.47 54.33 C31.51 56.32, 23.19 56.29, 17.72 54.34 C12.25 52.39, 7.29 48.17, 4.66 42.64 C2.03 37.11, 0.83 27.3, 1.93 21.16 C3.03 15.02, 6.66 9.37, 11.28 5.8 C15.91 2.22, 26.71 0.51, 29.69 -0.29 C32.66 -1.08, 29.09 0.48, 29.12 1.04" stroke="#1e1e1e" stroke-width="2" fill="none"></path></g><g transform="translate(138.5570164627178 183.3474567361834) rotate(0 5.083333492279053 12.5)"><text x="5.083333492279053" y="17.52" font-family="Virgil, Segoe UI Emoji" font-size="20px" fill="#1e1e1e" text-anchor="middle" style="white-space: pre;" direction="ltr" dominant-baseline="alphabetic">b</text></g><g stroke-linecap="round" transform="translate(188 322.5) rotate(0 29.5 28.5)"><path d="M38.33 1.29 C44.3 2.61, 51.02 7.82, 54.45 12.89 C57.89 17.97, 59.79 25.58, 58.94 31.73 C58.09 37.87, 53.98 45.45, 49.36 49.76 C44.74 54.06, 37.54 57.15, 31.22 57.54 C24.91 57.92, 16.52 55.73, 11.47 52.05 C6.41 48.36, 2.23 41.47, 0.87 35.44 C-0.49 29.4, 0.49 21.27, 3.3 15.84 C6.11 10.4, 10.67 4.71, 17.73 2.83 C24.8 0.95, 40.22 3.27, 45.7 4.55 C51.18 5.82, 50.89 10.04, 50.63 10.49 M21.98 -0.04 C27.33 -2.04, 35.18 -1.16, 40.67 1.44 C46.16 4.04, 52.11 9.66, 54.91 15.57 C57.7 21.49, 58.71 30.69, 57.44 36.93 C56.17 43.18, 52.58 49.73, 47.28 53.05 C41.98 56.38, 32.1 57.72, 25.64 56.87 C19.17 56.02, 12.79 52.46, 8.49 47.94 C4.18 43.42, 0.29 35.8, -0.18 29.76 C-0.64 23.72, 2.02 16.44, 5.71 11.7 C9.39 6.97, 19.34 2.8, 21.92 1.35 C24.5 -0.1, 21.27 2.54, 21.19 3" stroke="#1e1e1e" stroke-width="2" fill="none"></path></g><g transform="translate(211.94868335190847 338.3474567361834) rotate(0 5.691666603088379 12.5)"><text x="5.691666603088379" y="17.52" font-family="Virgil, Segoe UI Emoji" font-size="20px" fill="#1e1e1e" text-anchor="middle" style="white-space: pre;" direction="ltr" dominant-baseline="alphabetic">d</text></g><g stroke-linecap="round" transform="translate(10 328.5) rotate(0 29.5 28.5)"><path d="M34.56 -0.02 C40.61 0.59, 48.47 5.41, 52.64 10.07 C56.81 14.74, 59.56 21.84, 59.59 27.97 C59.61 34.1, 56.88 42.04, 52.78 46.84 C48.67 51.64, 41.29 55.7, 34.97 56.76 C28.65 57.82, 20.31 56.22, 14.86 53.19 C9.41 50.17, 4.44 44.45, 2.27 38.62 C0.1 32.8, -0.32 23.98, 1.83 18.25 C3.98 12.52, 8.81 7.09, 15.17 4.24 C21.53 1.4, 35.07 1.23, 39.98 1.19 C44.9 1.16, 44.86 3.63, 44.66 4.05 M17.6 1.52 C23.41 -0.67, 33.35 0.37, 39.71 2.1 C46.07 3.82, 52.59 6.87, 55.75 11.87 C58.91 16.87, 59.9 25.86, 58.69 32.1 C57.49 38.34, 53.41 45.09, 48.5 49.31 C43.6 53.53, 35.54 57.12, 29.27 57.44 C23 57.75, 15.57 55.16, 10.86 51.22 C6.15 47.29, 2.01 40.02, 1.01 33.84 C0 27.66, 1.89 19.27, 4.84 14.14 C7.8 9.01, 16.6 4.88, 18.72 3.09 C20.84 1.29, 17.51 3.28, 17.58 3.36" stroke="#1e1e1e" stroke-width="2" fill="none"></path></g><g transform="translate(34.623683065806176 344.3474567361834) rotate(0 5.016666889190674 12.5)"><text x="5.016666889190674" y="17.52" font-family="Virgil, Segoe UI Emoji" font-size="20px" fill="#1e1e1e" text-anchor="middle" style="white-space: pre;" direction="ltr" dominant-baseline="alphabetic">c</text></g><g stroke-linecap="round" transform="translate(250 459.5) rotate(0 29.5 28.5)"><path d="M37.39 1.81 C43.28 3.06, 50.55 8.06, 54.15 13.06 C57.76 18.05, 59.74 25.68, 59.01 31.78 C58.28 37.88, 54.36 45.43, 49.8 49.64 C45.24 53.84, 38.03 56.64, 31.64 57.01 C25.24 57.39, 16.48 55.46, 11.41 51.88 C6.34 48.3, 2.69 41.45, 1.22 35.53 C-0.26 29.62, -0.14 21.9, 2.56 16.4 C5.26 10.91, 11.21 5.06, 17.42 2.54 C23.62 0.02, 35.68 1.22, 39.77 1.27 C43.85 1.31, 42.07 2.3, 41.92 2.81 M39.51 2.2 C45.02 3.76, 52.41 9.46, 55.49 14.67 C58.56 19.88, 59.25 27.47, 57.96 33.47 C56.67 39.46, 52.73 46.67, 47.78 50.65 C42.82 54.62, 34.74 57.27, 28.24 57.3 C21.74 57.34, 13.6 54.99, 8.76 50.84 C3.91 46.69, -0.33 38.89, -0.84 32.42 C-1.35 25.96, 1.96 17.3, 5.68 12.05 C9.41 6.8, 15.83 2.6, 21.51 0.94 C27.19 -0.73, 36.58 1.71, 39.76 2.06 C42.94 2.42, 40.51 2.61, 40.59 3.07" stroke="#1e1e1e" stroke-width="2" fill="none"></path></g><g transform="translate(274.17368325654104 475.3474567361834) rotate(0 5.4666666984558105 12.5)"><text x="5.4666666984558105" y="17.52" font-family="Virgil, Segoe UI Emoji" font-size="20px" fill="#1e1e1e" text-anchor="middle" style="white-space: pre;" direction="ltr" dominant-baseline="alphabetic">e</text></g><g stroke-linecap="round" transform="translate(286 579.5) rotate(0 29.5 28.5)"><path d="M30.45 0 C36.49 -0.17, 44.88 3.58, 49.6 7.55 C54.32 11.52, 57.85 17.79, 58.76 23.84 C59.67 29.9, 58.33 38.68, 55.06 43.88 C51.79 49.08, 45.1 53.23, 39.13 55.03 C33.15 56.82, 25.1 56.95, 19.2 54.67 C13.29 52.38, 6.92 46.76, 3.7 41.31 C0.47 35.85, -1.27 27.88, -0.16 21.94 C0.95 15.99, 4.54 9.06, 10.38 5.63 C16.21 2.2, 29.87 1.74, 34.84 1.34 C39.82 0.94, 40.41 2.91, 40.22 3.24 M25.59 0.56 C31.58 -0.22, 40.42 2.05, 45.88 5.37 C51.34 8.69, 56.38 14.78, 58.34 20.46 C60.31 26.15, 60.34 33.69, 57.66 39.5 C54.99 45.31, 48.45 52.44, 42.31 55.31 C36.18 58.19, 27.06 58.68, 20.84 56.73 C14.62 54.79, 8.47 48.78, 4.99 43.64 C1.5 38.49, -0.72 31.67, -0.06 25.86 C0.61 20.05, 4.47 13.13, 8.97 8.78 C13.48 4.44, 23.78 1.27, 26.96 -0.21 C30.14 -1.69, 27.92 -0.44, 28.05 -0.1" stroke="#1e1e1e" stroke-width="2" fill="none"></path></g><g transform="translate(310.6320167488201 595.3474567361834) rotate(0 5.008333206176758 12.5)"><text x="5.008333206176758" y="17.52" font-family="Virgil, Segoe UI Emoji" font-size="20px" fill="#1e1e1e" text-anchor="middle" style="white-space: pre;" direction="ltr" dominant-baseline="alphabetic">g</text></g><g stroke-linecap="round" transform="translate(151 598.5) rotate(0 29.5 28.5)"><path d="M35.84 1.25 C41.78 2.3, 49.85 6.99, 53.61 11.92 C57.37 16.85, 58.92 24.79, 58.41 30.85 C57.91 36.91, 54.96 44.09, 50.59 48.29 C46.21 52.49, 38.5 55.52, 32.14 56.04 C25.78 56.56, 17.68 54.73, 12.44 51.42 C7.2 48.12, 2.25 41.83, 0.71 36.2 C-0.82 30.57, 0.5 23.32, 3.24 17.63 C5.99 11.93, 11.01 4.67, 17.2 2.03 C23.38 -0.6, 35.99 1.49, 40.34 1.83 C44.68 2.16, 43.61 3.52, 43.28 4.04 M23.27 1.95 C28.89 0.51, 37.01 1.42, 42.81 3.99 C48.6 6.56, 55.5 11.78, 58.04 17.37 C60.59 22.96, 60.51 31.62, 58.08 37.53 C55.64 43.43, 49 49.57, 43.43 52.8 C37.86 56.04, 30.63 57.89, 24.66 56.95 C18.7 56.01, 11.8 51.64, 7.63 47.14 C3.47 42.64, -0.02 35.97, -0.32 29.95 C-0.61 23.94, 2 16.15, 5.86 11.03 C9.73 5.91, 19.89 0.94, 22.87 -0.75 C25.86 -2.45, 23.62 0.37, 23.78 0.87" stroke="#1e1e1e" stroke-width="2" fill="none"></path></g><g transform="translate(175.78201684418752 614.3474567361834) rotate(0 4.858333110809326 12.5)"><text x="4.858333110809326" y="17.52" font-family="Virgil, Segoe UI Emoji" font-size="20px" fill="#1e1e1e" text-anchor="middle" style="white-space: pre;" direction="ltr" dominant-baseline="alphabetic">f</text></g><g stroke-linecap="round" transform="translate(335 693.5) rotate(0 29.5 28.5)"><path d="M35.96 0.25 C41.89 1.02, 49.03 5.34, 52.74 10.04 C56.45 14.73, 58.54 22.3, 58.22 28.43 C57.89 34.57, 54.89 42.02, 50.77 46.86 C46.65 51.7, 39.53 56.34, 33.5 57.48 C27.47 58.62, 20.09 57, 14.61 53.68 C9.12 50.36, 2.7 43.57, 0.58 37.55 C-1.55 31.53, -0.57 23.37, 1.87 17.54 C4.3 11.71, 8.87 5.26, 15.19 2.56 C21.52 -0.15, 35.12 1.05, 39.81 1.31 C44.49 1.57, 43.59 3.44, 43.3 4.11 M18.18 2.51 C23.56 -0.22, 32.93 -1.45, 39.02 0.45 C45.12 2.35, 51.44 8.38, 54.75 13.91 C58.07 19.45, 59.92 27.68, 58.91 33.67 C57.89 39.66, 53.34 46.1, 48.66 49.86 C43.97 53.62, 37.02 56.31, 30.79 56.23 C24.56 56.15, 16.52 53.2, 11.26 49.4 C6 45.59, 0.5 39.33, -0.77 33.39 C-2.04 27.45, 0.49 18.83, 3.63 13.76 C6.78 8.7, 15.3 4.7, 18.11 2.98 C20.92 1.25, 20.26 3.31, 20.49 3.41" stroke="#1e1e1e" stroke-width="2" fill="none"></path></g><g transform="translate(359.69868335190847 709.3474567361834) rotate(0 4.941666603088379 12.5)"><text x="4.941666603088379" y="17.52" font-family="Virgil, Segoe UI Emoji" font-size="20px" fill="#1e1e1e" text-anchor="middle" style="white-space: pre;" direction="ltr" dominant-baseline="alphabetic">h</text></g><g stroke-linecap="round" transform="translate(498 150.5) rotate(0 29.5 28.5)"><path d="M31.27 -0.74 C37.31 -0.54, 45.1 3.4, 49.84 7.94 C54.58 12.47, 58.9 20.49, 59.68 26.48 C60.47 32.47, 58.3 38.97, 54.54 43.87 C50.78 48.76, 43.47 54.14, 37.14 55.85 C30.8 57.56, 22.39 56.63, 16.51 54.14 C10.63 51.64, 4.51 46.35, 1.86 40.87 C-0.79 35.39, -1.2 27.31, 0.62 21.28 C2.44 15.25, 6.76 8.27, 12.78 4.71 C18.81 1.15, 32.31 0.25, 36.76 -0.06 C41.22 -0.37, 39.88 2.19, 39.51 2.86 M26.11 0.49 C32.31 -0.49, 41.07 1.28, 46.3 4.78 C51.53 8.29, 55.91 15.57, 57.49 21.52 C59.06 27.47, 58.42 35.26, 55.75 40.47 C53.09 45.67, 47.09 50.19, 41.51 52.78 C35.92 55.37, 28.32 57.41, 22.24 56 C16.17 54.59, 8.55 49.02, 5.05 44.32 C1.54 39.62, 0.54 33.83, 1.23 27.8 C1.93 21.76, 5.21 12.87, 9.23 8.13 C13.26 3.38, 22.31 0.52, 25.39 -0.68 C28.47 -1.88, 27.72 0.38, 27.73 0.92" stroke="#1e1e1e" stroke-width="2" fill="none"></path></g><g transform="translate(525.4486833519085 166.3474567361834) rotate(0 2.191666603088379 12.5)"><text x="2.191666603088379" y="17.52" font-family="Virgil, Segoe UI Emoji" font-size="20px" fill="#1e1e1e" text-anchor="middle" style="white-space: pre;" direction="ltr" dominant-baseline="alphabetic">i</text></g><g stroke-linecap="round" transform="translate(444 277.5) rotate(0 29.5 28.5)"><path d="M22.67 1.75 C28.3 -0.18, 35.72 0.37, 41.3 2.78 C46.89 5.19, 53.47 10.79, 56.2 16.2 C58.93 21.61, 59.33 29.36, 57.71 35.27 C56.08 41.18, 51.62 48.01, 46.45 51.65 C41.29 55.28, 33.15 57.46, 26.74 57.09 C20.32 56.71, 12.51 53.75, 7.95 49.39 C3.39 45.02, -0.33 37.27, -0.63 30.91 C-0.93 24.56, 2.08 16.32, 6.17 11.23 C10.27 6.14, 20.96 2.12, 23.95 0.38 C26.93 -1.36, 24.07 0.28, 24.08 0.82 M34.99 -0.44 C41.07 -0.06, 48.39 3.93, 52.18 8.59 C55.97 13.26, 57.71 21.37, 57.73 27.55 C57.76 33.72, 56.25 40.6, 52.33 45.61 C48.42 50.63, 40.21 56.12, 34.23 57.62 C28.25 59.11, 21.94 57.85, 16.46 54.58 C10.97 51.32, 3.95 43.65, 1.32 38.02 C-1.31 32.39, -1.47 26.63, 0.7 20.8 C2.87 14.97, 8.88 6.61, 14.34 3.04 C19.79 -0.54, 30.19 -0.11, 33.45 -0.66 C36.71 -1.21, 34.02 -1.15, 33.89 -0.27" stroke="#1e1e1e" stroke-width="2" fill="none"></path></g><g transform="translate(470.35701665345266 293.3474567361834) rotate(0 3.2833333015441895 12.5)"><text x="3.2833333015441895" y="17.52" font-family="Virgil, Segoe UI Emoji" font-size="20px" fill="#1e1e1e" text-anchor="middle" style="white-space: pre;" direction="ltr" dominant-baseline="alphabetic">j</text></g><g stroke-linecap="round" transform="translate(375 408.5) rotate(0 29.5 28.5)"><path d="M15.34 3.02 C20.34 0.1, 28.78 -0.4, 34.98 0.98 C41.17 2.36, 48.49 6.57, 52.53 11.29 C56.56 16, 59.25 23.33, 59.2 29.29 C59.14 35.25, 56.48 42.36, 52.21 47.04 C47.94 51.73, 40.13 56.41, 33.6 57.4 C27.06 58.4, 18.39 56.53, 12.98 53.01 C7.58 49.49, 2.95 42.19, 1.14 36.28 C-0.67 30.36, -1.64 23.4, 2.13 17.5 C5.9 11.6, 18.85 3.73, 23.78 0.88 C28.7 -1.96, 31.49 0.11, 31.67 0.43 M34.41 0.25 C40.45 0.95, 47.16 4.27, 51.46 9.17 C55.75 14.08, 59.9 23.52, 60.17 29.69 C60.45 35.86, 57.54 41.84, 53.12 46.18 C48.71 50.52, 39.86 54.54, 33.69 55.73 C27.52 56.92, 21.61 56.33, 16.1 53.32 C10.59 50.31, 3.18 43.44, 0.63 37.67 C-1.91 31.9, -1.35 24.49, 0.82 18.71 C2.99 12.92, 7.76 5.98, 13.66 2.94 C19.56 -0.11, 32.5 0.75, 36.19 0.43 C39.88 0.11, 36.16 0.66, 35.82 1.01" stroke="#1e1e1e" stroke-width="2" fill="none"></path></g><g transform="translate(399.7736831611736 424.3474567361834) rotate(0 4.866666793823242 12.5)"><text x="4.866666793823242" y="17.52" font-family="Virgil, Segoe UI Emoji" font-size="20px" fill="#1e1e1e" text-anchor="middle" style="white-space: pre;" direction="ltr" dominant-baseline="alphabetic">k</text></g><g stroke-linecap="round" transform="translate(524 426.5) rotate(0 29.5 28.5)"><path d="M16.65 3.13 C21.75 0.48, 30.13 0.32, 36.12 1.79 C42.12 3.26, 48.71 7.29, 52.62 11.95 C56.53 16.61, 59.81 23.76, 59.58 29.77 C59.35 35.78, 55.86 43.54, 51.24 48.04 C46.61 52.53, 38.23 56, 31.85 56.72 C25.47 57.45, 18.03 55.75, 12.96 52.37 C7.9 48.98, 3.24 42.2, 1.46 36.41 C-0.31 30.63, -0.54 23.36, 2.31 17.65 C5.17 11.95, 15.44 5.01, 18.6 2.18 C21.75 -0.64, 21 0.34, 21.22 0.7 M23.85 1.84 C29.67 -0.18, 36.76 -0.6, 42.08 2.2 C47.4 5.01, 53.11 13.11, 55.75 18.67 C58.39 24.24, 59.68 30.15, 57.92 35.6 C56.16 41.04, 50.48 48, 45.17 51.35 C39.86 54.69, 32.39 55.95, 26.06 55.64 C19.73 55.34, 11.51 53.57, 7.17 49.52 C2.83 45.46, 0.25 37.68, 0.03 31.33 C-0.18 24.99, 2.2 16.28, 5.87 11.43 C9.54 6.57, 19 3.79, 22.06 2.2 C25.12 0.62, 23.99 1.89, 24.21 1.89" stroke="#1e1e1e" stroke-width="2" fill="none"></path></g><g transform="translate(551.0070165104015 442.3474567361834) rotate(0 2.633333444595337 12.5)"><text x="2.633333444595337" y="17.52" font-family="Virgil, Segoe UI Emoji" font-size="20px" fill="#1e1e1e" text-anchor="middle" style="white-space: pre;" direction="ltr" dominant-baseline="alphabetic">l</text></g><g stroke-linecap="round" transform="translate(471 567.5) rotate(0 29.5 28.5)"><path d="M23.05 1.39 C28.55 -0.08, 36.62 1.03, 42.18 3.56 C47.74 6.08, 53.84 11, 56.41 16.52 C58.98 22.04, 59.38 30.66, 57.61 36.69 C55.85 42.72, 51.1 49.36, 45.83 52.67 C40.55 55.99, 32.16 57.45, 25.97 56.58 C19.77 55.71, 12.92 52.01, 8.66 47.46 C4.4 42.92, 1 35.37, 0.4 29.32 C-0.2 23.28, 0.52 16.15, 5.06 11.2 C9.61 6.24, 23.18 1.19, 27.69 -0.42 C32.19 -2.03, 31.93 0.86, 32.1 1.54 M24.11 0.94 C29.82 -0.69, 36.37 -0.19, 41.61 2.53 C46.86 5.24, 53.1 11.68, 55.59 17.23 C58.09 22.78, 58 29.98, 56.6 35.82 C55.2 41.67, 52.09 48.79, 47.21 52.29 C42.32 55.79, 33.83 57.63, 27.3 56.81 C20.77 56, 12.33 51.6, 8.03 47.39 C3.73 43.17, 1.77 37.49, 1.5 31.5 C1.23 25.51, 3.1 16.35, 6.41 11.44 C9.72 6.54, 18.81 3.95, 21.36 2.09 C23.9 0.23, 21.32 0.29, 21.7 0.29" stroke="#1e1e1e" stroke-width="2" fill="none"></path></g><g transform="translate(494.3070164627178 583.3474567361834) rotate(0 6.333333492279053 12.5)"><text x="6.333333492279053" y="17.52" font-family="Virgil, Segoe UI Emoji" font-size="20px" fill="#1e1e1e" text-anchor="middle" style="white-space: pre;" direction="ltr" dominant-baseline="alphabetic">m</text></g><g stroke-linecap="round"><g transform="translate(286.57022766349655 93.41677633293602) rotate(0 -56.983428178519034 41.07613472860143)"><path d="M-0.86 0.3 C-19.63 13.66, -94.43 67.76, -113.19 81.36 M0.89 -0.59 C-17.92 13.42, -94.6 68.53, -113.73 82.48" stroke="#1e1e1e" stroke-width="2" fill="none"></path></g></g><mask></mask><g stroke-linecap="round"><g transform="translate(121.5 229) rotate(0 -30.5 48.5)"><path d="M0.25 -0.26 C-9.79 16.14, -49.68 81.37, -59.99 97.44 M-1.07 -1.45 C-11.21 14.68, -50.14 79.14, -60.42 95.55" stroke="#1e1e1e" stroke-width="2" fill="none"></path></g></g><mask></mask><g stroke-linecap="round"><g transform="translate(158.5 226) rotate(0 20 44)"><path d="M0.73 -0.37 C7.4 14.48, 34.06 74.43, 40.42 89.18 M-0.35 -1.6 C6.17 12.93, 32.76 72.48, 39.69 87.68" stroke="#1e1e1e" stroke-width="2" fill="none"></path></g></g><mask></mask><g stroke-linecap="round"><g transform="translate(232.4998580919589 380.99965256996825) rotate(0 14.557303719055255 35.972706959341735)"><path d="M0.65 1.19 C5.83 12.88, 25.11 59.54, 29.99 71.28 M-0.47 0.76 C4.73 13.12, 24.49 60.47, 29.5 72.47" stroke="#1e1e1e" stroke-width="2" fill="none"></path></g></g><mask></mask><g stroke-linecap="round"><g transform="translate(254.42430949209438 507.91020915071556) rotate(0 -24.919905083011827 44.07671726769718)"><path d="M-0.8 0.43 C-9.25 15.05, -41.58 73.18, -49.85 87.82 M0.99 -0.4 C-7.7 14.4, -42.06 74.17, -50.81 89.19" stroke="#1e1e1e" stroke-width="2" fill="none"></path></g></g><mask></mask><g stroke-linecap="round"><g transform="translate(292.4999127498172 519.9996759278927) rotate(0 6.947030276674127 25.512589100832088)"><path d="M-0.84 -0.11 C1.39 8.3, 11.18 41.95, 13.5 50.67 M0.92 -1.22 C2.94 7.35, 9.91 43.41, 12.35 52.02" stroke="#1e1e1e" stroke-width="2" fill="none"></path></g></g><mask></mask><g stroke-linecap="round"><g transform="translate(333.1701757492226 638.7581768778352) rotate(0 7.971597763340242 23.77012084918863)"><path d="M-0.91 0.54 C2.07 8.38, 14.04 40.41, 16.7 48.12 M0.81 -0.22 C3.8 7.78, 13.37 38.31, 16.15 46.3" stroke="#1e1e1e" stroke-width="2" fill="none"></path></g></g><mask></mask><g stroke-linecap="round"><g transform="translate(350.0293950966477 90.9544955017848) rotate(0 73.86683434339568 32.458914768136864)"><path d="M-0.41 1.11 C24.22 11.98, 123.33 54.58, 147.87 65.19 M1.57 0.64 C26.06 11.14, 122.38 52.31, 146.99 63.2" stroke="#1e1e1e" stroke-width="2" fill="none"></path></g></g><mask></mask><g stroke-linecap="round"><g transform="translate(507.664057313119 208.10550960873786) rotate(0 -10.16338236395552 30.418419562917478)"><path d="M0.75 -0.22 C-2.62 9.74, -17.78 50.01, -21.27 60.09 M-0.32 -1.38 C-3.22 8.69, -15.62 50.79, -19.05 61.24" stroke="#1e1e1e" stroke-width="2" fill="none"></path></g></g><mask></mask><g stroke-linecap="round"><g transform="translate(467.50002260257065 335.99996489387956) rotate(0 -23.500100778271644 36.50015652795389)"><path d="M1.06 0.67 C-6.58 13.02, -38.05 61.8, -45.9 74 M0.16 -0.02 C-7.55 12.02, -38.52 60.39, -46.27 72.4" stroke="#1e1e1e" stroke-width="2" fill="none"></path></g></g><mask></mask><g stroke-linecap="round"><g transform="translate(493.49950978512936 339.9992929593213) rotate(0 26.000300568691216 37.50043351253524)"><path d="M-0.26 -0.61 C8.75 11.69, 44.42 61.24, 53.08 73.89 M1.8 1.68 C10.83 14.08, 44.53 62.33, 52.7 74.84" stroke="#1e1e1e" stroke-width="2" fill="none"></path></g></g><mask></mask><g stroke-linecap="round"><g transform="translate(540.5 483) rotate(0 -17 38.5)"><path d="M0.8 -0.3 C-4.9 12.6, -28.45 63.82, -34.11 76.63 M-0.25 -1.5 C-6.11 11.63, -29.58 64.78, -35.12 77.98" stroke="#1e1e1e" stroke-width="2" fill="none"></path></g></g><mask></mask><g stroke-linecap="round" transform="translate(92.5 10) rotate(0 47 20)"><path d="M10 0 C28.64 0.29, 45.49 -0.95, 84 0 M10 0 C35.36 1.08, 61.05 -0.18, 84 0 M84 0 C91.05 0.07, 95.93 2.12, 94 10 M84 0 C91.46 1.22, 95.95 2.25, 94 10 M94 10 C95.79 18.87, 93.8 23.14, 94 30 M94 10 C92.85 13.87, 94.39 17.99, 94 30 M94 30 C92.82 36.55, 91.84 38.36, 84 40 M94 30 C93.76 35.25, 91.41 39.95, 84 40 M84 40 C63.53 40.48, 46.03 39.04, 10 40 M84 40 C61.81 40.31, 39.55 39.65, 10 40 M10 40 C1.95 39.14, 0.02 38.38, 0 30 M10 40 C3.51 39.71, 1.54 34.74, 0 30 M0 30 C0.87 23.58, 1.02 20.08, 0 10 M0 30 C0.29 23.17, 0.09 18.42, 0 10 M0 10 C-1.64 1.46, 4.8 1.61, 10 0 M0 10 C1.09 1.52, 4.42 1.62, 10 0" stroke="#1e1e1e" stroke-width="2" fill="none"></path></g><g transform="translate(128.75 17.5) rotate(0 10.75 12.5)"><text x="10.75" y="17.52" font-family="Virgil, Segoe UI Emoji" font-size="20px" fill="#1e1e1e" text-anchor="middle" style="white-space: pre;" direction="ltr" dominant-baseline="alphabetic">T1</text></g><g stroke-linecap="round" transform="translate(865.0721153846155 47.64414414414415) rotate(0 23.401442307692264 24.5)"><path d="M22.8 -0.16 C27.57 -0.8, 34.17 1.42, 38.01 4.61 C41.86 7.81, 44.83 13.71, 45.88 18.99 C46.94 24.27, 46.66 31.67, 44.34 36.29 C42.01 40.9, 36.63 44.75, 31.94 46.69 C27.24 48.64, 20.8 49.52, 16.15 47.97 C11.49 46.42, 6.64 41.9, 4.01 37.41 C1.38 32.93, -0.18 26.13, 0.37 21.05 C0.92 15.96, 3.53 10.34, 7.32 6.91 C11.1 3.48, 20.33 1.54, 23.08 0.46 C25.84 -0.63, 23.83 0.13, 23.85 0.4 M19.88 0.93 C24.71 -0.23, 31.63 1.06, 35.82 3.64 C40.02 6.23, 43.42 11.59, 45.07 16.44 C46.72 21.28, 47.38 27.76, 45.73 32.74 C44.08 37.72, 39.5 43.69, 35.15 46.31 C30.8 48.93, 24.71 49.48, 19.65 48.48 C14.59 47.48, 8.04 44.42, 4.79 40.32 C1.54 36.21, -0.02 29.22, 0.18 23.85 C0.37 18.47, 2.67 11.93, 5.97 8.04 C9.27 4.15, 17.6 1.78, 19.97 0.49 C22.34 -0.81, 20.2 -0.04, 20.2 0.28" stroke="#1e1e1e" stroke-width="2" fill="none"></path></g><g transform="translate(886.2345725439045 59.82002800507374) rotate(0 2.191666603088379 12.5)"><text x="2.191666603088379" y="17.52" font-family="Virgil, Segoe UI Emoji" font-size="20px" fill="#1e1e1e" text-anchor="middle" style="white-space: pre;" direction="ltr" dominant-baseline="alphabetic">i</text></g><g stroke-linecap="round" transform="translate(822.2355769230769 130.40390390390388) rotate(0 23.401442307692264 24.5)"><path d="M20.93 -0.08 C25.61 -0.69, 32.83 1.92, 36.93 4.88 C41.04 7.83, 44.3 12.65, 45.55 17.65 C46.79 22.65, 46.38 30.09, 44.41 34.88 C42.43 39.67, 38.17 44.23, 33.7 46.4 C29.23 48.57, 22.54 49.13, 17.59 47.91 C12.65 46.69, 6.97 43.25, 4.01 39.08 C1.06 34.91, -0.53 28.23, -0.12 22.9 C0.29 17.58, 2.65 11.01, 6.47 7.13 C10.29 3.25, 19.88 0.78, 22.82 -0.37 C25.77 -1.53, 24.09 -0.33, 24.15 0.19 M27.5 0.65 C32.19 1.2, 38.72 4.69, 41.96 8.82 C45.2 12.96, 47.02 20.18, 46.94 25.45 C46.87 30.72, 44.91 36.54, 41.49 40.44 C38.08 44.34, 31.45 48.1, 26.46 48.85 C21.47 49.61, 15.66 47.8, 11.53 44.97 C7.41 42.14, 3.28 36.71, 1.7 31.86 C0.12 27.01, 0.24 20.76, 2.08 15.86 C3.91 10.97, 8.4 5.16, 12.72 2.52 C17.03 -0.12, 25.43 0.25, 27.96 0.03 C30.5 -0.18, 27.93 0.78, 27.93 1.22" stroke="#1e1e1e" stroke-width="2" fill="none"></path></g><g transform="translate(842.3063673839101 142.57978776483344) rotate(0 3.2833333015441895 12.5)"><text x="3.2833333015441895" y="17.52" font-family="Virgil, Segoe UI Emoji" font-size="20px" fill="#1e1e1e" text-anchor="middle" style="white-space: pre;" direction="ltr" dominant-baseline="alphabetic">j</text></g><g stroke-linecap="round" transform="translate(767.5 215.77027027027026) rotate(0 23.401442307692264 24.5)"><path d="M20.81 -0.33 C25.46 -1.16, 32.24 1.44, 36.49 4.46 C40.74 7.48, 44.92 12.77, 46.31 17.78 C47.7 22.78, 47.03 29.58, 44.83 34.47 C42.64 39.36, 37.73 44.75, 33.13 47.11 C28.54 49.48, 22.12 50.08, 17.26 48.65 C12.39 47.23, 6.84 42.97, 3.97 38.55 C1.09 34.12, -0.41 27.38, 0 22.11 C0.42 16.84, 2.78 10.56, 6.43 6.93 C10.09 3.31, 19.24 1.35, 21.93 0.35 C24.63 -0.65, 22.58 0.62, 22.61 0.94 M25.15 0.59 C29.93 0.64, 36.57 3.15, 40.06 6.73 C43.54 10.31, 45.57 16.91, 46.06 22.07 C46.55 27.22, 45.62 33.41, 42.99 37.64 C40.37 41.86, 35.06 45.85, 30.3 47.42 C25.54 48.99, 18.98 49.15, 14.44 47.03 C9.89 44.91, 5.33 39.52, 3.05 34.71 C0.78 29.9, -0.33 23.14, 0.79 18.19 C1.91 13.23, 5.66 8.04, 9.78 4.99 C13.91 1.94, 23.13 0.65, 25.54 -0.12 C27.95 -0.89, 24.44 -0.13, 24.27 0.38" stroke="#1e1e1e" stroke-width="2" fill="none"></path></g><g transform="translate(785.9874569685542 227.94615413119982) rotate(0 4.866666793823242 12.5)"><text x="4.866666793823242" y="17.52" font-family="Virgil, Segoe UI Emoji" font-size="20px" fill="#1e1e1e" text-anchor="middle" style="white-space: pre;" direction="ltr" dominant-baseline="alphabetic">k</text></g><g stroke-linecap="round" transform="translate(885.6971153846155 227.5) rotate(0 23.401442307692264 24.5)"><path d="M18.72 0.3 C23.37 -1.13, 30.08 -0.04, 34.42 2.51 C38.76 5.07, 42.93 10.65, 44.78 15.63 C46.62 20.6, 47.04 27.46, 45.51 32.37 C43.98 37.28, 39.82 42.41, 35.61 45.08 C31.39 47.76, 25.2 49.14, 20.23 48.41 C15.26 47.67, 9.11 44.46, 5.78 40.69 C2.45 36.93, 0.32 30.93, 0.23 25.81 C0.14 20.69, 2.1 14.23, 5.24 9.97 C8.39 5.7, 16.69 1.7, 19.08 0.22 C21.47 -1.26, 19.58 0.64, 19.59 1.1 M26.93 0.54 C31.63 1.05, 38.17 4.37, 41.55 8.27 C44.94 12.18, 47.18 18.6, 47.22 23.96 C47.27 29.32, 45 36.42, 41.8 40.45 C38.61 44.47, 33.07 47.28, 28.06 48.08 C23.05 48.88, 16.16 47.76, 11.74 45.26 C7.32 42.76, 3.18 37.99, 1.55 33.1 C-0.08 28.2, 0.39 20.87, 1.97 15.87 C3.56 10.87, 6.86 5.58, 11.06 3.07 C15.27 0.57, 24.55 1.09, 27.22 0.83 C29.88 0.58, 27.07 1.3, 27.04 1.52" stroke="#1e1e1e" stroke-width="2" fill="none"></path></g><g transform="translate(906.4179057023975 239.67588386092956) rotate(0 2.633333444595337 12.5)"><text x="2.633333444595337" y="17.52" font-family="Virgil, Segoe UI Emoji" font-size="20px" fill="#1e1e1e" text-anchor="middle" style="white-space: pre;" direction="ltr" dominant-baseline="alphabetic">l</text></g><g stroke-linecap="round"><g transform="translate(872.738314695503 97.03872548076913) rotate(0 -8.062298509868583 19.822213348808077)"><path d="M0.24 0.81 C-2.39 7.58, -13.93 33.69, -16.77 40.06 M-1.1 0.19 C-3.23 6.64, -11.59 31.52, -14.39 38.16" stroke="#1e1e1e" stroke-width="2" fill="none"></path></g></g><mask></mask><g stroke-linecap="round"><g transform="translate(840.8774217760774 180.38135850442) rotate(0 -18.641906867378907 23.785387286984957)"><path d="M-0.64 0.42 C-7.01 8.11, -32.02 39.16, -37.94 46.94 M1.22 -0.41 C-4.77 7.36, -29.31 40.06, -35.57 48.15" stroke="#1e1e1e" stroke-width="2" fill="none"></path></g></g><mask></mask><g stroke-linecap="round"><g transform="translate(861.5020149737804 182.98752724376197) rotate(0 20.625238431894445 24.43721943609654)"><path d="M-0.66 -0.63 C6.51 7.37, 35.19 40.28, 42.36 48.4 M1.2 1.66 C8.36 9.78, 35.16 41.8, 41.99 49.68" stroke="#1e1e1e" stroke-width="2" fill="none"></path></g></g><mask></mask><g stroke-linecap="round" transform="translate(1211.4601226993866 323.2064220183486) rotate(0 20.2699386503067 24.5)"><path d="M24.48 0.72 C28.66 1.56, 33.96 5.96, 36.61 10.04 C39.26 14.13, 40.66 20.08, 40.4 25.23 C40.14 30.37, 37.91 37.04, 35.03 40.93 C32.15 44.81, 27.33 47.85, 23.11 48.53 C18.89 49.21, 13.5 47.82, 9.73 45.01 C5.95 42.2, 1.81 36.7, 0.48 31.67 C-0.84 26.63, 0.08 19.61, 1.78 14.81 C3.49 10.01, 6.76 5.23, 10.71 2.84 C14.67 0.44, 22.9 0.68, 25.5 0.44 C28.1 0.19, 26.34 0.97, 26.31 1.37 M25.28 1.16 C29.39 1.77, 34.14 5.2, 36.76 9.26 C39.38 13.31, 41.32 20.14, 41.02 25.5 C40.72 30.85, 37.94 37.59, 34.97 41.4 C32 45.22, 27.46 47.62, 23.17 48.36 C18.89 49.11, 12.87 48.55, 9.25 45.88 C5.62 43.22, 2.61 37.48, 1.44 32.39 C0.26 27.29, 0.5 20.16, 2.18 15.31 C3.85 10.47, 7.83 5.88, 11.5 3.31 C15.17 0.74, 22.15 0.29, 24.2 -0.1 C26.24 -0.49, 23.86 0.56, 23.77 0.95" stroke="#1e1e1e" stroke-width="2" fill="none"></path></g><g transform="translate(1226.813716783547 335.3823058792782) rotate(0 5.083333492279053 12.5)"><text x="5.083333492279053" y="17.52" font-family="Virgil, Segoe UI Emoji" font-size="20px" fill="#1e1e1e" text-anchor="middle" style="white-space: pre;" direction="ltr" dominant-baseline="alphabetic">b</text></g><g stroke-linecap="round" transform="translate(1140 417) rotate(0 20.2699386503067 24.5)"><path d="M21.25 -0.43 C25.33 -0.57, 30.77 2.78, 34.01 6.4 C37.25 10.01, 40.08 16.04, 40.69 21.28 C41.3 26.51, 40.18 33.36, 37.68 37.79 C35.19 42.22, 29.93 46.36, 25.74 47.86 C21.54 49.37, 16.49 48.86, 12.52 46.84 C8.54 44.81, 3.95 40.44, 1.9 35.71 C-0.15 30.98, -0.76 23.65, 0.21 18.45 C1.17 13.24, 4.05 7.61, 7.68 4.48 C11.3 1.34, 19.4 0.24, 21.93 -0.36 C24.47 -0.97, 22.84 0.3, 22.88 0.87 M24.85 0.56 C28.82 1.37, 33.21 5.7, 35.85 9.74 C38.48 13.78, 40.79 19.51, 40.68 24.79 C40.58 30.07, 38.03 37.37, 35.2 41.43 C32.37 45.48, 27.83 48.47, 23.69 49.14 C19.54 49.8, 13.97 48.17, 10.31 45.43 C6.65 42.69, 3.26 37.8, 1.72 32.7 C0.18 27.6, -0.3 19.79, 1.07 14.82 C2.44 9.84, 6.13 5.36, 9.95 2.86 C13.76 0.37, 21.67 0.11, 23.94 -0.18 C26.21 -0.47, 23.71 0.56, 23.58 1.11" stroke="#1e1e1e" stroke-width="2" fill="none"></path></g><g transform="translate(1155.4202606872489 429.1758838609296) rotate(0 5.016666889190674 12.5)"><text x="5.016666889190674" y="17.52" font-family="Virgil, Segoe UI Emoji" font-size="20px" fill="#1e1e1e" text-anchor="middle" style="white-space: pre;" direction="ltr" dominant-baseline="alphabetic">c</text></g><g stroke-linecap="round"><g transform="translate(1216.6134969325153 374.82798165137615) rotate(0 -20.957055214723937 28.254587155963293)"><path d="M0.86 -0.28 C-6.36 9.02, -35.83 46.66, -43.04 56.24 M-0.15 -1.47 C-7.04 7.96, -33.7 48.18, -40.92 57.64" stroke="#1e1e1e" stroke-width="2" fill="none"></path></g></g><mask></mask><g stroke-linecap="round" transform="translate(1112.3702031602709 65.34293193717275) rotate(0 22.241534988713283 24.5)"><path d="M20.35 0.37 C24.8 -0.37, 31.43 1.24, 35.31 4.32 C39.19 7.41, 42.43 13.69, 43.64 18.87 C44.86 24.04, 44.56 30.71, 42.6 35.38 C40.63 40.04, 36.17 44.7, 31.85 46.87 C27.54 49.04, 21.4 49.91, 16.69 48.41 C11.99 46.91, 6.48 42.28, 3.64 37.88 C0.8 33.49, -0.82 27.26, -0.35 22.03 C0.11 16.8, 2.75 10.18, 6.42 6.52 C10.09 2.87, 18.87 1.05, 21.66 0.09 C24.45 -0.88, 23.09 0.32, 23.16 0.72 M22.41 0.59 C27.07 0.32, 33.56 3.07, 37.11 6.24 C40.65 9.42, 42.98 14.53, 43.68 19.67 C44.39 24.82, 43.56 32.55, 41.34 37.11 C39.12 41.67, 34.77 45.22, 30.37 47.03 C25.97 48.84, 19.48 49.81, 14.92 47.97 C10.36 46.13, 5.4 40.59, 3.01 35.99 C0.62 31.38, -0.34 25.3, 0.59 20.34 C1.51 15.38, 4.89 9.71, 8.56 6.2 C12.22 2.69, 20.16 0.25, 22.57 -0.72 C24.99 -1.69, 23.11 -0.24, 23.04 0.41" stroke="#1e1e1e" stroke-width="2" fill="none"></path></g><g transform="translate(1127.7179314267462 77.51881579810231) rotate(0 6.666666507720947 12.5)"><text x="6.666666507720947" y="17.52" font-family="Virgil, Segoe UI Emoji" font-size="20px" fill="#1e1e1e" text-anchor="middle" style="white-space: pre;" direction="ltr" dominant-baseline="alphabetic">a</text></g><g stroke-linecap="round" transform="translate(994 135.5) rotate(0 22.241534988713283 24.5)"><path d="M25.4 0.71 C29.95 1.23, 35.97 4.67, 39.22 8.54 C42.48 12.41, 44.78 18.67, 44.92 23.92 C45.07 29.18, 43.18 36.06, 40.1 40.09 C37.01 44.11, 31.25 47.1, 26.42 48.08 C21.6 49.06, 15.35 48.48, 11.15 45.97 C6.96 43.46, 3.01 37.87, 1.27 33.01 C-0.48 28.15, -0.78 21.67, 0.69 16.8 C2.17 11.92, 5.89 6.51, 10.14 3.78 C14.38 1.06, 23.38 0.95, 26.16 0.45 C28.93 -0.04, 26.82 0.41, 26.8 0.81 M26.14 -0.18 C30.52 0.47, 36.32 5.36, 39.48 9.48 C42.64 13.61, 45.1 19.27, 45.07 24.55 C45.04 29.82, 42.53 37.24, 39.3 41.16 C36.06 45.07, 30.39 47.29, 25.66 48.03 C20.93 48.77, 14.9 48.13, 10.91 45.6 C6.92 43.07, 3.25 37.98, 1.72 32.86 C0.2 27.74, 0.02 19.86, 1.78 14.87 C3.54 9.88, 8.19 5.2, 12.3 2.92 C16.41 0.63, 23.99 1.38, 26.46 1.16 C28.93 0.94, 27.26 1.24, 27.11 1.61" stroke="#1e1e1e" stroke-width="2" fill="none"></path></g><g transform="translate(1010.9310612819172 147.67588386092962) rotate(0 5.083333492279053 12.5)"><text x="5.083333492279053" y="17.52" font-family="Virgil, Segoe UI Emoji" font-size="20px" fill="#1e1e1e" text-anchor="middle" style="white-space: pre;" direction="ltr" dominant-baseline="alphabetic">b</text></g><g stroke-linecap="round" transform="translate(1283.5169300225734 126.59947643979058) rotate(0 22.241534988713283 24.5)"><path d="M27.47 0.62 C31.98 1.4, 37.53 5.8, 40.33 9.88 C43.12 13.96, 44.58 19.92, 44.23 25.1 C43.87 30.28, 41.42 37.1, 38.2 40.97 C34.98 44.85, 29.62 47.62, 24.9 48.33 C20.18 49.05, 13.92 47.98, 9.86 45.27 C5.8 42.56, 1.91 37.09, 0.54 32.08 C-0.83 27.07, -0.28 20.13, 1.62 15.21 C3.52 10.3, 7.58 4.98, 11.95 2.58 C16.32 0.17, 25.07 0.93, 27.83 0.79 C30.59 0.65, 28.57 1.38, 28.5 1.72 M18.02 0.06 C22.46 -1.3, 28.73 0.85, 32.87 3.25 C37.01 5.64, 41.06 9.64, 42.86 14.43 C44.66 19.23, 45.04 26.84, 43.69 32.05 C42.34 37.25, 38.76 43.01, 34.74 45.69 C30.73 48.36, 24.29 48.86, 19.59 48.07 C14.9 47.28, 9.86 44.6, 6.57 40.96 C3.28 37.33, 0.1 31.37, -0.13 26.25 C-0.36 21.12, 2.36 14.43, 5.19 10.24 C8.01 6.04, 14.64 2.69, 16.81 1.08 C18.99 -0.53, 18.14 0.36, 18.23 0.57" stroke="#1e1e1e" stroke-width="2" fill="none"></path></g><g transform="translate(1303.3396581936813 138.7753603007202) rotate(0 2.191666603088379 12.5)"><text x="2.191666603088379" y="17.52" font-family="Virgil, Segoe UI Emoji" font-size="20px" fill="#1e1e1e" text-anchor="middle" style="white-space: pre;" direction="ltr" dominant-baseline="alphabetic">i</text></g><g stroke-linecap="round"><g transform="translate(1114.255429227317 110.41601786068804) rotate(0 -38.82883562673919 23.56044800205052)"><path d="M0.63 1.08 C-12.46 8.99, -64.62 40.64, -77.54 48.22 M-0.49 0.6 C-13.83 8.13, -65.64 38.84, -78.43 46.67" stroke="#1e1e1e" stroke-width="2" fill="none"></path></g></g><mask></mask><g stroke-linecap="round"><g transform="translate(1160.3395492411619 108.19698882813577) rotate(0 61.71090337645751 20.01128471267009)"><path d="M0.11 1.1 C20.71 7.49, 103.81 33.15, 124.19 39.45 M-1.29 0.63 C19.16 7.7, 102.64 34.19, 123.64 40.69" stroke="#1e1e1e" stroke-width="2" fill="none"></path></g></g><mask></mask><g stroke-linecap="round" transform="translate(809.5 384.5618556701031) rotate(0 25.19791666666663 24.5)"><path d="M25.74 -0.5 C30.96 -0.62, 38.06 2.53, 42.22 6.13 C46.38 9.74, 50.13 15.74, 50.71 21.12 C51.3 26.49, 48.59 33.77, 45.72 38.38 C42.85 42.99, 38.51 47.4, 33.51 48.78 C28.52 50.17, 21.01 48.78, 15.76 46.7 C10.51 44.62, 4.57 41.02, 2.01 36.3 C-0.56 31.58, -1 23.44, 0.37 18.37 C1.73 13.29, 5.71 9.03, 10.22 5.87 C14.73 2.71, 24.43 0.39, 27.44 -0.58 C30.44 -1.55, 28.09 -0.38, 28.23 0.04 M23.88 -0.56 C29.04 -1.52, 36.11 0.44, 40.43 3.76 C44.75 7.07, 48.6 14.11, 49.8 19.33 C51 24.56, 49.87 30.4, 47.66 35.12 C45.44 39.84, 41.73 45.6, 36.53 47.64 C31.33 49.68, 21.75 48.9, 16.43 47.34 C11.11 45.78, 7.54 42.66, 4.62 38.28 C1.7 33.9, -1.85 26.14, -1.08 21.06 C-0.32 15.99, 5.08 11.11, 9.19 7.83 C13.31 4.56, 20.91 2.4, 23.59 1.4 C26.27 0.39, 25.45 1.71, 25.27 1.81" stroke="#1e1e1e" stroke-width="2" fill="none"></path></g><g transform="translate(829.4136322214374 396.73773953103273) rotate(0 5.4666666984558105 12.5)"><text x="5.4666666984558105" y="17.52" font-family="Virgil, Segoe UI Emoji" font-size="20px" fill="#1e1e1e" text-anchor="middle" style="white-space: pre;" direction="ltr" dominant-baseline="alphabetic">e</text></g><g stroke-linecap="round" transform="translate(840.25 458.3762886597938) rotate(0 25.19791666666663 24.5)"><path d="M19.11 0.56 C23.88 -0.88, 30.15 0.48, 35.1 2.88 C40.06 5.28, 46.39 10.37, 48.85 14.95 C51.31 19.53, 51.52 25.34, 49.87 30.37 C48.22 35.4, 43.44 42.14, 38.93 45.11 C34.43 48.08, 28.03 48.59, 22.83 48.19 C17.63 47.8, 11.53 46.45, 7.71 42.76 C3.88 39.06, 0.52 31.52, -0.11 26.03 C-0.74 20.53, 0.4 14.17, 3.94 9.8 C7.48 5.44, 18.14 1.37, 21.13 -0.17 C24.12 -1.72, 21.83 0.03, 21.88 0.55 M20.26 0.91 C25.19 -0.27, 32.24 0, 37.2 2.54 C42.17 5.08, 48.33 11.3, 50.06 16.15 C51.8 21.01, 49.48 26.74, 47.61 31.67 C45.75 36.61, 43.43 43.01, 38.87 45.77 C34.3 48.52, 25.42 48.84, 20.2 48.2 C14.98 47.56, 10.96 45.54, 7.56 41.92 C4.16 38.31, -0.1 31.72, -0.2 26.49 C-0.31 21.25, 3.77 14.94, 6.93 10.52 C10.09 6.1, 16.46 1.58, 18.76 -0.03 C21.06 -1.63, 20.37 0.3, 20.73 0.89" stroke="#1e1e1e" stroke-width="2" fill="none"></path></g><g transform="translate(860.6219657137165 470.5521725207234) rotate(0 5.008333206176758 12.5)"><text x="5.008333206176758" y="17.52" font-family="Virgil, Segoe UI Emoji" font-size="20px" fill="#1e1e1e" text-anchor="middle" style="white-space: pre;" direction="ltr" dominant-baseline="alphabetic">g</text></g><g stroke-linecap="round" transform="translate(882.1041666666667 528.5) rotate(0 25.19791666666663 24.5)"><path d="M22.3 1.16 C27.49 -0.06, 34.32 0.52, 38.66 3.21 C42.99 5.9, 46.68 12.37, 48.3 17.29 C49.92 22.22, 50.19 27.81, 48.39 32.74 C46.59 37.67, 42.24 44.38, 37.51 46.9 C32.77 49.41, 25.42 49.13, 19.98 47.82 C14.55 46.51, 8.1 43.15, 4.92 39.06 C1.74 34.96, 0.68 28.38, 0.89 23.23 C1.1 18.07, 1.97 12, 6.2 8.14 C10.43 4.27, 22.45 1.25, 26.27 0.05 C30.1 -1.14, 29.42 0.55, 29.17 0.96 M30.12 0.86 C35 1.21, 38.98 3.63, 42.45 7.49 C45.91 11.35, 50.67 18.75, 50.89 24.01 C51.12 29.27, 47 34.78, 43.79 39.06 C40.59 43.33, 36.78 48.26, 31.68 49.66 C26.57 51.07, 17.89 49.95, 13.16 47.49 C8.42 45.04, 5.5 40.14, 3.28 34.96 C1.05 29.78, -1.69 21.63, -0.19 16.41 C1.31 11.2, 7.44 6.23, 12.29 3.65 C17.14 1.06, 26.11 1.55, 28.93 0.91 C31.74 0.27, 29.52 -0.24, 29.19 -0.17" stroke="#1e1e1e" stroke-width="2" fill="none"></path></g><g transform="translate(902.5427989834716 540.6758838609296) rotate(0 4.941666603088379 12.5)"><text x="4.941666603088379" y="17.52" font-family="Virgil, Segoe UI Emoji" font-size="20px" fill="#1e1e1e" text-anchor="middle" style="white-space: pre;" direction="ltr" dominant-baseline="alphabetic">h</text></g><g stroke-linecap="round"><g transform="translate(845.8020088071355 435.7145772889786) rotate(0 5.933921694659148 15.693310821474029)"><path d="M0.34 0.47 C2.43 5.79, 10.47 26.48, 12.35 31.56 M-0.15 0.23 C1.92 5.41, 10.28 25.5, 12.17 30.68" stroke="#1e1e1e" stroke-width="2" fill="none"></path></g></g><mask></mask><g stroke-linecap="round"><g transform="translate(880.5411917857944 508.7653390416924) rotate(0 6.809073089519757 14.621483271494014)"><path d="M0.49 0.17 C2.66 4.9, 11.16 23.99, 13.4 28.81 M0.07 -0.22 C2.13 4.8, 10.58 24.31, 12.86 29.29" stroke="#1e1e1e" stroke-width="2" fill="none"></path></g></g><mask></mask><g stroke-linecap="round" transform="translate(701.5 50) rotate(0 47 20)"><path d="M10 0 C32.34 -1.49, 58.07 -2.61, 84 0 M10 0 C34.17 -0.01, 58.02 0.23, 84 0 M84 0 C90.78 -0.39, 95.45 2.57, 94 10 M84 0 C91.98 -1.06, 95.78 2.01, 94 10 M94 10 C95.81 15.17, 94.06 20.9, 94 30 M94 10 C93.95 16.84, 93.32 22.67, 94 30 M94 30 C92.87 34.74, 89.15 41.76, 84 40 M94 30 C94.75 35.63, 91.07 37.85, 84 40 M84 40 C65.99 38.23, 50 39.66, 10 40 M84 40 C65.28 40.46, 45.63 39.25, 10 40 M10 40 C3.66 38.17, -0.91 36.79, 0 30 M10 40 C2.25 41.95, 1.58 35.15, 0 30 M0 30 C-0.03 22.1, 0.36 16.73, 0 10 M0 30 C-1.04 22.89, -0.5 17.81, 0 10 M0 10 C-1.3 3.32, 3.72 -0.82, 10 0 M0 10 C-0.49 3.68, 2.33 0.37, 10 0" stroke="#1e1e1e" stroke-width="2" fill="none"></path></g><g transform="translate(727.8916664123535 57.5) rotate(0 20.608333587646484 12.5)"><text x="20.608333587646484" y="17.52" font-family="Virgil, Segoe UI Emoji" font-size="20px" fill="#1e1e1e" text-anchor="middle" style="white-space: pre;" direction="ltr" dominant-baseline="alphabetic">T2.1</text></g><g stroke-linecap="round" transform="translate(1007.5 28) rotate(0 47 20)"><path d="M10 0 C33.48 0.6, 56.55 -0.46, 84 0 M10 0 C37.11 0.35, 64.58 -1.12, 84 0 M84 0 C90.12 -0.14, 95.87 3.9, 94 10 M84 0 C90.8 1.94, 94.23 1.08, 94 10 M94 10 C93.05 17.56, 92.9 22.08, 94 30 M94 10 C93.72 14.66, 93.24 18.37, 94 30 M94 30 C92.36 36.18, 90.38 38.41, 84 40 M94 30 C95.65 36.48, 89.61 38.42, 84 40 M84 40 C62.47 39.43, 44.24 38.67, 10 40 M84 40 C66.02 40.34, 45.69 39.71, 10 40 M10 40 C1.97 40.35, -0.16 34.88, 0 30 M10 40 C3.59 38.81, 0.38 37.85, 0 30 M0 30 C-0.6 24.71, -1.11 17.54, 0 10 M0 30 C0.23 23.18, 0.24 17, 0 10 M0 10 C-1.73 2.33, 3.58 -0.59, 10 0 M0 10 C-1.96 1.62, 2.62 -0.09, 10 0" stroke="#1e1e1e" stroke-width="2" fill="none"></path></g><g transform="translate(1029.4833335876465 35.5) rotate(0 25.016666412353516 12.5)"><text x="25.016666412353516" y="17.52" font-family="Virgil, Segoe UI Emoji" font-size="20px" fill="#1e1e1e" text-anchor="middle" style="white-space: pre;" direction="ltr" dominant-baseline="alphabetic">T2.2</text></g><g stroke-linecap="round" transform="translate(744.5 335) rotate(0 47 20)"><path d="M10 0 C35.27 -1.97, 62.29 -0.71, 84 0 M10 0 C39.95 0.05, 67.24 0.46, 84 0 M84 0 C90.95 1.28, 93.03 3.89, 94 10 M84 0 C89.37 -2.21, 92.26 5.35, 94 10 M94 10 C92.04 15.44, 92.27 22.82, 94 30 M94 10 C93.76 15.25, 93.16 21.13, 94 30 M94 30 C94.18 38.02, 89.17 38.93, 84 40 M94 30 C94.37 34.56, 89.62 40.14, 84 40 M84 40 C63.97 40.63, 45.21 40.86, 10 40 M84 40 C61.89 40.25, 41.33 40.19, 10 40 M10 40 C1.45 38.44, -0.78 37.6, 0 30 M10 40 C1.84 39.98, 0.44 35.72, 0 30 M0 30 C0.29 23.97, -1.76 17.85, 0 10 M0 30 C-0.68 23.44, 0.02 17.66, 0 10 M0 10 C1.18 4.01, 3.15 1.79, 10 0 M0 10 C1.66 2.89, 5.39 -0.31, 10 0" stroke="#1e1e1e" stroke-width="2" fill="none"></path></g><g transform="translate(766.7916660308838 342.5) rotate(0 24.70833396911621 12.5)"><text x="24.70833396911621" y="17.52" font-family="Virgil, Segoe UI Emoji" font-size="20px" fill="#1e1e1e" text-anchor="middle" style="white-space: pre;" direction="ltr" dominant-baseline="alphabetic">T2.3</text></g><g stroke-linecap="round" transform="translate(1058.5 306) rotate(0 47 17.5)"><path d="M8.75 0 C30.2 0.93, 55.85 1.2, 85.25 0 M8.75 0 C27.01 -0.33, 48.08 0.76, 85.25 0 M85.25 0 C90.18 0.35, 92.13 1.71, 94 8.75 M85.25 0 C89.2 -0.56, 93.67 1.09, 94 8.75 M94 8.75 C92.79 14.75, 94.14 22.95, 94 26.25 M94 8.75 C93.11 12.3, 93.96 16.23, 94 26.25 M94 26.25 C95.7 33.46, 89.77 35.12, 85.25 35 M94 26.25 C92.43 32.49, 90.9 32.95, 85.25 35 M85.25 35 C62.48 35.35, 35.76 33.57, 8.75 35 M85.25 35 C65.29 34.7, 44.94 34.29, 8.75 35 M8.75 35 C3.22 34.13, 0.32 31.63, 0 26.25 M8.75 35 C0.93 33.84, 0.29 31.4, 0 26.25 M0 26.25 C0.06 22.76, 1.16 19.32, 0 8.75 M0 26.25 C-0.32 21.94, -0.28 15.52, 0 8.75 M0 8.75 C-1.78 1.41, 3.57 -0.52, 8.75 0 M0 8.75 C-1.13 1.27, 1.35 -1.12, 8.75 0" stroke="#1e1e1e" stroke-width="2" fill="none"></path></g><g transform="translate(1081.2000007629395 311) rotate(0 24.299999237060547 12.5)"><text x="24.299999237060547" y="17.52" font-family="Virgil, Segoe UI Emoji" font-size="20px" fill="#1e1e1e" text-anchor="middle" style="white-space: pre;" direction="ltr" dominant-baseline="alphabetic">T2.4</text></g><g stroke-linecap="round" transform="translate(799.9646017699115 623) rotate(0 24.017699115044252 24.5)"><path d="M27.48 0.34 C32.49 0.77, 38.64 4.38, 42.12 8.32 C45.6 12.25, 48.21 18.8, 48.35 23.94 C48.49 29.07, 46.14 35.1, 42.94 39.13 C39.73 43.15, 34.1 46.85, 29.11 48.07 C24.11 49.29, 17.57 48.85, 12.96 46.43 C8.35 44.02, 3.39 38.52, 1.47 33.57 C-0.46 28.63, -0.17 21.74, 1.41 16.78 C2.99 11.81, 6.44 6.57, 10.95 3.79 C15.45 1, 25.31 0.5, 28.44 0.1 C31.56 -0.31, 29.83 0.91, 29.72 1.37 M25.47 0.46 C30.24 0.39, 36.78 2.97, 40.43 6.7 C44.09 10.44, 46.8 17.65, 47.42 22.87 C48.05 28.1, 46.96 33.83, 44.17 38.05 C41.37 42.27, 35.59 46.71, 30.66 48.22 C25.74 49.72, 19.38 49.41, 14.62 47.07 C9.86 44.73, 4.48 38.96, 2.09 34.18 C-0.3 29.41, -1.05 23.3, 0.28 18.42 C1.6 13.55, 5.76 8.05, 10.04 4.93 C14.32 1.8, 23.29 0.51, 25.96 -0.31 C28.63 -1.12, 26.18 -0.5, 26.06 0.05" stroke="#1e1e1e" stroke-width="2" fill="none"></path></g><g transform="translate(821.8075563691214 635.1758838609296) rotate(0 2.191666603088379 12.5)"><text x="2.191666603088379" y="17.52" font-family="Virgil, Segoe UI Emoji" font-size="20px" fill="#1e1e1e" text-anchor="middle" style="white-space: pre;" direction="ltr" dominant-baseline="alphabetic">i</text></g><g stroke-linecap="round" transform="translate(756 707.2065217391304) rotate(0 24.017699115044252 24.5)"><path d="M25.87 0.49 C30.69 0.39, 36.83 2.94, 40.49 6.43 C44.15 9.92, 47.23 16.1, 47.83 21.42 C48.44 26.73, 47 33.91, 44.1 38.3 C41.21 42.69, 35.36 46.37, 30.45 47.76 C25.55 49.15, 19.36 48.71, 14.67 46.65 C9.97 44.58, 4.65 40.08, 2.29 35.36 C-0.07 30.65, -0.72 23.45, 0.51 18.37 C1.73 13.3, 5.34 7.94, 9.63 4.91 C13.93 1.87, 23.24 0.81, 26.28 0.15 C29.33 -0.51, 27.8 0.61, 27.9 0.95 M26.5 0.75 C31.55 1.05, 38.43 3.61, 42.08 7.38 C45.73 11.15, 48.09 17.97, 48.39 23.35 C48.69 28.73, 47.07 35.6, 43.87 39.65 C40.66 43.7, 34.4 46.53, 29.17 47.67 C23.95 48.82, 17.1 48.71, 12.52 46.51 C7.94 44.31, 3.64 39.41, 1.72 34.47 C-0.21 29.53, -0.59 22.05, 0.97 16.87 C2.52 11.69, 6.79 6.09, 11.03 3.39 C15.26 0.68, 23.75 1.1, 26.38 0.65 C29.01 0.2, 26.64 0.46, 26.81 0.7" stroke="#1e1e1e" stroke-width="2" fill="none"></path></g><g transform="translate(776.751287900754 719.38240560006) rotate(0 3.2833333015441895 12.5)"><text x="3.2833333015441895" y="17.52" font-family="Virgil, Segoe UI Emoji" font-size="20px" fill="#1e1e1e" text-anchor="middle" style="white-space: pre;" direction="ltr" dominant-baseline="alphabetic">j</text></g><g stroke-linecap="round"><g transform="translate(807.83268383015 661.1949574579676) rotate(0 -8.274612190123094 20.16873471019528)"><path d="M0.78 0.8 C-1.85 7.34, -12.46 33.53, -15.48 40.1 M-0.27 0.18 C-3 6.83, -13.44 34.63, -15.87 41.51" stroke="#1e1e1e" stroke-width="2" fill="none"></path></g></g><mask></mask><g stroke-linecap="round" transform="translate(858.4823008849557 706.5000000000001) rotate(0 24.017699115044252 24.5)"><path d="M18.62 0.55 C23.23 -0.8, 30.46 0.46, 35.05 2.84 C39.64 5.21, 44.12 9.92, 46.15 14.79 C48.18 19.67, 48.76 26.97, 47.24 32.11 C45.71 37.24, 41.34 42.85, 36.99 45.61 C32.65 48.37, 26.27 49.38, 21.16 48.67 C16.04 47.96, 9.85 45.14, 6.29 41.34 C2.73 37.53, 0.06 31.21, -0.18 25.84 C-0.43 20.48, 1.33 13.45, 4.82 9.12 C8.3 4.79, 17.91 1.32, 20.72 -0.14 C23.53 -1.6, 21.67 -0.04, 21.7 0.37 M24.36 0.55 C29.46 0.35, 36.56 3.36, 40.57 6.71 C44.58 10.06, 47.81 15.46, 48.4 20.64 C48.99 25.83, 46.88 33.38, 44.09 37.83 C41.3 42.28, 36.51 45.86, 31.66 47.34 C26.82 48.81, 19.93 48.47, 15.02 46.69 C10.12 44.91, 4.6 41.29, 2.23 36.65 C-0.14 32.02, -0.26 24.07, 0.79 18.89 C1.84 13.7, 4.42 8.7, 8.52 5.53 C12.63 2.36, 22.71 0.63, 25.44 -0.14 C28.18 -0.9, 25.13 0.44, 24.96 0.95" stroke="#1e1e1e" stroke-width="2" fill="none"></path></g><g transform="translate(877.6502552934307 718.6758838609297) rotate(0 4.866666793823242 12.5)"><text x="4.866666793823242" y="17.52" font-family="Virgil, Segoe UI Emoji" font-size="20px" fill="#1e1e1e" text-anchor="middle" style="white-space: pre;" direction="ltr" dominant-baseline="alphabetic">k</text></g><g stroke-linecap="round"><g transform="translate(843.5 667) rotate(0 11.5 20.5)"><path d="M0.34 0.71 C3.91 7.7, 18.68 34.91, 22.55 41.67 M-0.94 0.04 C2.34 6.7, 17.36 32.79, 21.36 39.91" stroke="#1e1e1e" stroke-width="2" fill="none"></path></g></g><mask></mask><g stroke-linecap="round" transform="translate(719.5 569) rotate(0 47 20)"><path d="M10 0 C29.35 -1.26, 48.73 -1.3, 84 0 M10 0 C24.03 0.21, 40.37 0.12, 84 0 M84 0 C89.58 1.3, 94.19 4.05, 94 10 M84 0 C91.47 -2.28, 95.86 5.04, 94 10 M94 10 C95.36 15.1, 95.86 21, 94 30 M94 10 C93.95 14.34, 93.99 18.85, 94 30 M94 30 C93.97 37.14, 92.24 41.89, 84 40 M94 30 C93.44 37, 88.84 40.14, 84 40 M84 40 C61.47 38.82, 40.81 38.69, 10 40 M84 40 C65.57 40.68, 47.62 41.16, 10 40 M10 40 C1.61 38.09, -1.52 36.78, 0 30 M10 40 C2.21 42.11, -0.7 36.04, 0 30 M0 30 C1.19 23.01, -1.89 18.5, 0 10 M0 30 C0.25 26.11, 0.27 20.59, 0 10 M0 10 C1.11 1.89, 4.41 1.72, 10 0 M0 10 C0.1 3.5, 5.54 -0.79, 10 0" stroke="#1e1e1e" stroke-width="2" fill="none"></path></g><g transform="translate(742.4166660308838 576.5) rotate(0 24.08333396911621 12.5)"><text x="24.08333396911621" y="17.52" font-family="Virgil, Segoe UI Emoji" font-size="20px" fill="#1e1e1e" text-anchor="middle" style="white-space: pre;" direction="ltr" dominant-baseline="alphabetic">T2.5</text></g><g stroke-linecap="round" transform="translate(1155.8702031602706 622.0929319371728) rotate(0 22.241534988713283 24.5)"><path d="M20.73 -0.37 C25.3 -1.1, 31.74 1.22, 35.51 4.39 C39.28 7.56, 42.26 13.44, 43.33 18.64 C44.4 23.84, 43.87 30.85, 41.94 35.59 C40.01 40.32, 35.98 44.91, 31.76 47.04 C27.53 49.16, 21.26 49.73, 16.59 48.33 C11.92 46.93, 6.56 42.94, 3.75 38.62 C0.94 34.29, -0.81 27.64, -0.25 22.37 C0.31 17.11, 3.47 10.66, 7.11 7.01 C10.76 3.36, 19.07 1.5, 21.62 0.49 C24.18 -0.52, 22.49 0.64, 22.45 0.95 M20.65 -0.3 C25.11 -1.13, 31.86 1.1, 35.7 4.17 C39.54 7.23, 42.51 13.01, 43.68 18.08 C44.84 23.14, 44.79 29.83, 42.71 34.57 C40.62 39.3, 35.62 44.15, 31.15 46.47 C26.67 48.79, 20.35 49.73, 15.86 48.49 C11.38 47.25, 6.8 43.45, 4.21 39.03 C1.62 34.62, -0.19 27.35, 0.31 22.01 C0.8 16.68, 3.72 10.73, 7.17 7.02 C10.62 3.32, 18.9 0.94, 21.01 -0.21 C23.12 -1.36, 19.89 -0.42, 19.84 0.13" stroke="#1e1e1e" stroke-width="2" fill="none"></path></g><g transform="translate(1171.217931426746 634.2688157981024) rotate(0 6.666666507720947 12.5)"><text x="6.666666507720947" y="17.52" font-family="Virgil, Segoe UI Emoji" font-size="20px" fill="#1e1e1e" text-anchor="middle" style="white-space: pre;" direction="ltr" dominant-baseline="alphabetic">a</text></g><g stroke-linecap="round" transform="translate(1037.5 692.25) rotate(0 22.241534988713283 24.5)"><path d="M16.91 0.83 C21.16 -0.46, 27.73 0.82, 32.1 3.23 C36.46 5.64, 41.15 10.48, 43.1 15.29 C45.05 20.09, 45.31 27.02, 43.81 32.04 C42.31 37.06, 38.23 42.57, 34.1 45.41 C29.98 48.24, 23.67 49.78, 19.04 49.07 C14.41 48.35, 9.48 44.95, 6.31 41.12 C3.15 37.3, 0.38 31.29, 0.06 26.11 C-0.26 20.94, 1.36 14.41, 4.39 10.1 C7.41 5.78, 15.69 1.72, 18.2 0.23 C20.71 -1.26, 19.29 0.71, 19.44 1.15 M19.33 -0.09 C23.76 -1.05, 30.69 0.58, 34.66 3.41 C38.63 6.25, 41.88 11.75, 43.16 16.91 C44.44 22.07, 44.06 29.35, 42.32 34.35 C40.58 39.36, 36.86 44.61, 32.73 46.93 C28.6 49.25, 22.15 49.52, 17.54 48.26 C12.93 46.99, 7.9 43.53, 5.06 39.33 C2.23 35.13, 0.51 28.36, 0.54 23.04 C0.56 17.73, 2.06 11.15, 5.22 7.44 C8.37 3.73, 17.15 1.82, 19.45 0.77 C21.76 -0.28, 18.97 0.88, 19.07 1.14" stroke="#1e1e1e" stroke-width="2" fill="none"></path></g><g transform="translate(1054.4310612819172 704.4258838609296) rotate(0 5.083333492279053 12.5)"><text x="5.083333492279053" y="17.52" font-family="Virgil, Segoe UI Emoji" font-size="20px" fill="#1e1e1e" text-anchor="middle" style="white-space: pre;" direction="ltr" dominant-baseline="alphabetic">b</text></g><g stroke-linecap="round" transform="translate(1327.0169300225734 683.3494764397906) rotate(0 22.241534988713283 24.5)"><path d="M25.13 0.39 C29.78 0.61, 35.54 4.08, 38.74 7.9 C41.93 11.73, 44.14 18.08, 44.31 23.33 C44.47 28.57, 42.48 35.21, 39.74 39.38 C36.99 43.55, 32.39 47.1, 27.82 48.35 C23.25 49.61, 16.68 49.16, 12.32 46.88 C7.96 44.61, 3.6 39.61, 1.66 34.69 C-0.28 29.77, -0.69 22.4, 0.68 17.37 C2.04 12.35, 5.71 7.37, 9.84 4.53 C13.97 1.68, 22.89 0.89, 25.47 0.32 C28.05 -0.24, 25.45 0.76, 25.31 1.13 M19.79 -0.21 C24.13 -0.85, 30.37 1.56, 34.4 4.69 C38.43 7.83, 42.59 13.63, 43.97 18.6 C45.35 23.58, 44.62 29.85, 42.68 34.52 C40.75 39.19, 36.59 44.37, 32.34 46.61 C28.09 48.85, 22 49.32, 17.19 47.93 C12.37 46.55, 6.3 42.42, 3.45 38.29 C0.6 34.16, -0.33 28.24, 0.09 23.15 C0.51 18.06, 2.56 11.67, 5.96 7.78 C9.35 3.89, 18.09 0.87, 20.45 -0.2 C22.81 -1.28, 20.13 0.77, 20.09 1.34" stroke="#1e1e1e" stroke-width="2" fill="none"></path></g><g transform="translate(1343.3813247014023 695.5253603007202) rotate(0 5.650000095367432 12.5)"><text x="5.650000095367432" y="17.52" font-family="Virgil, Segoe UI Emoji" font-size="20px" fill="#1e1e1e" text-anchor="middle" style="white-space: pre;" direction="ltr" dominant-baseline="alphabetic">t</text></g><g stroke-linecap="round"><g transform="translate(1157.755429227317 667.166017860688) rotate(0 -38.82883562673919 23.56044800205052)"><path d="M1.19 0.8 C-11.76 8.93, -64.07 40.26, -77.12 47.93 M0.35 0.17 C-12.75 8.04, -64.8 38.27, -77.79 46.23" stroke="#1e1e1e" stroke-width="2" fill="none"></path></g></g><mask></mask><g stroke-linecap="round"><g transform="translate(1203.8395492411619 664.9469888281358) rotate(0 61.71090337645751 20.01128471267009)"><path d="M0.54 0.8 C21 7.29, 103.39 33.3, 123.98 39.69 M-0.64 0.18 C19.61 6.77, 102.61 34.41, 123.33 41.05" stroke="#1e1e1e" stroke-width="2" fill="none"></path></g></g><mask></mask><g stroke-linecap="round" transform="translate(1051 584.75) rotate(0 47 17.5)"><path d="M8.75 0 C34.56 0.75, 60.04 0.72, 85.25 0 M8.75 0 C39.23 -0.4, 68.71 -0.55, 85.25 0 M85.25 0 C90.58 -0.63, 95.92 3.92, 94 8.75 M85.25 0 C91.55 -1.17, 95.67 1.73, 94 8.75 M94 8.75 C92.81 13.02, 93.19 17.78, 94 26.25 M94 8.75 C94.31 14.73, 94.68 21.04, 94 26.25 M94 26.25 C95.37 31.31, 89.25 33.84, 85.25 35 M94 26.25 C94.07 33.83, 89.8 36.39, 85.25 35 M85.25 35 C60.8 34.66, 34.13 34.81, 8.75 35 M85.25 35 C53.84 34.75, 24.17 36.25, 8.75 35 M8.75 35 C4.01 36.03, 1.01 32.01, 0 26.25 M8.75 35 C1.31 36.85, -1.82 31.94, 0 26.25 M0 26.25 C1.18 19.58, -1.37 16.27, 0 8.75 M0 26.25 C-0.1 20.13, -0.57 11.57, 0 8.75 M0 8.75 C-0.38 1.48, 4.09 -0.89, 8.75 0 M0 8.75 C0.33 3.35, 2.58 1.81, 8.75 0" stroke="#1e1e1e" stroke-width="2" fill="none"></path></g><g transform="translate(1073.7000007629395 589.75) rotate(0 24.299999237060547 12.5)"><text x="24.299999237060547" y="17.52" font-family="Virgil, Segoe UI Emoji" font-size="20px" fill="#1e1e1e" text-anchor="middle" style="white-space: pre;" direction="ltr" dominant-baseline="alphabetic">T2.6</text></g></svg>
