<svg version="1.1" xmlns="http://www.w3.org/2000/svg" viewBox="0 0 328.91660394816313 379.6546397297613" width="328.91660394816313" height="379.6546397297613">
  <!-- svg-source:excalidraw -->

  <defs>
    <style class="style-fonts">
      @font-face {
        font-family: "Virgil";
        src: url("https://excalidraw.com/Virgil.woff2");
      }
      @font-face {
        font-family: "Cascadia";
        src: url("https://excalidraw.com/Cascadia.woff2");
      }
      @font-face {
        font-family: "Assistant";
        src: url("https://excalidraw.com/Assistant-Regular.woff2");
      }
    </style>

  </defs>
  <rect x="0" y="0" width="328.91660394816313" height="379.6546397297613" fill="#ffffff"></rect><g stroke-linecap="round" transform="translate(91.70385634603508 10) rotate(0 23.5 24.5)"><path d="M17.83 0.52 C22.4 -0.92, 29.43 0.15, 34.05 2.44 C38.66 4.74, 43.47 9.48, 45.51 14.29 C47.55 19.09, 47.72 26.1, 46.28 31.28 C44.85 36.46, 41.1 42.41, 36.89 45.37 C32.67 48.33, 26.07 49.77, 21 49.05 C15.92 48.33, 9.89 44.82, 6.44 41.04 C2.98 37.25, 0.56 31.46, 0.28 26.33 C0 21.2, 1.57 14.63, 4.77 10.26 C7.97 5.89, 16.89 1.71, 19.49 0.1 C22.1 -1.5, 20.44 0.11, 20.39 0.62 M23.14 -0.18 C27.89 -0.57, 34.24 2.09, 38.22 5.47 C42.2 8.85, 46.07 14.9, 47.01 20.09 C47.94 25.27, 46.37 31.88, 43.83 36.59 C41.3 41.3, 36.5 46.52, 31.82 48.35 C27.14 50.18, 20.62 49.52, 15.77 47.58 C10.93 45.65, 5.2 41.29, 2.77 36.75 C0.34 32.21, 0.08 25.55, 1.17 20.34 C2.25 15.14, 5.58 9.02, 9.28 5.51 C12.98 1.99, 21.04 0.19, 23.35 -0.73 C25.66 -1.66, 23.02 -0.68, 23.14 -0.03" stroke="#1e1e1e" stroke-width="2" fill="none"></path></g><g transform="translate(108.41685644860047 22.175883860929588) rotate(0 6.669990539550781 12.5)"><text x="6.669990539550781" y="17.52" font-family="Virgil, Segoe UI Emoji" font-size="20px" fill="#1e1e1e" text-anchor="middle" style="white-space: pre;" direction="ltr" dominant-baseline="alphabetic">a</text></g><g stroke-linecap="round" transform="translate(12.916603948163129 105.92190627588838) rotate(0 23.5 24.5)"><path d="M23.78 0.26 C28.56 0.1, 35.07 3.16, 38.98 6.64 C42.88 10.12, 46.41 16.02, 47.2 21.15 C47.98 26.27, 46.47 32.9, 43.69 37.38 C40.91 41.86, 35.29 46.33, 30.53 48.01 C25.77 49.68, 19.69 49.33, 15.12 47.42 C10.55 45.5, 5.62 41.14, 3.13 36.52 C0.63 31.9, -0.79 24.97, 0.16 19.7 C1.11 14.42, 4.66 8.16, 8.84 4.89 C13.01 1.62, 22.48 0.75, 25.21 0.08 C27.94 -0.6, 25.4 0.46, 25.25 0.84 M17.79 0.77 C22.4 -0.58, 29.11 0.87, 33.79 3.36 C38.47 5.85, 43.82 11, 45.88 15.7 C47.94 20.4, 47.69 26.56, 46.13 31.59 C44.58 36.61, 40.73 42.89, 36.54 45.86 C32.35 48.83, 26.04 50.28, 20.99 49.4 C15.95 48.53, 9.87 44.67, 6.25 40.6 C2.63 36.52, -0.38 30.05, -0.71 24.93 C-1.04 19.82, 0.99 13.99, 4.28 9.9 C7.57 5.81, 16.61 1.94, 19.01 0.4 C21.42 -1.15, 18.77 0.25, 18.71 0.62" stroke="#1e1e1e" stroke-width="2" fill="none"></path></g><g transform="translate(31.219600388619142 118.09779013681793) rotate(0 5.079994201660156 12.5)"><text x="5.079994201660156" y="17.52" font-family="Virgil, Segoe UI Emoji" font-size="20px" fill="#1e1e1e" text-anchor="middle" style="white-space: pre;" direction="ltr" dominant-baseline="alphabetic">b</text></g><g stroke-linecap="round" transform="translate(174.91660394816313 110.92190627588838) rotate(0 23.5 24.5)"><path d="M21.59 0.3 C26.25 -0.58, 32.8 1.06, 36.94 4.09 C41.08 7.12, 45.09 13.29, 46.43 18.47 C47.77 23.65, 47.06 30.52, 44.97 35.17 C42.88 39.81, 38.43 44.21, 33.88 46.36 C29.32 48.51, 22.62 49.3, 17.63 48.06 C12.63 46.81, 6.82 43.2, 3.9 38.88 C0.98 34.55, -0.42 27.45, 0.12 22.09 C0.66 16.73, 3.47 10.46, 7.13 6.71 C10.79 2.96, 19.49 0.6, 22.07 -0.41 C24.66 -1.41, 22.65 0.2, 22.64 0.7 M20.35 0.52 C24.89 -0.66, 30.95 1.04, 35.29 3.77 C39.64 6.49, 44.62 11.97, 46.42 16.87 C48.22 21.77, 48.08 28.46, 46.09 33.17 C44.1 37.88, 39.1 42.65, 34.48 45.13 C29.87 47.61, 23.24 48.79, 18.42 48.05 C13.6 47.31, 8.67 44.63, 5.57 40.71 C2.46 36.78, -0.14 29.88, -0.2 24.49 C-0.26 19.09, 1.97 12.28, 5.22 8.35 C8.47 4.42, 16.93 2.18, 19.31 0.92 C21.68 -0.34, 19.45 0.4, 19.47 0.78" stroke="#1e1e1e" stroke-width="2" fill="none"></path></g><g transform="translate(193.35959977826758 123.09779013681793) rotate(0 4.939994812011719 12.5)"><text x="4.939994812011719" y="17.52" font-family="Virgil, Segoe UI Emoji" font-size="20px" fill="#1e1e1e" text-anchor="middle" style="white-space: pre;" direction="ltr" dominant-baseline="alphabetic">h</text></g><g stroke-linecap="round" transform="translate(79.50546445737814 199.26212989929735) rotate(0 23.5 24.5)"><path d="M27.57 0.22 C32.2 0.84, 37.76 4.93, 41.01 8.89 C44.25 12.85, 46.88 18.87, 47.03 23.99 C47.18 29.1, 45.12 35.57, 41.89 39.6 C38.66 43.63, 32.71 47.07, 27.66 48.15 C22.61 49.22, 16.01 48.52, 11.59 46.03 C7.17 43.54, 2.89 38.08, 1.13 33.19 C-0.63 28.31, -0.8 21.64, 1.02 16.74 C2.84 11.85, 7.4 6.54, 12.04 3.83 C16.67 1.12, 25.83 0.79, 28.84 0.48 C31.85 0.16, 30.18 1.44, 30.12 1.93 M22.92 -0.53 C27.83 -0.57, 35.04 2.98, 38.96 6.51 C42.89 10.04, 45.74 15.64, 46.46 20.67 C47.19 25.7, 45.9 32.11, 43.32 36.7 C40.75 41.28, 35.73 46.38, 31.01 48.17 C26.3 49.96, 19.79 49.3, 15.03 47.44 C10.27 45.59, 4.79 41.63, 2.46 37.05 C0.13 32.48, 0.16 25.35, 1.04 20.01 C1.92 14.67, 3.88 8.25, 7.76 5.01 C11.64 1.78, 21.76 1.32, 24.34 0.63 C26.92 -0.07, 23.31 0.54, 23.23 0.86" stroke="#1e1e1e" stroke-width="2" fill="none"></path></g><g transform="translate(97.41846150818571 211.4380137602269) rotate(0 5.469993591308594 12.5)"><text x="5.469993591308594" y="17.52" font-family="Virgil, Segoe UI Emoji" font-size="20px" fill="#1e1e1e" text-anchor="middle" style="white-space: pre;" direction="ltr" dominant-baseline="alphabetic">e</text></g><g stroke-linecap="round" transform="translate(271.91660394816313 214.92190627588838) rotate(0 23.5 24.5)"><path d="M17.53 0.92 C22.07 -0.49, 28.98 0.27, 33.5 2.62 C38.02 4.97, 42.49 10.16, 44.67 15.01 C46.84 19.87, 47.86 26.8, 46.54 31.75 C45.21 36.7, 40.94 41.78, 36.72 44.72 C32.5 47.65, 26.18 49.83, 21.21 49.36 C16.23 48.88, 10.39 45.8, 6.87 41.87 C3.35 37.95, 0.54 31.18, 0.07 25.8 C-0.41 20.41, 0.98 13.75, 4.03 9.56 C7.09 5.38, 15.72 2.15, 18.41 0.67 C21.1 -0.81, 20.02 0.36, 20.19 0.68 M21.78 0.02 C26.5 -0.62, 32.67 2.13, 36.87 5.25 C41.08 8.36, 45.86 13.78, 47.01 18.71 C48.16 23.64, 46.02 30.01, 43.78 34.82 C41.54 39.64, 38.12 45.34, 33.55 47.6 C28.99 49.85, 21.31 49.94, 16.4 48.35 C11.49 46.76, 6.76 42.51, 4.09 38.06 C1.42 33.61, -0.07 26.88, 0.37 21.63 C0.81 16.39, 3.15 10.27, 6.72 6.57 C10.28 2.87, 19.12 0.43, 21.79 -0.55 C24.45 -1.53, 22.52 0.22, 22.69 0.69" stroke="#1e1e1e" stroke-width="2" fill="none"></path></g><g transform="translate(293.10959977826747 227.09779013681793) rotate(0 2.1899948120117188 12.5)"><text x="2.1899948120117188" y="17.52" font-family="Virgil, Segoe UI Emoji" font-size="20px" fill="#1e1e1e" text-anchor="middle" style="white-space: pre;" direction="ltr" dominant-baseline="alphabetic">i</text></g><g stroke-linecap="round" transform="translate(97.50546445737814 316.26212989929735) rotate(0 23.5 24.5)"><path d="M28.84 1.08 C33.6 1.95, 39.45 5.98, 42.48 10.01 C45.5 14.03, 47.35 20.15, 46.99 25.25 C46.63 30.34, 43.79 36.64, 40.32 40.59 C36.85 44.54, 31.03 48.22, 26.19 48.96 C21.36 49.7, 15.46 47.92, 11.31 45.01 C7.15 42.11, 2.87 36.57, 1.27 31.54 C-0.34 26.51, -0.29 19.67, 1.68 14.84 C3.64 10.01, 8.28 4.92, 13.07 2.56 C17.86 0.2, 27.22 0.67, 30.43 0.68 C33.64 0.7, 32.48 2.27, 32.35 2.65 M18.25 0.89 C22.79 -0.54, 30.23 0.54, 34.77 2.94 C39.32 5.34, 43.79 10.46, 45.53 15.3 C47.27 20.13, 46.87 27.07, 45.22 31.98 C43.56 36.88, 39.69 41.89, 35.61 44.71 C31.54 47.54, 25.6 49.59, 20.76 48.91 C15.92 48.23, 10.04 44.51, 6.58 40.62 C3.12 36.74, 0.32 30.93, -0.01 25.61 C-0.34 20.29, 1.44 12.93, 4.61 8.69 C7.77 4.44, 16.56 1.35, 18.99 0.14 C21.43 -1.08, 19.25 1.02, 19.23 1.41" stroke="#1e1e1e" stroke-width="2" fill="none"></path></g><g transform="translate(115.87846059265837 328.43801376022697) rotate(0 5.0099945068359375 12.5)"><text x="5.0099945068359375" y="17.52" font-family="Virgil, Segoe UI Emoji" font-size="20px" fill="#1e1e1e" text-anchor="middle" style="white-space: pre;" direction="ltr" dominant-baseline="alphabetic">g</text></g><g stroke-linecap="round"><g transform="translate(99.351723517756 65.98104085872052) rotate(0 -20.594418168712423 20.38707416796558)"><path d="M0.33 -1.16 C-6.36 5.51, -33.88 33.79, -40.62 40.72 M-0.96 0.85 C-7.71 7.65, -34.72 35.45, -41.28 42.23" stroke="#1e1e1e" stroke-width="2" fill="none"></path></g></g><mask></mask><g stroke-linecap="round"><g transform="translate(134.99959389302762 57.85557614817202) rotate(0 21.145995296125307 27.692621506079547)"><path d="M-0.18 0.79 C6.55 9.66, 34.28 45.3, 41.55 54.34 M-1.73 0.16 C5.28 9.66, 36.37 46, 43.87 55.32" stroke="#1e1e1e" stroke-width="2" fill="none"></path></g></g><mask></mask><g stroke-linecap="round"><g transform="translate(56.050910857984604 157.74955084340047) rotate(0 13.391522592341971 22.302481397534763)"><path d="M0.12 -1.13 C4.3 6.39, 21.71 36.32, 26.16 43.97 M-1.28 0.9 C3.21 8.66, 23.98 37.63, 28.54 45.18" stroke="#1e1e1e" stroke-width="2" fill="none"></path></g></g><mask></mask><g stroke-linecap="round"><g transform="translate(104.49402910626611 253.2273916019479) rotate(0 9.529569173475068 30.13039490662942)"><path d="M-0.17 -0.64 C2.89 9.34, 14.76 50.82, 18.04 60.88 M-1.72 1.64 C1.74 11.78, 16.77 49.23, 20.22 59.08" stroke="#1e1e1e" stroke-width="2" fill="none"></path></g></g><mask></mask><g stroke-linecap="round" transform="translate(10 320.6546397297613) rotate(0 23.5 24.5)"><path d="M25.94 0.3 C30.77 0.56, 36.68 3.89, 40.1 7.52 C43.52 11.16, 46.08 16.94, 46.47 22.09 C46.86 27.25, 45.33 34.12, 42.46 38.44 C39.59 42.76, 34.09 46.58, 29.23 48 C24.36 49.42, 17.71 49.12, 13.27 46.95 C8.82 44.78, 4.67 39.78, 2.58 35 C0.48 30.21, -0.59 23.36, 0.7 18.23 C1.98 13.1, 5.94 7.13, 10.28 4.22 C14.62 1.3, 23.71 1.22, 26.76 0.73 C29.82 0.24, 28.7 0.96, 28.62 1.29 M26.95 0.1 C31.49 0.74, 37.34 4.95, 40.76 9.06 C44.18 13.16, 47.35 19.67, 47.47 24.75 C47.58 29.84, 44.64 35.61, 41.46 39.56 C38.29 43.52, 33.39 47.42, 28.42 48.48 C23.44 49.53, 16.14 48.39, 11.6 45.89 C7.06 43.39, 2.9 38.47, 1.19 33.49 C-0.52 28.5, -0.33 21.09, 1.33 15.99 C2.99 10.9, 6.82 5.63, 11.16 2.91 C15.5 0.19, 24.79 0.15, 27.38 -0.31 C29.96 -0.77, 26.81 -0.33, 26.69 0.16" stroke="#1e1e1e" stroke-width="2" fill="none"></path></g><g transform="translate(28.52299766115914 332.8305235906909) rotate(0 4.859992980957031 12.5)"><text x="4.859992980957031" y="17.52" font-family="Virgil, Segoe UI Emoji" font-size="20px" fill="#1e1e1e" text-anchor="middle" style="white-space: pre;" direction="ltr" dominant-baseline="alphabetic">f</text></g><g stroke-linecap="round"><g transform="translate(84.59962729431845 248.45897406949246) rotate(0 -18.581682652479458 32.9824867081509)"><path d="M-0.32 0.07 C-6.64 11.21, -32.12 55.09, -38.25 66.15 M1.72 -0.93 C-4.22 10.49, -29.51 56.9, -36.11 67.79" stroke="#1e1e1e" stroke-width="2" fill="none"></path></g></g><mask></mask><g stroke-linecap="round"><g transform="translate(223.96224718791404 151.83422427659946) rotate(0 26.478897779783097 30.659776376591026)"><path d="M-0.15 -0.35 C8.79 9.71, 44.91 50.42, 53.95 60.54 M-1.69 -1.59 C7.16 8.6, 44.26 51.21, 53.52 61.67" stroke="#1e1e1e" stroke-width="2" fill="none"></path></g></g><mask></mask></svg>
